lekton_bold.sfdir
StartChar: quotedbl
Encoding: 34 34 5
Width: 500
GlyphClass: 2
Flags: W
LayerCount: 2
Back
Fore
SplineSet
123 463 m 1,0,-1
 123 680 l 1,1,-1
 211 680 l 1,2,-1
 211 463 l 1,3,-1
 123 463 l 1,0,-1
288 463 m 1,4,-1
 288 680 l 1,5,-1
 376 680 l 1,6,-1
 376 463 l 1,7,-1
 288 463 l 1,4,-1
EndSplineSet
EndChar
StartChar: numbersign
Encoding: 35 35 6
Width: 500
GlyphClass: 2
Flags: W
LayerCount: 2
Back
Fore
SplineSet
298 251 m 1,0,-1
 317 423 l 1,1,-1
 203 423 l 1,2,-1
 184 251 l 1,3,-1
 298 251 l 1,0,-1
477 177 m 1,4,-1
 373 177 l 1,5,-1
 353 0 l 1,6,-1
 270 0 l 1,7,-1
 291 177 l 1,8,-1
 177 177 l 1,9,-1
 156 0 l 1,10,-1
 74 0 l 1,11,-1
 95 177 l 1,12,-1
 0 177 l 1,13,-1
 0 251 l 1,14,-1
 102 251 l 1,15,-1
 121 423 l 1,16,-1
 23 423 l 1,17,-1
 23 496 l 1,18,-1
 128 496 l 1,19,-1
 146 655 l 1,20,-1
 228 655 l 1,21,-1
 210 496 l 1,22,-1
 325 496 l 1,23,-1
 342 655 l 1,24,-1
 424 655 l 1,25,-1
 407 496 l 1,26,-1
 500 496 l 1,27,-1
 500 423 l 1,28,-1
 399 423 l 1,29,-1
 380 251 l 1,30,-1
 477 251 l 1,31,-1
 477 177 l 1,4,-1
EndSplineSet
Substitution2: "'calt' Contextual Alternates in Latin lookup 0 subtable" numbersign.calt
EndChar
StartChar: dollar
Encoding: 36 36 7
Width: 500
GlyphClass: 2
Flags: W
LayerCount: 2
Back
Fore
SplineSet
451 175 m 0,0,1
 451 12 451 12 283 -7 c 1,2,-1
 283 -92 l 1,3,-1
 183 -92 l 1,4,-1
 183 -7 l 1,5,6
 118 -1 118 -1 38 23 c 1,7,-1
 59 111 l 1,8,9
 238 52 238 52 308 96 c 0,10,11
 346 120 346 120 347 169.5 c 128,-1,12
 348 219 348 219 323.5 238 c 128,-1,13
 299 257 299 257 205.5 284 c 128,-1,14
 112 311 112 311 74.5 355.5 c 128,-1,15
 37 400 37 400 37 476 c 128,-1,16
 37 552 37 552 86 594 c 128,-1,17
 135 636 135 636 191 640 c 1,18,-1
 191 725 l 1,19,-1
 292 725 l 1,20,-1
 292 643 l 1,21,22
 352 641 352 641 437 610 c 1,23,-1
 414 522 l 1,24,25
 315 555 315 555 252 555 c 0,26,27
 251 555 251 555 248 555 c 0,28,29
 141 556 141 556 141 472 c 0,30,31
 141 402 141 402 259 371 c 0,32,33
 310 357 310 357 342 344 c 0,34,35
 373 332 373 332 400 310 c 0,36,37
 451 270 451 270 451 175 c 0,0,1
EndSplineSet
EndChar
StartChar: percent
Encoding: 37 37 8
Width: 500
GlyphClass: 2
Flags: W
LayerCount: 2
Back
Fore
SplineSet
335 665 m 1,0,-1
 429 665 l 1,1,-1
 162 0 l 1,2,-1
 68 0 l 1,3,-1
 335 665 l 1,0,-1
0 525 m 128,-1,5
 0 585 0 585 35 620 c 128,-1,6
 70 655 70 655 123 655 c 128,-1,7
 176 655 176 655 211 620 c 128,-1,8
 246 585 246 585 246 525 c 128,-1,9
 246 465 246 465 211 430 c 128,-1,10
 176 395 176 395 123 395 c 128,-1,11
 70 395 70 395 35 430 c 128,-1,4
 0 465 0 465 0 525 c 128,-1,5
123 580 m 128,-1,13
 74 580 74 580 74 524.5 c 128,-1,14
 74 469 74 469 123 469 c 128,-1,15
 172 469 172 469 172 524.5 c 128,-1,12
 172 580 172 580 123 580 c 128,-1,13
253 130 m 128,-1,17
 253 190 253 190 288 225 c 128,-1,18
 323 260 323 260 376 260 c 128,-1,19
 429 260 429 260 464 225 c 128,-1,20
 499 190 499 190 499 130 c 128,-1,21
 499 70 499 70 464 35 c 128,-1,22
 429 0 429 0 376 0 c 128,-1,23
 323 0 323 0 288 35 c 128,-1,16
 253 70 253 70 253 130 c 128,-1,17
326 128 m 128,-1,25
 326 100 326 100 339.5 85.5 c 128,-1,26
 353 71 353 71 375.5 71 c 128,-1,27
 398 71 398 71 411.5 85.5 c 128,-1,28
 425 100 425 100 425 128 c 0,29,30
 425 184 425 184 376 184 c 0,31,32
 353 184 353 184 339.5 170 c 128,-1,24
 326 156 326 156 326 128 c 128,-1,25
EndSplineSet
EndChar
StartChar: ampersand
Encoding: 38 38 9
Width: 500
GlyphClass: 2
Flags: W
LayerCount: 2
Back
Fore
SplineSet
4 197 m 0,0,1
 4 344 4 344 140 405 c 1,2,3
 104 466 104 466 99 487 c 0,4,5
 95 508 95 508 95 525 c 0,6,7
 95 588 95 588 137 626.5 c 128,-1,8
 179 665 179 665 251 665 c 128,-1,9
 323 665 323 665 364 627 c 0,10,11
 406 588 406 588 406 528 c 128,-1,12
 406 468 406 468 375 431.5 c 128,-1,13
 344 395 344 395 265 360 c 1,14,-1
 368 212 l 1,15,16
 388 261 388 261 406 388 c 1,17,-1
 491 376 l 1,18,19
 473 229 473 229 426 138 c 1,20,-1
 498 44 l 1,21,-1
 429 -10 l 1,22,23
 400 26 400 26 373 65 c 1,24,25
 304 -10 304 -10 206 -10 c 128,-1,26
 108 -10 108 -10 56 42 c 128,-1,27
 4 94 4 94 4 197 c 0,0,1
316 522 m 0,28,29
 316 584 316 584 252 584 c 128,-1,30
 188 584 188 584 188 525 c 0,31,32
 188 495 188 495 195 474.5 c 128,-1,33
 202 454 202 454 224 424 c 1,34,35
 276 445 276 445 296 467.5 c 128,-1,36
 316 490 316 490 316 522 c 0,28,29
95 197 m 0,37,38
 95 131 95 131 121 101 c 128,-1,39
 147 71 147 71 205 71 c 0,40,41
 280 71 280 71 325 132 c 1,42,-1
 179 339 l 1,43,44
 95 297 95 297 95 197 c 0,37,38
EndSplineSet
Substitution2: "'titl' Titling in Latin lookup 7 subtable" ampersand.alt
Substitution2: "'calt' Contextual Alternates in Latin lookup 0 subtable" ampersand.calt
EndChar
StartChar: quotesingle
Encoding: 39 39 10
Width: 500
GlyphClass: 2
Flags: W
LayerCount: 2
Back
Fore
SplineSet
199 463 m 1,0,-1
 199 680 l 1,1,-1
 287 680 l 1,2,-1
 287 463 l 1,3,-1
 199 463 l 1,0,-1
EndSplineSet
EndChar
StartChar: parenleft
Encoding: 40 40 11
Width: 500
GlyphClass: 2
Flags: W
LayerCount: 2
Back
Fore
SplineSet
213.5 54.5 m 128,-1,1
 174 164 174 164 174 317.5 c 128,-1,2
 174 471 174 471 214 581.5 c 128,-1,3
 254 692 254 692 332 806 c 1,4,-1
 407 758 l 1,5,6
 340 659 340 659 306 560.5 c 128,-1,7
 272 462 272 462 272 318 c 128,-1,8
 272 174 272 174 305.5 75.5 c 128,-1,9
 339 -23 339 -23 405 -120 c 1,10,-1
 332 -170 l 1,11,0
 253 -55 253 -55 213.5 54.5 c 128,-1,1
EndSplineSet
Substitution2: "Single Substitution lookup 21 subtable" roundedcornersleft.black
Substitution2: "Single Substitution lookup 20 subtable" roundedcornersleft.white
Substitution2: "Single Substitution lookup 19 subtable" parenleft
Substitution2: "'ss08' Style Set 8 in Latin lookup 17 subtable" parenleft
Substitution2: "'ss07' Style Set 7 in Latin lookup 15 subtable" parenleft
Substitution2: "'ss06' Style Set 6 in Latin lookup 14 subtable" roundedcornersleft.black
Substitution2: "'ss05' Style Set 5 in Latin lookup 13 subtable" roundedcornersleft.white
Substitution2: "'ss04' Style Set 4 in Latin lookup 12 subtable" parenleft
Substitution2: "'ss03' Style Set 3 in Latin lookup 11 subtable" parenleft
Substitution2: "'onum' Oldstyle Figures in Latin lookup 2 subtable" parenleft
EndChar
StartChar: parenright
Encoding: 41 41 12
Width: 500
GlyphClass: 2
Flags: W
LayerCount: 2
Back
Fore
SplineSet
209 318 m 128,-1,1
 209 462 209 462 175 560.5 c 128,-1,2
 141 659 141 659 74 758 c 1,3,-1
 149 806 l 1,4,5
 227 692 227 692 267 582 c 256,6,7
 307 472 307 472 307 318 c 128,-1,8
 307 164 307 164 267.5 54.5 c 128,-1,9
 228 -55 228 -55 149 -170 c 1,10,-1
 76 -120 l 1,11,12
 142 -23 142 -23 175.5 75.5 c 128,-1,0
 209 174 209 174 209 318 c 128,-1,1
EndSplineSet
Substitution2: "Single Substitution lookup 21 subtable" roundedcornersright.black
Substitution2: "Single Substitution lookup 20 subtable" roundedcornersright.white
Substitution2: "Single Substitution lookup 19 subtable" parenright
Substitution2: "'ss08' Style Set 8 in Latin lookup 17 subtable" parenright
Substitution2: "'ss07' Style Set 7 in Latin lookup 15 subtable" parenright
Substitution2: "'ss06' Style Set 6 in Latin lookup 14 subtable" roundedcornersright.black
Substitution2: "'ss05' Style Set 5 in Latin lookup 13 subtable" roundedcornersright.white
Substitution2: "'ss04' Style Set 4 in Latin lookup 12 subtable" parenright
Substitution2: "'ss03' Style Set 3 in Latin lookup 11 subtable" parenright
Substitution2: "'onum' Oldstyle Figures in Latin lookup 2 subtable" parenright
EndChar
StartChar: asterisk
Encoding: 42 42 13
Width: 500
GlyphClass: 2
Flags: W
LayerCount: 2
Back
Fore
SplineSet
70 484 m 1,0,-1
 70 572 l 1,1,-1
 192 569 l 1,2,-1
 148 681 l 1,3,-1
 240 712 l 1,4,-1
 271 594 l 1,5,-1
 367 669 l 1,6,-1
 424 593 l 1,7,-1
 317 526 l 1,8,-1
 423 461 l 1,9,-1
 366 383 l 1,10,-1
 269 459 l 1,11,-1
 236 342 l 1,12,-1
 146 375 l 1,13,-1
 190 485 l 1,14,-1
 70 484 l 1,0,-1
EndSplineSet
EndChar
StartChar: plus
Encoding: 43 43 14
Width: 500
GlyphClass: 2
Flags: W
LayerCount: 2
Back
Fore
SplineSet
461 235 m 1,0,-1
 300 235 l 1,1,-1
 300 71 l 1,2,-1
 200 71 l 1,3,-1
 200 235 l 1,4,-1
 40 235 l 1,5,-1
 40 331 l 1,6,-1
 200 331 l 1,7,-1
 200 494 l 1,8,-1
 300 494 l 1,9,-1
 300 331 l 1,10,-1
 461 331 l 1,11,-1
 461 235 l 1,0,-1
EndSplineSet
Substitution2: "'calt' Contextual Alternates in Latin lookup 0 subtable" plus.calt
EndChar
StartChar: comma
Encoding: 44 44 15
Width: 500
GlyphClass: 2
Flags: W
LayerCount: 2
Back
Fore
SplineSet
173 0 m 1,0,-1
 173 145 l 1,1,-1
 315 145 l 1,2,-1
 315 30 l 2,3,4
 315 -61 315 -61 233 -143 c 1,5,-1
 172 -112 l 1,6,7
 215 -53 215 -53 219 0 c 1,8,-1
 173 0 l 1,0,-1
EndSplineSet
Substitution2: "'ss01' Style Set 1 in Latin lookup 9 subtable" comma.bi
EndChar
StartChar: hyphen
Encoding: 45 45 16
Width: 500
GlyphClass: 2
Flags: W
LayerCount: 2
Back
Fore
SplineSet
110 218 m 1,0,-1
 110 315 l 1,1,-1
 391 315 l 1,2,-1
 391 218 l 1,3,-1
 110 218 l 1,0,-1
EndSplineSet
EndChar
StartChar: period
Encoding: 46 46 17
Width: 500
GlyphClass: 2
Flags: W
LayerCount: 2
Back
Fore
SplineSet
175 0 m 1,0,-1
 175 145 l 1,1,-1
 320 145 l 1,2,-1
 320 0 l 1,3,-1
 175 0 l 1,0,-1
EndSplineSet
Substitution2: "'ss01' Style Set 1 in Latin lookup 9 subtable" period.bi
EndChar
StartChar: slash
Encoding: 47 47 18
Width: 500
GlyphClass: 2
Flags: W
LayerCount: 2
Back
Fore
SplineSet
2 -11 m 1,0,-1
 416 717 l 1,1,-1
 498 669 l 1,2,-1
 84 -60 l 1,3,-1
 2 -11 l 1,0,-1
EndSplineSet
Substitution2: "'ss08' Style Set 8 in Latin lookup 17 subtable" halfcircleleft.bl
Substitution2: "'ss07' Style Set 7 in Latin lookup 15 subtable" halfcircleleft.wt
Substitution2: "'ss06' Style Set 6 in Latin lookup 14 subtable" rectangle.black
Substitution2: "'ss05' Style Set 5 in Latin lookup 13 subtable" rectangle.white
Substitution2: "'ss04' Style Set 4 in Latin lookup 12 subtable" circle.white
Substitution2: "'ss03' Style Set 3 in Latin lookup 11 subtable" circle.black
Substitution2: "'onum' Oldstyle Figures in Latin lookup 2 subtable" slash
EndChar
StartChar: zero
Encoding: 48 48 19
Width: 500
GlyphClass: 2
Flags: W
LayerCount: 2
Back
Fore
SplineSet
92.5 567 m 128,-1,1
 145 644 145 644 249.5 644 c 128,-1,2
 354 644 354 644 406.5 567 c 128,-1,3
 459 490 459 490 459 318.5 c 128,-1,4
 459 147 459 147 406 68.5 c 128,-1,5
 353 -10 353 -10 249 -10 c 128,-1,6
 145 -10 145 -10 92.5 68.5 c 128,-1,7
 40 147 40 147 40 318.5 c 128,-1,0
 40 490 40 490 92.5 567 c 128,-1,1
249 81 m 0,8,9
 304 81 304 81 328.5 131 c 128,-1,10
 353 181 353 181 353 318.5 c 128,-1,11
 353 456 353 456 328.5 504 c 128,-1,12
 304 552 304 552 249 552 c 128,-1,13
 194 552 194 552 171 504.5 c 128,-1,14
 148 457 148 457 148 340.5 c 128,-1,15
 148 224 148 224 159.5 171.5 c 128,-1,16
 171 119 171 119 192 100 c 128,-1,17
 213 81 213 81 249 81 c 0,8,9
EndSplineSet
Substitution2: "'ss08' Style Set 8 in Latin lookup 17 subtable" zero.halfcircleleft.bl
Substitution2: "'ss07' Style Set 7 in Latin lookup 15 subtable" zero.halfcircleleft.wt
Substitution2: "'ss06' Style Set 6 in Latin lookup 14 subtable" zero.small.black
Substitution2: "'ss05' Style Set 5 in Latin lookup 13 subtable" zero.small.white
Substitution2: "'ss04' Style Set 4 in Latin lookup 12 subtable" zero.circle.white
Substitution2: "'ss03' Style Set 3 in Latin lookup 11 subtable" zero.circle.black
Substitution2: "'onum' Oldstyle Figures in Latin lookup 2 subtable" zero.onum
EndChar
StartChar: one
Encoding: 49 49 20
Width: 500
GlyphClass: 2
Flags: W
LayerCount: 2
Back
Fore
SplineSet
474 0 m 1,0,-1
 69 0 l 1,1,-1
 69 92 l 1,2,-1
 234 92 l 1,3,-1
 233 529 l 1,4,-1
 78 459 l 1,5,-1
 42 543 l 1,6,-1
 247 635 l 1,7,-1
 327 635 l 1,8,-1
 327 92 l 1,9,-1
 474 92 l 1,10,-1
 474 0 l 1,0,-1
EndSplineSet
Substitution2: "'ss08' Style Set 8 in Latin lookup 17 subtable" one.halfcircleleft.bl
Substitution2: "'ss07' Style Set 7 in Latin lookup 15 subtable" one.halfcircleleft.wt
Substitution2: "'ss06' Style Set 6 in Latin lookup 14 subtable" one.small.black
Substitution2: "'ss05' Style Set 5 in Latin lookup 13 subtable" one.small.white
Substitution2: "'ss04' Style Set 4 in Latin lookup 12 subtable" one.circle.white
Substitution2: "'ss03' Style Set 3 in Latin lookup 11 subtable" one.circle.black
Substitution2: "'onum' Oldstyle Figures in Latin lookup 2 subtable" one.onum
EndChar
StartChar: two
Encoding: 50 50 21
Width: 500
GlyphClass: 2
Flags: W
LayerCount: 2
Back
Fore
SplineSet
444 459 m 0,0,1
 444 403 444 403 419.5 356 c 128,-1,2
 395 309 395 309 358 276 c 0,3,4
 322 243 322 243 284 215 c 0,5,6
 187 142 187 142 169 97 c 1,7,-1
 468 97 l 1,8,-1
 468 0 l 1,9,-1
 53 0 l 1,10,-1
 53 89 l 1,11,12
 73 139 73 139 111 182 c 0,13,14
 148 226 148 226 186 256 c 2,15,-1
 260 314 l 2,16,17
 340 380 340 380 339 459 c 0,18,19
 339 503 339 503 313 527.5 c 128,-1,20
 287 552 287 552 247.5 552 c 128,-1,21
 208 552 208 552 175.5 535.5 c 128,-1,22
 143 519 143 519 93 484 c 1,23,-1
 42 559 l 1,24,25
 88 593 88 593 143 618 c 128,-1,26
 198 643 198 643 240 643 c 0,27,28
 328 643 328 643 386 596.5 c 128,-1,29
 444 550 444 550 444 459 c 0,0,1
EndSplineSet
Substitution2: "'ss08' Style Set 8 in Latin lookup 17 subtable" two.halfcircleleft.bl
Substitution2: "'ss07' Style Set 7 in Latin lookup 15 subtable" two.halfcircleleft.wt
Substitution2: "'ss06' Style Set 6 in Latin lookup 14 subtable" two.small.black
Substitution2: "'ss05' Style Set 5 in Latin lookup 13 subtable" two.small.white
Substitution2: "'ss04' Style Set 4 in Latin lookup 12 subtable" two.circle.white
Substitution2: "'ss03' Style Set 3 in Latin lookup 11 subtable" two.circle.black
Substitution2: "'onum' Oldstyle Figures in Latin lookup 2 subtable" two.onum
EndChar
StartChar: three
Encoding: 51 51 22
Width: 500
GlyphClass: 2
Flags: W
LayerCount: 2
Back
Fore
SplineSet
139 271 m 1,0,-1
 126 359 l 1,1,-1
 201 370 l 2,2,3
 331 390 331 390 331 480 c 0,4,5
 331 521 331 521 304.5 535 c 128,-1,6
 278 549 278 549 232 549 c 128,-1,7
 186 549 186 549 86 505 c 1,8,-1
 52 591 l 1,9,10
 92 610 92 610 148 626.5 c 128,-1,11
 204 643 204 643 239 643 c 0,12,13
 327 643 327 643 382.5 606 c 128,-1,14
 438 569 438 569 438 485 c 0,15,16
 438 420 438 420 410 391 c 0,17,18
 394 374 394 374 381.5 366 c 128,-1,19
 369 358 369 358 341 341 c 1,20,-1
 341 337 l 1,21,22
 464 307 464 307 464 175 c 0,23,24
 464 -10 464 -10 237 -10 c 0,25,26
 146 -10 146 -10 39 33 c 1,27,-1
 71 122 l 1,28,29
 169 84 169 84 237 84 c 0,30,31
 355 84 355 84 355 171 c 0,32,33
 355 284 355 284 245 284 c 1,34,-1
 139 271 l 1,0,-1
EndSplineSet
Substitution2: "'ss08' Style Set 8 in Latin lookup 17 subtable" three.halfcircleleft.bl
Substitution2: "'ss07' Style Set 7 in Latin lookup 15 subtable" three.halfcircleleft.wt
Substitution2: "'ss06' Style Set 6 in Latin lookup 14 subtable" three.small.black
Substitution2: "'ss05' Style Set 5 in Latin lookup 13 subtable" three.small.white
Substitution2: "'ss04' Style Set 4 in Latin lookup 12 subtable" three.circle.white
Substitution2: "'ss03' Style Set 3 in Latin lookup 11 subtable" three.circle.black
Substitution2: "'onum' Oldstyle Figures in Latin lookup 2 subtable" three.onum
EndChar
StartChar: five
Encoding: 53 53 24
Width: 500
GlyphClass: 2
Flags: W
LayerCount: 2
Back
Fore
SplineSet
417.5 365.5 m 128,-1,1
 468 306 468 306 468 208 c 128,-1,2
 468 110 468 110 404 49.5 c 128,-1,3
 340 -11 340 -11 243 -11 c 128,-1,4
 146 -11 146 -11 34 35 c 1,5,-1
 66 124 l 1,6,7
 179 84 179 84 235.5 84 c 128,-1,8
 292 84 292 84 326 117 c 128,-1,9
 360 150 360 150 360 207 c 128,-1,10
 360 264 360 264 333 296 c 128,-1,11
 306 328 306 328 249.5 328 c 128,-1,12
 193 328 193 328 139 286 c 1,13,-1
 71 306 l 1,14,-1
 81 634 l 1,15,-1
 452 634 l 1,16,-1
 452 542 l 1,17,-1
 172 542 l 1,18,-1
 167 400 l 1,19,20
 211 425 211 425 263 425 c 0,21,0
 367 425 367 425 417.5 365.5 c 128,-1,1
EndSplineSet
Substitution2: "'ss08' Style Set 8 in Latin lookup 17 subtable" five.halfcircleleft.bl
Substitution2: "'ss07' Style Set 7 in Latin lookup 15 subtable" five.halfcircleleft.wt
Substitution2: "'ss06' Style Set 6 in Latin lookup 14 subtable" five.small.black
Substitution2: "'ss05' Style Set 5 in Latin lookup 13 subtable" five.small.white
Substitution2: "'ss04' Style Set 4 in Latin lookup 12 subtable" five.circle.white
Substitution2: "'ss03' Style Set 3 in Latin lookup 11 subtable" five.circle.black
Substitution2: "'onum' Oldstyle Figures in Latin lookup 2 subtable" five.onum
EndChar
StartChar: six
Encoding: 54 54 25
Width: 500
GlyphClass: 2
Flags: W
LayerCount: 2
Back
Fore
SplineSet
412.5 353.5 m 128,-1,1
 473 300 473 300 473 201 c 128,-1,2
 473 102 473 102 413 45.5 c 128,-1,3
 353 -11 353 -11 255 -11 c 128,-1,4
 157 -11 157 -11 95 50.5 c 128,-1,5
 33 112 33 112 33 222 c 0,6,7
 33 367 33 367 111.5 467.5 c 128,-1,8
 190 568 190 568 359 651 c 1,9,-1
 400 557 l 1,10,11
 300 508 300 508 252 472 c 128,-1,12
 204 436 204 436 165 378 c 1,13,14
 201 407 201 407 276.5 407 c 128,-1,0
 352 407 352 407 412.5 353.5 c 128,-1,1
337 110 m 128,-1,16
 372 140 372 140 372 202.5 c 128,-1,17
 372 265 372 265 337.5 290 c 128,-1,18
 303 315 303 315 257 315 c 128,-1,19
 211 315 211 315 173.5 286 c 128,-1,20
 136 257 136 257 136 209 c 0,21,22
 136 137 136 137 171 108.5 c 128,-1,23
 206 80 206 80 254 80 c 128,-1,15
 302 80 302 80 337 110 c 128,-1,16
EndSplineSet
Substitution2: "'ss08' Style Set 8 in Latin lookup 17 subtable" six.halfcircleleft.bl
Substitution2: "'ss07' Style Set 7 in Latin lookup 15 subtable" six.halfcircleleft.wt
Substitution2: "'ss06' Style Set 6 in Latin lookup 14 subtable" six.small.black
Substitution2: "'ss05' Style Set 5 in Latin lookup 13 subtable" six.small.white
Substitution2: "'ss04' Style Set 4 in Latin lookup 12 subtable" six.circle.white
Substitution2: "'ss03' Style Set 3 in Latin lookup 11 subtable" six.circle.black
Substitution2: "'onum' Oldstyle Figures in Latin lookup 2 subtable" six.onum
EndChar
StartChar: seven
Encoding: 55 55 26
Width: 500
GlyphClass: 2
Flags: W
LayerCount: 2
Back
Fore
SplineSet
31 488 m 1,0,-1
 57 634 l 1,1,-1
 452 634 l 1,2,-1
 452 542 l 1,3,4
 446 516 446 516 410 452 c 2,5,-1
 338 322 l 2,6,7
 301 256 301 256 269 165 c 128,-1,8
 237 74 237 74 235 0 c 1,9,-1
 133 0 l 1,10,11
 133 77 133 77 161 165 c 0,12,13
 190 253 190 253 224 317 c 2,14,-1
 292 446 l 2,15,16
 326 511 326 511 331 542 c 1,17,-1
 133 542 l 1,18,-1
 117 484 l 1,19,-1
 31 488 l 1,0,-1
EndSplineSet
Substitution2: "'ss08' Style Set 8 in Latin lookup 17 subtable" seven.halfcircleleft.bl
Substitution2: "'ss07' Style Set 7 in Latin lookup 15 subtable" seven.halfcircleleft.wt
Substitution2: "'ss06' Style Set 6 in Latin lookup 14 subtable" seven.small.black
Substitution2: "'ss05' Style Set 5 in Latin lookup 13 subtable" seven.small.white
Substitution2: "'ss04' Style Set 4 in Latin lookup 12 subtable" seven.circle.white
Substitution2: "'ss03' Style Set 3 in Latin lookup 11 subtable" seven.circle.black
Substitution2: "'onum' Oldstyle Figures in Latin lookup 2 subtable" seven.onum
EndChar
StartChar: eight
Encoding: 56 56 27
Width: 500
GlyphClass: 2
Flags: W
LayerCount: 2
Back
Fore
SplineSet
39 176 m 0,0,1
 39 226 39 226 69 267 c 128,-1,2
 99 308 99 308 148 324 c 1,3,4
 50 366 50 366 50 465 c 0,5,6
 50 544 50 544 102.5 593.5 c 128,-1,7
 155 643 155 643 253.5 643 c 128,-1,8
 352 643 352 643 402.5 594 c 128,-1,9
 453 545 453 545 453 465 c 0,10,11
 453 413 453 413 428 376.5 c 128,-1,12
 403 340 403 340 358 326 c 1,13,14
 466 291 466 291 466 176 c 0,15,16
 466 90 466 90 409 40 c 128,-1,17
 352 -10 352 -10 249 -10 c 128,-1,18
 146 -10 146 -10 92.5 42 c 128,-1,19
 39 94 39 94 39 176 c 0,0,1
172 251.5 m 128,-1,21
 144 224 144 224 144 178 c 128,-1,22
 144 132 144 132 172.5 105.5 c 128,-1,23
 201 79 201 79 253 79 c 128,-1,24
 305 79 305 79 333 105 c 128,-1,25
 361 131 361 131 361 178 c 128,-1,26
 361 225 361 225 333 252 c 128,-1,27
 305 279 305 279 252.5 279 c 128,-1,20
 200 279 200 279 172 251.5 c 128,-1,21
153 465 m 128,-1,29
 153 423 153 423 177.5 395.5 c 128,-1,30
 202 368 202 368 252 368 c 128,-1,31
 302 368 302 368 326.5 394.5 c 128,-1,32
 351 421 351 421 351 465 c 0,33,34
 351 556 351 556 252 556 c 0,35,36
 202 556 202 556 177.5 531.5 c 128,-1,28
 153 507 153 507 153 465 c 128,-1,29
EndSplineSet
Substitution2: "'ss08' Style Set 8 in Latin lookup 17 subtable" eight.halfcircleleft.bl
Substitution2: "'ss07' Style Set 7 in Latin lookup 15 subtable" eight.halfcircleleft.wt
Substitution2: "'ss06' Style Set 6 in Latin lookup 14 subtable" eight.small.black
Substitution2: "'ss05' Style Set 5 in Latin lookup 13 subtable" eight.small.white
Substitution2: "'ss04' Style Set 4 in Latin lookup 12 subtable" eight.circle.white
Substitution2: "'ss03' Style Set 3 in Latin lookup 11 subtable" eight.circle.black
Substitution2: "'onum' Oldstyle Figures in Latin lookup 2 subtable" eight.onum
EndChar
StartChar: nine
Encoding: 57 57 28
Width: 500
GlyphClass: 2
Flags: W
LayerCount: 2
Back
Fore
SplineSet
102 283.5 m 128,-1,1
 46 332 46 332 46 431 c 128,-1,2
 46 530 46 530 103 586 c 128,-1,3
 160 642 160 642 261.5 642 c 128,-1,4
 363 642 363 642 420 582.5 c 128,-1,5
 477 523 477 523 477 410 c 0,6,7
 477 266 477 266 375 123 c 0,8,9
 345 82 345 82 324 58 c 2,10,11
 324 58 324 58 279 10 c 0,12,13
 255 -14 255 -14 254 -17 c 2,14,-1
 139 2 l 1,15,16
 143 7 143 7 181.5 48 c 128,-1,17
 220 89 220 89 238 111 c 0,18,19
 299 183 299 183 339 257 c 1,20,21
 295 235 295 235 238 235 c 0,22,0
 158 235 158 235 102 283.5 c 128,-1,1
182 523.5 m 128,-1,24
 149 496 149 496 149 435 c 128,-1,25
 149 374 149 374 183 350.5 c 128,-1,26
 217 327 217 327 263 327 c 128,-1,27
 309 327 309 327 343 354.5 c 128,-1,28
 377 382 377 382 377 435 c 0,29,30
 377 551 377 551 262 551 c 0,31,23
 215 551 215 551 182 523.5 c 128,-1,24
EndSplineSet
Substitution2: "'ss08' Style Set 8 in Latin lookup 17 subtable" nine.halfcircleleft.bl
Substitution2: "'ss07' Style Set 7 in Latin lookup 15 subtable" nine.halfcircleleft.wt
Substitution2: "'ss06' Style Set 6 in Latin lookup 14 subtable" nine.small.black
Substitution2: "'ss05' Style Set 5 in Latin lookup 13 subtable" nine.small.white
Substitution2: "'ss04' Style Set 4 in Latin lookup 12 subtable" nine.circle.white
Substitution2: "'ss03' Style Set 3 in Latin lookup 11 subtable" nine.circle.black
Substitution2: "'onum' Oldstyle Figures in Latin lookup 2 subtable" nine.onum
EndChar
StartChar: colon
Encoding: 58 58 29
Width: 500
GlyphClass: 2
Flags: W
LayerCount: 2
Back
Fore
SplineSet
175 0 m 1,0,-1
 175 145 l 1,1,-1
 320 145 l 1,2,-1
 320 0 l 1,3,-1
 175 0 l 1,0,-1
175 290 m 1,4,-1
 175 435 l 1,5,-1
 320 435 l 1,6,-1
 320 290 l 1,7,-1
 175 290 l 1,4,-1
EndSplineSet
Substitution2: "'ss01' Style Set 1 in Latin lookup 9 subtable" colon.bi
EndChar
StartChar: semicolon
Encoding: 59 59 30
Width: 500
GlyphClass: 2
Flags: W
LayerCount: 2
Back
Fore
SplineSet
173 289 m 1,0,-1
 173 434 l 1,1,-1
 315 434 l 1,2,-1
 315 289 l 1,3,-1
 173 289 l 1,0,-1
173 0 m 1,4,-1
 173 145 l 1,5,-1
 315 145 l 1,6,-1
 315 30 l 2,7,8
 315 -61 315 -61 233 -143 c 1,9,-1
 172 -112 l 1,10,11
 215 -53 215 -53 219 0 c 1,12,-1
 173 0 l 1,4,-1
EndSplineSet
Substitution2: "'ss01' Style Set 1 in Latin lookup 9 subtable" semicolon.bi
EndChar
StartChar: less
Encoding: 60 60 31
Width: 500
GlyphClass: 2
Flags: W
LayerCount: 2
Back
Fore
SplineSet
466 466 m 1,0,-1
 134 289 l 1,1,-1
 460 120 l 1,2,-1
 411 33 l 1,3,-1
 44 223 l 1,4,-1
 44 350 l 1,5,-1
 420 550 l 1,6,-1
 466 466 l 1,0,-1
EndSplineSet
EndChar
StartChar: equal
Encoding: 61 61 32
Width: 500
GlyphClass: 2
Flags: W
LayerCount: 2
Back
Fore
SplineSet
35 217 m 1,0,-1
 464 217 l 1,1,-1
 464 123 l 1,2,-1
 35 123 l 1,3,-1
 35 217 l 1,0,-1
35 385 m 1,4,-1
 464 385 l 1,5,-1
 464 291 l 1,6,-1
 35 291 l 1,7,-1
 35 385 l 1,4,-1
EndSplineSet
Substitution2: "'calt' Contextual Alternates in Latin lookup 0 subtable" equal.calt
EndChar
StartChar: greater
Encoding: 62 62 33
Width: 500
GlyphClass: 2
Flags: W
LayerCount: 2
Back
Fore
SplineSet
376 289 m 1,0,-1
 44 466 l 1,1,-1
 90 550 l 1,2,-1
 466 350 l 1,3,-1
 466 223 l 1,4,-1
 99 33 l 1,5,-1
 50 120 l 1,6,-1
 376 289 l 1,0,-1
EndSplineSet
EndChar
StartChar: question
Encoding: 63 63 34
Width: 500
GlyphClass: 2
Flags: W
LayerCount: 2
Back
Fore
SplineSet
195 -6 m 1,0,-1
 195 117 l 1,1,-1
 310 117 l 1,2,-1
 310 -6 l 1,3,-1
 195 -6 l 1,0,-1
447 517 m 0,4,5
 447 493 447 493 444 474 c 128,-1,6
 441 455 441 455 422 421.5 c 128,-1,7
 403 388 403 388 368 354 c 2,8,9
 368 354 368 354 346 333 c 0,10,11
 332 320 332 320 327 315 c 2,12,-1
 314 301 l 2,13,14
 293 279 293 279 291 266.5 c 128,-1,15
 289 254 289 254 289 241.5 c 128,-1,16
 289 229 289 229 296 187 c 1,17,-1
 203 181 l 1,18,19
 190 207 190 207 190 249 c 128,-1,20
 190 291 190 291 206.5 320.5 c 128,-1,21
 223 350 223 350 267 391.5 c 128,-1,22
 311 433 311 433 324.5 452.5 c 128,-1,23
 338 472 338 472 340 482.5 c 128,-1,24
 342 493 342 493 342 523.5 c 128,-1,25
 342 554 342 554 317.5 572.5 c 128,-1,26
 293 591 293 591 265.5 591 c 128,-1,27
 238 591 238 591 202 579.5 c 128,-1,28
 166 568 166 568 142 548 c 1,29,-1
 101 629 l 1,30,31
 138 658 138 658 183.5 671.5 c 128,-1,32
 229 685 229 685 263 685 c 0,33,34
 341 685 341 685 394 644.5 c 128,-1,35
 447 604 447 604 447 517 c 0,4,5
EndSplineSet
EndChar
StartChar: at
Encoding: 64 64 35
Width: 500
GlyphClass: 2
Flags: W
LayerCount: 2
Back
Fore
SplineSet
30 214 m 0,0,1
 30 359 30 359 102 441 c 128,-1,2
 174 523 174 523 304 523 c 0,3,4
 348 523 348 523 388 515 c 128,-1,5
 428 507 428 507 446 499 c 2,6,-1
 464 491 l 1,7,-1
 464 39 l 1,8,9
 406 13 406 13 322.5 13 c 128,-1,10
 239 13 239 13 205 60 c 128,-1,11
 171 107 171 107 171 209 c 128,-1,12
 171 311 171 311 209 355 c 128,-1,13
 247 399 247 399 323 399 c 0,14,15
 351 399 351 399 376 394 c 1,16,-1
 376 447 l 1,17,18
 347 453 347 453 304 453 c 0,19,20
 218 453 218 453 166 391.5 c 128,-1,21
 114 330 114 330 114 204 c 0,22,23
 114 -46 114 -46 308 -46 c 0,24,25
 375 -46 375 -46 444 -23 c 1,26,-1
 462 -90 l 1,27,28
 389 -115 389 -115 307 -115 c 0,29,30
 171 -115 171 -115 100.5 -36 c 128,-1,31
 30 43 30 43 30 214 c 0,0,1
285 123 m 128,-1,33
 298 97 298 97 326.5 97 c 128,-1,34
 355 97 355 97 376 104 c 1,35,-1
 376 312 l 1,36,37
 355 315 355 315 326 315 c 128,-1,38
 297 315 297 315 284.5 293 c 128,-1,39
 272 271 272 271 272 210 c 128,-1,32
 272 149 272 149 285 123 c 128,-1,33
EndSplineSet
EndChar
StartChar: B
Encoding: 66 66 37
Width: 500
GlyphClass: 2
Flags: W
LayerCount: 2
Back
Fore
SplineSet
45 0 m 1,0,-1
 45 655 l 1,1,-1
 246 655 l 2,2,3
 464 655 464 655 464 485 c 0,4,5
 464 430 464 430 436 390 c 128,-1,6
 408 350 408 350 360 340 c 1,7,8
 416 332 416 332 447.5 291.5 c 128,-1,9
 479 251 479 251 480 186 c 0,10,11
 480 0 480 0 237 0 c 2,12,-1
 45 0 l 1,0,-1
346 119 m 128,-1,14
 374 148 374 148 374 196.5 c 128,-1,15
 374 245 374 245 343.5 267 c 128,-1,16
 313 289 313 289 247 289 c 2,17,-1
 149 289 l 1,18,-1
 149 90 l 1,19,-1
 252 90 l 2,20,13
 318 90 318 90 346 119 c 128,-1,14
362 477 m 0,21,22
 362 565 362 565 253 565 c 2,23,-1
 149 565 l 1,24,-1
 149 379 l 1,25,-1
 245 379 l 2,26,27
 362 379 362 379 362 477 c 0,21,22
EndSplineSet
EndChar
StartChar: C
Encoding: 67 67 38
Width: 500
GlyphClass: 2
Flags: W
LayerCount: 2
Back
Fore
SplineSet
446 107 m 1,0,-1
 464 20 l 1,1,2
 362 -10 362 -10 292.5 -10 c 128,-1,3
 223 -10 223 -10 180.5 6 c 128,-1,4
 138 22 138 22 106 60 c 0,5,6
 40 137 40 137 40 334 c 0,7,8
 40 665 40 665 282 665 c 0,9,10
 366 665 366 665 451 636 c 1,11,-1
 429 551 l 1,12,13
 351 572 351 572 283.5 572 c 128,-1,14
 216 572 216 572 181 520 c 128,-1,15
 146 468 146 468 146 331.5 c 128,-1,16
 146 195 146 195 174.5 138.5 c 128,-1,17
 203 82 203 82 280.5 82 c 128,-1,18
 358 82 358 82 446 107 c 1,0,-1
EndSplineSet
Substitution2: "'calt' Contextual Alternates in Latin lookup 0 subtable" C.calt
EndChar
StartChar: D
Encoding: 68 68 39
Width: 500
GlyphClass: 2
Flags: W
LayerCount: 2
Back
Fore
SplineSet
38 0 m 1,0,-1
 38 655 l 1,1,-1
 194 655 l 2,2,3
 273 655 273 655 321.5 642 c 128,-1,4
 370 629 370 629 404 593 c 128,-1,5
 438 557 438 557 452 493.5 c 128,-1,6
 466 430 466 430 466 313.5 c 128,-1,7
 466 197 466 197 437.5 126 c 128,-1,8
 409 55 409 55 352 27.5 c 128,-1,9
 295 0 295 0 192 0 c 2,10,-1
 38 0 l 1,0,-1
351.5 204.5 m 128,-1,12
 360 250 360 250 360 328.5 c 128,-1,13
 360 407 360 407 353 452 c 128,-1,14
 346 497 346 497 323.5 523.5 c 128,-1,15
 301 550 301 550 268 557.5 c 128,-1,16
 235 565 235 565 174 565 c 2,17,-1
 142 565 l 1,18,-1
 142 90 l 1,19,-1
 172 90 l 2,20,21
 230 90 230 90 263.5 98.5 c 128,-1,22
 297 107 297 107 320 133 c 128,-1,11
 343 159 343 159 351.5 204.5 c 128,-1,12
EndSplineSet
EndChar
StartChar: F
Encoding: 70 70 41
Width: 500
GlyphClass: 2
Flags: W
LayerCount: 2
Back
Fore
SplineSet
64 0 m 1,0,-1
 64 655 l 1,1,-1
 448 655 l 1,2,-1
 448 561 l 1,3,-1
 168 561 l 1,4,-1
 168 339 l 1,5,-1
 407 339 l 1,6,-1
 407 249 l 1,7,-1
 168 249 l 1,8,-1
 168 0 l 1,9,-1
 64 0 l 1,0,-1
EndSplineSet
EndChar
StartChar: G
Encoding: 71 71 42
Width: 500
GlyphClass: 2
Flags: W
LayerCount: 2
Back
Fore
SplineSet
80.5 70 m 128,-1,1
 22 149 22 149 22 326 c 128,-1,2
 22 503 22 503 82.5 584 c 128,-1,3
 143 665 143 665 272 665 c 0,4,5
 374 665 374 665 456 637 c 1,6,-1
 438 548 l 1,7,8
 368 572 368 572 272 572 c 0,9,10
 193 572 193 572 160.5 515 c 128,-1,11
 128 458 128 458 128 331 c 128,-1,12
 128 204 128 204 162.5 145.5 c 128,-1,13
 197 87 197 87 266 87 c 0,14,15
 315 87 315 87 369 100 c 1,16,-1
 369 255 l 1,17,-1
 276 255 l 1,18,-1
 276 347 l 1,19,-1
 469 347 l 1,20,-1
 469 25 l 1,21,22
 374 -9 374 -9 266 -9 c 0,23,0
 139 -9 139 -9 80.5 70 c 128,-1,1
EndSplineSet
Substitution2: "'salt' Stylistic Alternatives in Latin lookup 1 subtable" G.001
EndChar
StartChar: H
Encoding: 72 72 43
Width: 500
GlyphClass: 2
Flags: W
LayerCount: 2
Back
Fore
SplineSet
32 0 m 1,0,-1
 32 655 l 1,1,-1
 137 655 l 1,2,-1
 137 373 l 1,3,-1
 364 373 l 1,4,-1
 364 655 l 1,5,-1
 469 655 l 1,6,-1
 469 0 l 1,7,-1
 364 0 l 1,8,-1
 364 279 l 1,9,-1
 137 279 l 1,10,-1
 137 0 l 1,11,-1
 32 0 l 1,0,-1
EndSplineSet
EndChar
StartChar: I
Encoding: 73 73 44
Width: 500
GlyphClass: 2
Flags: W
LayerCount: 2
Back
Fore
SplineSet
72 0 m 1,0,-1
 72 93 l 1,1,-1
 201 93 l 1,2,-1
 201 562 l 1,3,-1
 72 562 l 1,4,-1
 72 655 l 1,5,-1
 425 655 l 1,6,-1
 425 562 l 1,7,-1
 305 562 l 1,8,-1
 305 93 l 1,9,-1
 425 93 l 1,10,-1
 425 0 l 1,11,-1
 72 0 l 1,0,-1
EndSplineSet
Substitution2: "'ss01' Style Set 1 in Latin lookup 9 subtable" I.bi
Substitution2: "'swsh' Swash in Latin lookup 8 subtable" I.swsh
EndChar
StartChar: J
Encoding: 74 74 45
Width: 500
GlyphClass: 2
Flags: W
LayerCount: 2
Back
Fore
SplineSet
331 561 m 1,0,-1
 331 215 l 2,1,2
 331 79 331 79 307 34 c 128,-1,3
 283 -11 283 -11 196 -11 c 0,4,5
 140 -11 140 -11 44 16 c 1,6,-1
 62 101 l 1,7,8
 109 87 109 87 156 81 c 128,-1,9
 203 75 203 75 215 99.5 c 128,-1,10
 227 124 227 124 227 217 c 2,11,-1
 227 561 l 1,12,-1
 76 561 l 1,13,-1
 76 655 l 1,14,-1
 393 655 l 1,15,-1
 393 561 l 1,16,-1
 331 561 l 1,0,-1
EndSplineSet
Substitution2: "'ss01' Style Set 1 in Latin lookup 9 subtable" J.bi
Substitution2: "'calt' Contextual Alternates in Latin lookup 0 subtable" J.calt
EndChar
StartChar: K
Encoding: 75 75 46
Width: 500
GlyphClass: 2
Flags: W
LayerCount: 2
Back
Fore
SplineSet
360 655 m 1,0,-1
 473 655 l 1,1,2
 372 455 372 455 293 337 c 1,3,4
 322 292 322 292 368 208 c 2,5,-1
 480 0 l 1,6,-1
 367 0 l 1,7,8
 266 195 266 195 212 281 c 1,9,-1
 150 275 l 1,10,-1
 150 0 l 1,11,-1
 49 0 l 1,12,-1
 49 655 l 1,13,-1
 150 655 l 1,14,-1
 150 370 l 1,15,-1
 204 378 l 1,16,17
 270 480 270 480 337 610 c 2,18,-1
 360 655 l 1,0,-1
EndSplineSet
Substitution2: "'calt' Contextual Alternates in Latin lookup 0 subtable" K.calt
EndChar
StartChar: L
Encoding: 76 76 47
Width: 500
GlyphClass: 2
Flags: W
LayerCount: 2
Back
Fore
SplineSet
439 94 m 1,0,-1
 439 0 l 1,1,-1
 68 0 l 1,2,-1
 68 655 l 1,3,-1
 172 655 l 1,4,-1
 172 94 l 1,5,-1
 439 94 l 1,0,-1
EndSplineSet
EndChar
StartChar: M
Encoding: 77 77 48
Width: 500
GlyphClass: 2
Flags: W
LayerCount: 2
Back
Fore
SplineSet
21 0 m 1,0,-1
 21 655 l 1,1,-1
 120 655 l 1,2,-1
 246 313 l 1,3,-1
 254 313 l 1,4,-1
 380 655 l 1,5,-1
 479 655 l 1,6,-1
 479 0 l 1,7,-1
 385 0 l 1,8,-1
 388 443 l 1,9,-1
 384 443 l 1,10,-1
 299 222 l 1,11,-1
 201 222 l 1,12,-1
 116 443 l 1,13,-1
 112 443 l 1,14,-1
 115 0 l 1,15,-1
 21 0 l 1,0,-1
EndSplineSet
Substitution2: "'ss02' Style Set 2 in Latin lookup 10 subtable" M.tri
EndChar
StartChar: N
Encoding: 78 78 49
Width: 500
GlyphClass: 2
Flags: W
LayerCount: 2
Back
Fore
SplineSet
375 0 m 1,0,-1
 375 87 l 1,1,-1
 128 493 l 1,2,-1
 125 493 l 1,3,-1
 125 0 l 1,4,-1
 31 0 l 1,5,-1
 31 655 l 1,6,-1
 125 655 l 1,7,-1
 371 245 l 1,8,-1
 375 245 l 1,9,-1
 375 655 l 1,10,-1
 469 655 l 1,11,-1
 469 0 l 1,12,-1
 375 0 l 1,0,-1
EndSplineSet
EndChar
StartChar: O
Encoding: 79 79 50
Width: 500
GlyphClass: 2
Flags: W
LayerCount: 2
Back
Fore
SplineSet
77 74 m 128,-1,1
 25 158 25 158 25 331.5 c 128,-1,2
 25 505 25 505 78.5 585 c 128,-1,3
 132 665 132 665 252.5 665 c 128,-1,4
 373 665 373 665 424 586 c 128,-1,5
 475 507 475 507 475 329.5 c 128,-1,6
 475 152 475 152 424 71 c 128,-1,7
 373 -10 373 -10 251 -10 c 128,-1,0
 129 -10 129 -10 77 74 c 128,-1,1
344 135.5 m 128,-1,9
 369 187 369 187 369 331 c 128,-1,10
 369 475 369 475 344.5 523 c 128,-1,11
 320 571 320 571 252.5 571 c 128,-1,12
 185 571 185 571 158 519 c 128,-1,13
 131 467 131 467 131 333.5 c 128,-1,14
 131 200 131 200 155 142 c 128,-1,15
 179 84 179 84 249 84 c 128,-1,8
 319 84 319 84 344 135.5 c 128,-1,9
EndSplineSet
EndChar
StartChar: P
Encoding: 80 80 51
Width: 500
GlyphClass: 2
Flags: W
LayerCount: 2
Back
Fore
SplineSet
248 210 m 2,0,-1
 149 210 l 1,1,-1
 149 0 l 1,2,-1
 45 0 l 1,3,-1
 45 655 l 1,4,-1
 251 655 l 2,5,6
 365 655 365 655 417.5 602.5 c 128,-1,7
 470 550 470 550 470 438 c 0,8,9
 470 210 470 210 248 210 c 2,0,-1
235 563 m 2,10,-1
 149 563 l 1,11,-1
 149 305 l 1,12,-1
 235 305 l 2,13,14
 302 305 302 305 333 336.5 c 128,-1,15
 364 368 364 368 364 438 c 128,-1,16
 364 508 364 508 332.5 535.5 c 128,-1,17
 301 563 301 563 235 563 c 2,10,-1
EndSplineSet
EndChar
StartChar: Q
Encoding: 81 81 52
Width: 500
GlyphClass: 2
Flags: W
LayerCount: 2
Back
Fore
SplineSet
425 -73 m 1,0,-1
 355 11 l 1,1,2
 311 -10 311 -10 250 -10 c 0,3,4
 130 -10 130 -10 77.5 72.5 c 128,-1,5
 25 155 25 155 25 332 c 128,-1,6
 25 509 25 509 75.5 587 c 128,-1,7
 126 665 126 665 249.5 665 c 128,-1,8
 373 665 373 665 424 587 c 128,-1,9
 475 509 475 509 475 331 c 128,-1,10
 475 153 475 153 423 71 c 1,11,-1
 478 -4 l 1,12,-1
 425 -73 l 1,0,-1
154.5 146.5 m 128,-1,14
 180 81 180 81 250 81 c 0,15,16
 271 81 271 81 284 85 c 1,17,-1
 247 122 l 1,18,-1
 296 205 l 1,19,-1
 348 153 l 1,20,21
 371 210 371 210 371 336 c 0,22,23
 372 474 372 474 340 526 c 0,24,25
 328 546 328 546 304.5 560 c 128,-1,26
 281 574 281 574 250 574 c 128,-1,27
 219 574 219 574 196 560.5 c 128,-1,28
 173 547 173 547 160.5 526.5 c 128,-1,29
 148 506 148 506 140 473 c 0,30,31
 128 422 128 422 128.5 317 c 128,-1,13
 129 212 129 212 154.5 146.5 c 128,-1,14
EndSplineSet
Substitution2: "'calt' Contextual Alternates in Latin lookup 0 subtable" Q.calt
EndChar
StartChar: R
Encoding: 82 82 53
Width: 500
GlyphClass: 2
Flags: W
LayerCount: 2
Back
Fore
SplineSet
248 239 m 1,0,1
 194 236 194 236 188 236 c 2,2,-1
 141 236 l 1,3,-1
 141 0 l 1,4,-1
 37 0 l 1,5,-1
 37 655 l 1,6,-1
 243 655 l 2,7,8
 352 655 352 655 408 606.5 c 128,-1,9
 464 558 464 558 464 445 c 0,10,11
 464 315 464 315 352 262 c 1,12,13
 421 131 421 131 468 0 c 1,14,-1
 356 0 l 1,15,16
 311 121 311 121 248 239 c 1,0,1
223 563 m 2,17,-1
 141 563 l 1,18,-1
 141 332 l 1,19,-1
 224 332 l 2,20,21
 358 332 358 332 358 445 c 0,22,23
 358 508 358 508 326 535.5 c 128,-1,24
 294 563 294 563 223 563 c 2,17,-1
EndSplineSet
EndChar
StartChar: S
Encoding: 83 83 54
Width: 500
GlyphClass: 2
Flags: W
LayerCount: 2
Back
Fore
SplineSet
42 480 m 0,0,1
 42 665 42 665 264 665 c 0,2,3
 342 665 342 665 442 630 c 1,4,-1
 419 539 l 1,5,6
 317 571 317 571 258.5 571.5 c 128,-1,7
 200 572 200 572 174 552 c 128,-1,8
 148 532 148 532 148 482 c 0,9,10
 148 448 148 448 177 424.5 c 128,-1,11
 206 401 206 401 275 383 c 0,12,13
 380 355 380 355 419 311 c 128,-1,14
 458 267 458 267 458 180 c 0,15,16
 458 -9 458 -9 232 -9 c 0,17,18
 157 -9 157 -9 43 23 c 1,19,-1
 64 118 l 2,20,21
 64 117 64 117 95 109 c 0,22,23
 192 84 192 84 245.5 84 c 128,-1,24
 299 84 299 84 325.5 111 c 128,-1,25
 352 138 352 138 352 179 c 128,-1,26
 352 220 352 220 329.5 242 c 128,-1,27
 307 264 307 264 247 281 c 0,28,29
 139 311 139 311 90.5 355 c 128,-1,30
 42 399 42 399 42 480 c 0,0,1
EndSplineSet
EndChar
StartChar: T
Encoding: 84 84 55
Width: 500
GlyphClass: 2
Flags: W
LayerCount: 2
Back
Fore
SplineSet
28 561 m 1,0,-1
 28 655 l 1,1,-1
 470 655 l 1,2,-1
 470 561 l 1,3,-1
 301 561 l 1,4,-1
 301 0 l 1,5,-1
 197 0 l 1,6,-1
 197 561 l 1,7,-1
 28 561 l 1,0,-1
EndSplineSet
EndChar
StartChar: U
Encoding: 85 85 56
Width: 500
GlyphClass: 2
Flags: W
LayerCount: 2
Back
Fore
SplineSet
26 220 m 2,0,-1
 26 655 l 1,1,-1
 131 655 l 1,2,-1
 131 232 l 2,3,4
 131 155 131 155 156 120 c 0,5,6
 180 85 180 85 248 85 c 128,-1,7
 316 85 316 85 342 119 c 128,-1,8
 368 153 368 153 368 232 c 2,9,-1
 368 655 l 1,10,-1
 473 655 l 1,11,-1
 473 220 l 2,12,13
 473 103 473 103 422.5 47 c 128,-1,14
 372 -9 372 -9 246 -9 c 128,-1,15
 120 -9 120 -9 73 48 c 128,-1,16
 26 105 26 105 26 220 c 2,0,-1
EndSplineSet
EndChar
StartChar: V
Encoding: 86 86 57
Width: 500
GlyphClass: 2
Flags: W
LayerCount: 2
Back
Fore
SplineSet
13 655 m 1,0,-1
 130 655 l 1,1,-1
 253 105 l 1,2,-1
 373 655 l 1,3,-1
 489 655 l 1,4,-1
 329 0 l 1,5,-1
 175 0 l 1,6,-1
 13 655 l 1,0,-1
EndSplineSet
Substitution2: "'calt' Contextual Alternates in Latin lookup 0 subtable" V.calt
EndChar
StartChar: W
Encoding: 87 87 58
Width: 500
GlyphClass: 2
Flags: W
LayerCount: 2
Back
Fore
SplineSet
57 0 m 1,0,-1
 0 655 l 1,1,-1
 100 655 l 1,2,-1
 144 92 l 1,3,-1
 150 92 l 1,4,-1
 212 383 l 1,5,-1
 301 383 l 1,6,-1
 360 92 l 1,7,-1
 367 92 l 1,8,-1
 402 655 l 1,9,-1
 499 655 l 1,10,-1
 454 0 l 1,11,-1
 302 0 l 1,12,-1
 256 258 l 1,13,-1
 253 258 l 1,14,-1
 205 0 l 1,15,-1
 57 0 l 1,0,-1
EndSplineSet
Substitution2: "'ss02' Style Set 2 in Latin lookup 10 subtable" W.tri
Substitution2: "'titl' Titling in Latin lookup 7 subtable" W.titl
EndChar
StartChar: X
Encoding: 88 88 59
Width: 500
GlyphClass: 2
Flags: W
LayerCount: 2
Back
Fore
SplineSet
238 250 m 1,0,-1
 132 0 l 1,1,-1
 9 0 l 1,2,-1
 170 336 l 1,3,-1
 17 655 l 1,4,-1
 142 655 l 1,5,-1
 243 415 l 1,6,-1
 247 415 l 1,7,-1
 347 655 l 1,8,-1
 469 655 l 1,9,-1
 315 336 l 1,10,-1
 485 0 l 1,11,-1
 358 0 l 1,12,-1
 241 250 l 1,13,-1
 238 250 l 1,0,-1
EndSplineSet
EndChar
StartChar: Y
Encoding: 89 89 60
Width: 500
GlyphClass: 2
Flags: W
LayerCount: 2
Back
Fore
SplineSet
302 283 m 1,0,-1
 302 0 l 1,1,-1
 198 0 l 1,2,-1
 198 283 l 1,3,-1
 0 655 l 1,4,-1
 116 655 l 1,5,-1
 246 380 l 1,6,-1
 254 380 l 1,7,-1
 384 655 l 1,8,-1
 500 655 l 1,9,-1
 302 283 l 1,0,-1
EndSplineSet
EndChar
StartChar: Z
Encoding: 90 90 61
Width: 500
GlyphClass: 2
Flags: W
LayerCount: 2
Back
Fore
SplineSet
64 561 m 1,0,-1
 64 655 l 1,1,-1
 437 655 l 1,2,-1
 437 573 l 1,3,-1
 192 94 l 1,4,-1
 452 94 l 1,5,-1
 452 0 l 1,6,-1
 61 0 l 1,7,-1
 61 71 l 1,8,-1
 312 561 l 1,9,-1
 64 561 l 1,0,-1
EndSplineSet
Substitution2: "'calt' Contextual Alternates in Latin lookup 0 subtable" Z.calt
EndChar
StartChar: backslash
Encoding: 92 92 63
Width: 500
GlyphClass: 2
Flags: W
LayerCount: 2
Back
Fore
SplineSet
2 669 m 1,0,-1
 84 717 l 1,1,-1
 498 -11 l 1,2,-1
 416 -60 l 1,3,-1
 2 669 l 1,0,-1
EndSplineSet
EndChar
StartChar: bracketright
Encoding: 93 93 64
Width: 500
GlyphClass: 2
Flags: W
LayerCount: 2
Back
Fore
SplineSet
120 -156 m 1,0,-1
 120 -62 l 1,1,-1
 229 -62 l 1,2,-1
 229 699 l 1,3,-1
 120 699 l 1,4,-1
 120 793 l 1,5,-1
 334 793 l 1,6,-1
 334 -156 l 1,7,-1
 120 -156 l 1,0,-1
EndSplineSet
Substitution2: "Single Substitution lookup 21 subtable" cornersright.black
Substitution2: "Single Substitution lookup 20 subtable" cornersright.white
Substitution2: "Single Substitution lookup 19 subtable" bracketright
Substitution2: "'ss08' Style Set 8 in Latin lookup 17 subtable" bracketright
Substitution2: "'ss07' Style Set 7 in Latin lookup 15 subtable" bracketright
Substitution2: "'ss06' Style Set 6 in Latin lookup 14 subtable" cornersright.black
Substitution2: "'ss05' Style Set 5 in Latin lookup 13 subtable" cornersright.white
Substitution2: "'ss04' Style Set 4 in Latin lookup 12 subtable" bracketright
Substitution2: "'ss03' Style Set 3 in Latin lookup 11 subtable" bracketright
Substitution2: "'onum' Oldstyle Figures in Latin lookup 2 subtable" bracketright
EndChar
StartChar: underscore
Encoding: 95 95 65
Width: 500
GlyphClass: 2
Flags: W
LayerCount: 2
Back
Fore
SplineSet
0 -176 m 1,0,-1
 0 -85 l 1,1,-1
 500 -85 l 1,2,-1
 500 -176 l 1,3,-1
 0 -176 l 1,0,-1
EndSplineSet
EndChar
StartChar: b
Encoding: 98 98 67
Width: 500
GlyphClass: 2
Flags: W
LayerCount: 2
Back
Fore
SplineSet
57 0 m 1,0,-1
 57 667 l 1,1,-1
 160 667 l 1,2,-1
 160 440 l 1,3,4
 222 483 222 483 276 483 c 0,5,6
 380 483 380 483 426 422.5 c 128,-1,7
 472 362 472 362 472 234 c 128,-1,8
 472 106 472 106 415.5 47.5 c 128,-1,9
 359 -11 359 -11 266 -11 c 0,10,11
 223 -11 223 -11 159 20 c 1,12,-1
 157 0 l 1,13,-1
 57 0 l 1,0,-1
263 386 m 0,14,15
 214 386 214 386 160 341 c 1,16,-1
 160 116 l 1,17,18
 220 86 220 86 268 86 c 128,-1,19
 316 86 316 86 338.5 122.5 c 128,-1,20
 361 159 361 159 361 235 c 0,21,22
 361 386 361 386 263 386 c 0,14,15
EndSplineSet
Substitution2: "'smcp' Lowercase to Small Capitals in Latin lookup 3 subtable" b.sc
EndChar
StartChar: c
Encoding: 99 99 68
Width: 500
GlyphClass: 2
Flags: W
LayerCount: 2
Back
Fore
SplineSet
431 465 m 1,0,-1
 416 369 l 1,1,2
 350 387 350 387 288 387 c 128,-1,3
 226 387 226 387 198 352.5 c 128,-1,4
 170 318 170 318 170 242 c 128,-1,5
 170 166 170 166 194 125.5 c 128,-1,6
 218 85 218 85 285 85 c 128,-1,7
 352 85 352 85 416 103 c 1,8,-1
 431 7 l 1,9,10
 361 -13 361 -13 282 -13 c 0,11,12
 59 -13 59 -13 59 236 c 128,-1,13
 59 485 59 485 281 485 c 0,14,15
 364 485 364 485 431 465 c 1,0,-1
EndSplineSet
Substitution2: "'smcp' Lowercase to Small Capitals in Latin lookup 3 subtable" c.sc
Substitution2: "'calt' Contextual Alternates in Latin lookup 0 subtable" c.calt
EndChar
StartChar: d
Encoding: 100 100 69
Width: 500
GlyphClass: 2
Flags: W
LayerCount: 2
Back
Fore
SplineSet
456 667 m 1,0,-1
 456 83 l 1,1,-1
 466 0 l 1,2,-1
 365 -10 l 1,3,-1
 356 36 l 1,4,5
 291 -11 291 -11 229 -11 c 0,6,7
 136 -11 136 -11 89 43.5 c 128,-1,8
 42 98 42 98 42 228 c 128,-1,9
 42 358 42 358 99 420.5 c 128,-1,10
 156 483 156 483 247 483 c 0,11,12
 300 483 300 483 354 460 c 1,13,-1
 354 667 l 1,14,-1
 456 667 l 1,0,-1
236 85 m 0,15,16
 289 85 289 85 354 139 c 1,17,-1
 354 362 l 1,18,19
 302 387 302 387 252 387 c 0,20,21
 153 387 153 387 153 228 c 0,22,23
 153 85 153 85 236 85 c 0,15,16
EndSplineSet
Substitution2: "'smcp' Lowercase to Small Capitals in Latin lookup 3 subtable" d.sc
EndChar
StartChar: f
Encoding: 102 102 71
Width: 500
GlyphClass: 2
Flags: W
LayerCount: 2
Back
Fore
SplineSet
163 385 m 1,0,-1
 65 385 l 1,1,-1
 65 475 l 1,2,-1
 163 475 l 1,3,4
 163 585 163 585 199 632.5 c 128,-1,5
 235 680 235 680 322 680 c 0,6,7
 381 680 381 680 452 663 c 1,8,-1
 436 572 l 1,9,10
 374 586 374 586 332 586 c 128,-1,11
 290 586 290 586 276.5 561 c 128,-1,12
 263 536 263 536 263 475 c 1,13,-1
 434 475 l 1,14,-1
 434 385 l 1,15,-1
 263 385 l 1,16,-1
 263 90 l 1,17,-1
 436 90 l 1,18,-1
 436 0 l 1,19,-1
 61 0 l 1,20,-1
 61 90 l 1,21,-1
 163 90 l 1,22,-1
 163 385 l 1,0,-1
EndSplineSet
Substitution2: "'ss01' Style Set 1 in Latin lookup 9 subtable" f.bi
Substitution2: "'smcp' Lowercase to Small Capitals in Latin lookup 3 subtable" f.sc
Substitution2: "'calt' Contextual Alternates in Latin lookup 0 subtable" f.calt
EndChar
StartChar: h
Encoding: 104 104 73
Width: 500
GlyphClass: 2
Flags: W
LayerCount: 2
Back
Fore
SplineSet
159 350 m 1,0,-1
 159 0 l 1,1,-1
 56 0 l 1,2,-1
 56 667 l 1,3,-1
 159 667 l 1,4,-1
 159 447 l 1,5,6
 240 483 240 483 286 483 c 0,7,8
 372 483 372 483 407.5 433 c 128,-1,9
 443 383 443 383 443 287 c 2,10,-1
 443 0 l 1,11,-1
 340 0 l 1,12,-1
 340 289 l 2,13,14
 340 331 340 331 323.5 358.5 c 128,-1,15
 307 386 307 386 280 386 c 0,16,17
 231 386 231 386 159 350 c 1,0,-1
EndSplineSet
Substitution2: "'smcp' Lowercase to Small Capitals in Latin lookup 3 subtable" h.sc
EndChar
StartChar: i
Encoding: 105 105 74
Width: 500
GlyphClass: 2
Flags: W
LayerCount: 2
Back
Fore
SplineSet
103 381 m 1,0,-1
 103 473 l 1,1,-1
 317 473 l 1,2,-1
 317 92 l 1,3,-1
 428 92 l 1,4,-1
 428 0 l 1,5,-1
 95 0 l 1,6,-1
 95 92 l 1,7,-1
 214 92 l 1,8,-1
 214 381 l 1,9,-1
 103 381 l 1,0,-1
198 606 m 128,-1,11
 198 632 198 632 216 650 c 256,12,13
 234 668 234 668 260 668 c 128,-1,14
 286 668 286 668 304 650.5 c 128,-1,15
 322 633 322 633 322 606 c 128,-1,16
 322 579 322 579 304 560 c 128,-1,17
 286 541 286 541 261 541 c 128,-1,18
 236 541 236 541 217 560.5 c 128,-1,10
 198 580 198 580 198 606 c 128,-1,11
EndSplineSet
Substitution2: "'ss01' Style Set 1 in Latin lookup 9 subtable" i.bi
Substitution2: "'smcp' Lowercase to Small Capitals in Latin lookup 3 subtable" i.sc
Substitution2: "'calt' Contextual Alternates in Latin lookup 0 subtable" i.calt
EndChar
StartChar: j
Encoding: 106 106 75
Width: 500
GlyphClass: 2
Flags: W
LayerCount: 2
Back
Fore
SplineSet
352 475 m 1,0,-1
 352 -10 l 2,1,2
 352 -100 352 -100 308 -146 c 0,3,4
 274 -182 274 -182 189 -198 c 0,5,6
 115 -212 115 -212 99 -211 c 1,7,-1
 87 -115 l 1,8,9
 189 -100 189 -100 219 -83.5 c 128,-1,10
 249 -67 249 -67 249 -10 c 2,11,-1
 249 385 l 1,12,-1
 132 385 l 1,13,-1
 132 475 l 1,14,-1
 352 475 l 1,0,-1
251 570.5 m 128,-1,16
 233 590 233 590 233 615.5 c 128,-1,17
 233 641 233 641 251 659.5 c 128,-1,18
 269 678 269 678 296 678 c 128,-1,19
 323 678 323 678 340 660 c 128,-1,20
 357 642 357 642 357 615.5 c 128,-1,21
 357 589 357 589 340 570 c 128,-1,22
 323 551 323 551 296 551 c 128,-1,15
 269 551 269 551 251 570.5 c 128,-1,16
EndSplineSet
Substitution2: "'ss01' Style Set 1 in Latin lookup 9 subtable" j.bi
Substitution2: "'smcp' Lowercase to Small Capitals in Latin lookup 3 subtable" j.sc
Substitution2: "'calt' Contextual Alternates in Latin lookup 0 subtable" j.calt
EndChar
StartChar: k
Encoding: 107 107 76
Width: 500
GlyphClass: 2
Flags: W
LayerCount: 2
Back
Fore
SplineSet
365 475 m 2,0,-1
 476 475 l 1,1,2
 364 293 364 293 330 253 c 1,3,4
 349 226 349 226 377 181 c 2,5,-1
 485 0 l 1,6,-1
 366 0 l 1,7,-1
 319 84 l 2,8,9
 272 168 272 168 250 203 c 1,10,-1
 180 195 l 1,11,-1
 180 0 l 1,12,-1
 77 0 l 1,13,-1
 77 667 l 1,14,-1
 180 667 l 1,15,-1
 180 284 l 1,16,-1
 248 291 l 1,17,18
 274 325 274 325 319 399.5 c 128,-1,19
 364 474 364 474 365 475 c 2,0,-1
EndSplineSet
Substitution2: "'smcp' Lowercase to Small Capitals in Latin lookup 3 subtable" k.sc
Substitution2: "'calt' Contextual Alternates in Latin lookup 0 subtable" k.calt
EndChar
StartChar: l
Encoding: 108 108 77
Width: 500
GlyphClass: 2
Flags: W
LayerCount: 2
Back
Fore
SplineSet
99 575 m 1,0,-1
 98 666 l 1,1,-1
 311 667 l 1,2,-1
 311 90 l 1,3,-1
 423 90 l 1,4,-1
 423 0 l 1,5,-1
 95 0 l 1,6,-1
 95 90 l 1,7,-1
 208 90 l 1,8,-1
 208 576 l 1,9,-1
 99 575 l 1,0,-1
EndSplineSet
Substitution2: "'ss01' Style Set 1 in Latin lookup 9 subtable" l.bi
Substitution2: "'smcp' Lowercase to Small Capitals in Latin lookup 3 subtable" l.sc
Substitution2: "'calt' Contextual Alternates in Latin lookup 0 subtable" l.calt
EndChar
StartChar: m
Encoding: 109 109 78
Width: 500
GlyphClass: 2
Flags: W
LayerCount: 2
Back
Fore
SplineSet
121 475 m 1,0,-1
 124 448 l 1,1,2
 162 483 162 483 198 483 c 0,3,4
 249 483 249 483 275 445 c 1,5,6
 327 483 327 483 367 483 c 0,7,8
 427 483 427 483 452.5 448 c 128,-1,9
 478 413 478 413 478 318 c 2,10,-1
 478 0 l 1,11,-1
 376 0 l 1,12,-1
 376 274 l 2,13,14
 376 366 376 366 360 380 c 0,15,16
 352 388 352 388 337 388 c 128,-1,17
 322 388 322 388 299 368 c 1,18,19
 304 345 304 345 304 274 c 2,20,-1
 304 163 l 1,21,-1
 203 163 l 1,22,-1
 203 274 l 2,23,24
 203 365 203 365 192 380 c 0,25,26
 186 388 186 388 171.5 388 c 128,-1,27
 157 388 157 388 128 366 c 1,28,-1
 128 0 l 1,29,-1
 23 0 l 1,30,-1
 23 475 l 1,31,-1
 121 475 l 1,0,-1
EndSplineSet
Substitution2: "'ss02' Style Set 2 in Latin lookup 10 subtable" m.tri
Substitution2: "'smcp' Lowercase to Small Capitals in Latin lookup 3 subtable" m.sc
EndChar
StartChar: p
Encoding: 112 112 81
Width: 500
GlyphClass: 2
Flags: W
LayerCount: 2
Back
Fore
SplineSet
57 -192 m 1,0,-1
 57 389 l 1,1,-1
 51 475 l 1,2,-1
 151 482 l 1,3,-1
 157 438 l 1,4,5
 224 483 224 483 276 483 c 0,6,7
 377 483 377 483 424.5 423.5 c 128,-1,8
 472 364 472 364 472 238 c 128,-1,9
 472 112 472 112 414 50.5 c 128,-1,10
 356 -11 356 -11 249 -11 c 0,11,12
 213 -11 213 -11 160 10 c 1,13,-1
 160 -192 l 1,14,-1
 57 -192 l 1,0,-1
272 387 m 0,15,16
 226 387 226 387 160 343 c 1,17,-1
 160 105 l 1,18,19
 208 84 208 84 247 84 c 0,20,21
 361 84 361 84 361 236 c 128,-1,22
 361 388 361 388 272 387 c 0,15,16
EndSplineSet
Substitution2: "'smcp' Lowercase to Small Capitals in Latin lookup 3 subtable" p.sc
EndChar
StartChar: q
Encoding: 113 113 82
Width: 500
GlyphClass: 2
Flags: W
LayerCount: 2
Back
Fore
SplineSet
457 481 m 1,0,-1
 457 -190 l 1,1,-1
 354 -190 l 1,2,-1
 354 29 l 1,3,4
 330 12 330 12 294 1 c 128,-1,5
 258 -10 258 -10 234 -10 c 0,6,7
 135 -10 135 -10 88.5 48.5 c 128,-1,8
 42 107 42 107 42 230.5 c 128,-1,9
 42 354 42 354 95.5 418.5 c 128,-1,10
 149 483 149 483 243 483 c 0,11,12
 308 483 308 483 357 454 c 1,13,-1
 361 481 l 1,14,-1
 457 481 l 1,0,-1
174.5 119 m 128,-1,16
 196 84 196 84 247 84 c 128,-1,17
 298 84 298 84 354 131 c 1,18,-1
 354 360 l 1,19,20
 308 387 308 387 245 387 c 0,21,22
 153 387 153 387 153 228 c 0,23,15
 153 154 153 154 174.5 119 c 128,-1,16
EndSplineSet
Substitution2: "'smcp' Lowercase to Small Capitals in Latin lookup 3 subtable" q.sc
EndChar
StartChar: r
Encoding: 114 114 83
Width: 500
GlyphClass: 2
Flags: W
LayerCount: 2
Back
Fore
SplineSet
81 383 m 1,0,-1
 81 475 l 1,1,-1
 261 475 l 1,2,-1
 263 427 l 1,3,4
 295 445 295 445 346.5 461.5 c 128,-1,5
 398 478 398 478 442 483 c 1,6,-1
 442 383 l 1,7,8
 403 379 403 379 349 362 c 128,-1,9
 295 345 295 345 263 327 c 1,10,-1
 263 90 l 1,11,-1
 409 90 l 1,12,-1
 409 0 l 1,13,-1
 81 0 l 1,14,-1
 81 92 l 1,15,-1
 158 92 l 1,16,-1
 158 383 l 1,17,-1
 81 383 l 1,0,-1
EndSplineSet
Substitution2: "'ss01' Style Set 1 in Latin lookup 9 subtable" r.bi
Substitution2: "'smcp' Lowercase to Small Capitals in Latin lookup 3 subtable" r.sc
Substitution2: "'calt' Contextual Alternates in Latin lookup 0 subtable" r.calt
EndChar
StartChar: s
Encoding: 115 115 84
Width: 500
GlyphClass: 2
Flags: W
LayerCount: 2
Back
Fore
SplineSet
63 22 m 1,0,-1
 85 113 l 1,1,2
 180 83 180 83 236 83 c 128,-1,3
 292 83 292 83 312 94 c 0,4,5
 332 104 332 104 332 130 c 128,-1,6
 332 156 332 156 314 167 c 128,-1,7
 296 178 296 178 246 190 c 0,8,9
 147 214 147 214 108 243.5 c 128,-1,10
 69 273 69 273 69 340 c 0,11,12
 69 483 69 483 253 483 c 0,13,14
 332 483 332 483 436 457 c 1,15,-1
 417 362 l 1,16,17
 318 390 318 390 264 390 c 128,-1,18
 210 390 210 390 191.5 380.5 c 128,-1,19
 173 371 173 371 173 348 c 128,-1,20
 173 325 173 325 191.5 314.5 c 128,-1,21
 210 304 210 304 287 283 c 128,-1,22
 364 262 364 262 400 234.5 c 128,-1,23
 436 207 436 207 436 141 c 0,24,25
 436 -10 436 -10 250 -10 c 0,26,27
 163 -10 163 -10 63 22 c 1,0,-1
EndSplineSet
Substitution2: "'smcp' Lowercase to Small Capitals in Latin lookup 3 subtable" s.sc
EndChar
StartChar: t
Encoding: 116 116 85
Width: 500
GlyphClass: 2
Flags: W
LayerCount: 2
Back
Fore
SplineSet
140 383 m 1,0,-1
 64 383 l 1,1,-1
 64 475 l 1,2,-1
 140 475 l 1,3,-1
 140 589 l 1,4,-1
 243 599 l 1,5,-1
 243 475 l 1,6,-1
 421 475 l 1,7,-1
 421 383 l 1,8,-1
 243 383 l 1,9,-1
 243 182 l 2,10,11
 243 127 243 127 254 105 c 0,12,13
 266 83 266 83 306 83 c 128,-1,14
 346 83 346 83 412 99 c 1,15,-1
 429 9 l 1,16,17
 353 -11 353 -11 299 -11 c 0,18,19
 203 -11 203 -11 171.5 32 c 128,-1,20
 140 75 140 75 140 182 c 2,21,-1
 140 383 l 1,0,-1
EndSplineSet
Substitution2: "'ss01' Style Set 1 in Latin lookup 9 subtable" t.bi
Substitution2: "'smcp' Lowercase to Small Capitals in Latin lookup 3 subtable" t.sc
Substitution2: "'calt' Contextual Alternates in Latin lookup 0 subtable" t.calt
EndChar
StartChar: u
Encoding: 117 117 86
Width: 500
GlyphClass: 2
Flags: W
LayerCount: 2
Back
Fore
SplineSet
340 0 m 1,0,-1
 338 35 l 1,1,2
 258 -10 258 -10 208 -10 c 0,3,4
 127 -10 127 -10 90 36.5 c 128,-1,5
 53 83 53 83 53 185 c 2,6,-1
 53 475 l 1,7,-1
 156 475 l 1,8,-1
 156 191 l 2,9,10
 156 88 156 88 223 88 c 0,11,12
 276 88 276 88 337 129 c 1,13,-1
 337 475 l 1,14,-1
 440 475 l 1,15,-1
 440 0 l 1,16,-1
 340 0 l 1,0,-1
EndSplineSet
Substitution2: "'smcp' Lowercase to Small Capitals in Latin lookup 3 subtable" u.sc
EndChar
StartChar: v
Encoding: 118 118 87
Width: 500
GlyphClass: 2
Flags: W
LayerCount: 2
Back
Fore
SplineSet
33 475 m 1,0,-1
 143 475 l 1,1,-1
 244 91 l 1,2,-1
 262 91 l 1,3,-1
 359 475 l 1,4,-1
 468 475 l 1,5,-1
 341 0 l 1,6,-1
 163 0 l 1,7,-1
 33 475 l 1,0,-1
EndSplineSet
Substitution2: "'titl' Titling in Latin lookup 7 subtable" v.titl
Substitution2: "'smcp' Lowercase to Small Capitals in Latin lookup 3 subtable" v.sc
Substitution2: "'calt' Contextual Alternates in Latin lookup 0 subtable" v.calt
EndChar
StartChar: x
Encoding: 120 120 89
Width: 500
GlyphClass: 2
Flags: W
LayerCount: 2
Back
Fore
SplineSet
30 476 m 1,0,-1
 159 476 l 1,1,-1
 250 316 l 1,2,-1
 340 476 l 1,3,-1
 466 476 l 1,4,-1
 321 241 l 1,5,-1
 476 -1 l 1,6,-1
 348 -1 l 1,7,-1
 250 164 l 1,8,-1
 153 -1 l 1,9,-1
 25 -1 l 1,10,-1
 182 241 l 1,11,-1
 30 476 l 1,0,-1
EndSplineSet
Substitution2: "'smcp' Lowercase to Small Capitals in Latin lookup 3 subtable" x.sc
EndChar
StartChar: y
Encoding: 121 121 90
Width: 500
GlyphClass: 2
Flags: W
LayerCount: 2
Back
Fore
SplineSet
29 475 m 1,0,-1
 141 475 l 1,1,-1
 256 89 l 1,2,-1
 264 89 l 1,3,-1
 361 475 l 1,4,-1
 470 475 l 1,5,-1
 338 12 l 2,6,7
 317 -62 317 -62 299 -101.5 c 128,-1,8
 281 -141 281 -141 249 -166 c 128,-1,9
 217 -191 217 -191 178 -198 c 128,-1,10
 139 -205 139 -205 68 -206 c 1,11,-1
 68 -113 l 1,12,13
 129 -113 129 -113 158 -100 c 128,-1,14
 187 -87 187 -87 198 -59 c 2,15,-1
 204 -44 l 1,16,-1
 29 475 l 1,0,-1
EndSplineSet
Substitution2: "'smcp' Lowercase to Small Capitals in Latin lookup 3 subtable" y.sc
Substitution2: "'calt' Contextual Alternates in Latin lookup 0 subtable" y.calt
EndChar
StartChar: z
Encoding: 122 122 91
Width: 500
GlyphClass: 2
Flags: W
LayerCount: 2
Back
Fore
SplineSet
81 383 m 1,0,-1
 81 475 l 1,1,-1
 420 475 l 1,2,-1
 426 392 l 1,3,-1
 213 92 l 1,4,-1
 427 92 l 1,5,-1
 427 0 l 1,6,-1
 77 0 l 1,7,-1
 69 72 l 1,8,-1
 287 383 l 1,9,-1
 81 383 l 1,0,-1
EndSplineSet
Substitution2: "'smcp' Lowercase to Small Capitals in Latin lookup 3 subtable" z.sc
EndChar
StartChar: braceleft
Encoding: 123 123 92
Width: 500
GlyphClass: 2
Flags: W
LayerCount: 2
Back
Fore
SplineSet
104 285 m 1,0,-1
 104 368 l 1,1,-1
 194 407 l 1,2,3
 194 491 194 491 189 577.5 c 128,-1,4
 184 664 184 664 184 694 c 0,5,6
 184 793 184 793 282 793 c 2,7,-1
 390 793 l 1,8,-1
 390 713 l 1,9,-1
 323 713 l 2,10,11
 294 713 294 713 283.5 703.5 c 128,-1,12
 273 694 273 694 273 664 c 128,-1,13
 273 634 273 634 278 540.5 c 128,-1,14
 283 447 283 447 283 364 c 1,15,-1
 197 330 l 1,16,-1
 197 322 l 1,17,-1
 283 289 l 1,18,19
 283 215 283 215 278 113 c 128,-1,20
 273 11 273 11 273 -23 c 128,-1,21
 273 -57 273 -57 284 -66.5 c 128,-1,22
 295 -76 295 -76 323 -76 c 2,23,-1
 390 -76 l 1,24,-1
 390 -156 l 1,25,-1
 282 -156 l 2,26,27
 184 -156 184 -156 184 -57 c 0,28,29
 184 -17 184 -17 189 75.5 c 128,-1,30
 194 168 194 168 194 242 c 1,31,-1
 104 285 l 1,0,-1
EndSplineSet
EndChar
StartChar: bar
Encoding: 124 124 93
Width: 500
GlyphClass: 2
Flags: W
LayerCount: 2
Back
Fore
SplineSet
302 743 m 1,0,-1
 302 -244 l 1,1,-1
 199 -244 l 1,2,-1
 199 743 l 1,3,-1
 302 743 l 1,0,-1
EndSplineSet
Substitution2: "Single Substitution lookup 21 subtable" bar.black
Substitution2: "Single Substitution lookup 20 subtable" bar.white
Substitution2: "Single Substitution lookup 19 subtable" bar
Substitution2: "'ss08' Style Set 8 in Latin lookup 17 subtable" bar
Substitution2: "'ss07' Style Set 7 in Latin lookup 15 subtable" bar
Substitution2: "'ss06' Style Set 6 in Latin lookup 14 subtable" bar.black
Substitution2: "'ss05' Style Set 5 in Latin lookup 13 subtable" bar.white
Substitution2: "'ss04' Style Set 4 in Latin lookup 12 subtable" bar
Substitution2: "'ss03' Style Set 3 in Latin lookup 11 subtable" bar
Substitution2: "'onum' Oldstyle Figures in Latin lookup 2 subtable" bar
EndChar
StartChar: braceright
Encoding: 125 125 94
Width: 500
GlyphClass: 2
Flags: W
LayerCount: 2
Back
Fore
SplineSet
104 -156 m 1,0,-1
 104 -76 l 1,1,-1
 171 -76 l 2,2,3
 199 -76 199 -76 210 -66.5 c 128,-1,4
 221 -57 221 -57 221 -23 c 128,-1,5
 221 11 221 11 216 113 c 128,-1,6
 211 215 211 215 211 289 c 1,7,-1
 297 322 l 1,8,-1
 297 330 l 1,9,-1
 211 364 l 1,10,11
 211 447 211 447 216 541 c 0,12,13
 221 634 221 634 221 664 c 128,-1,14
 221 694 221 694 210.5 703.5 c 128,-1,15
 200 713 200 713 171 713 c 2,16,-1
 104 713 l 1,17,-1
 104 793 l 1,18,-1
 212 793 l 2,19,20
 310 793 310 793 310 694 c 0,21,22
 310 664 310 664 305 577.5 c 128,-1,23
 300 491 300 491 300 407 c 1,24,-1
 390 368 l 1,25,-1
 390 285 l 1,26,-1
 300 242 l 1,27,28
 300 168 300 168 305 75.5 c 128,-1,29
 310 -17 310 -17 310 -57 c 0,30,31
 310 -156 310 -156 212 -156 c 2,32,-1
 104 -156 l 1,0,-1
EndSplineSet
EndChar
StartChar: asciitilde
Encoding: 126 126 95
Width: 500
GlyphClass: 2
Flags: W
LayerCount: 2
Back
Fore
SplineSet
403 332 m 1,0,-1
 469 282 l 1,1,2
 402 193 402 193 337 193 c 0,3,4
 298 194 298 194 242.5 227 c 128,-1,5
 187 260 187 260 174 260 c 0,6,7
 137 260 137 260 94 207 c 1,8,-1
 35 259 l 1,9,10
 105 349 105 349 173 349 c 0,11,12
 213 349 213 349 264 317 c 0,13,14
 316 285 316 285 334 285 c 128,-1,15
 352 285 352 285 367 296 c 128,-1,16
 382 307 382 307 403 332 c 1,0,-1
EndSplineSet
EndChar
StartChar: exclamdown
Encoding: 161 161 96
Width: 500
GlyphClass: 2
Flags: W
LayerCount: 2
Back
Fore
SplineSet
318 502 m 1,0,-1
 318 365 l 1,1,-1
 184 365 l 1,2,-1
 184 502 l 1,3,-1
 318 502 l 1,0,-1
300 308 m 1,4,-1
 311 -159 l 1,5,-1
 192 -159 l 1,6,-1
 204 308 l 1,7,-1
 300 308 l 1,4,-1
EndSplineSet
EndChar
StartChar: cent
Encoding: 162 162 97
Width: 500
GlyphClass: 2
Flags: W
LayerCount: 2
Back
Fore
SplineSet
59 237 m 0,0,1
 59 347 59 347 100 405.5 c 128,-1,2
 141 464 141 464 226 477 c 1,3,-1
 226 549 l 1,4,-1
 328 549 l 1,5,-1
 328 478 l 1,6,7
 380 474 380 474 416 465 c 2,8,-1
 428 462 l 1,9,-1
 405 369 l 1,10,11
 341 388 341 388 278.5 388 c 128,-1,12
 216 388 216 388 190 354.5 c 128,-1,13
 164 321 164 321 164 240 c 128,-1,14
 164 159 164 159 192 121 c 128,-1,15
 220 83 220 83 282 83 c 128,-1,16
 344 83 344 83 416 101 c 1,17,-1
 431 12 l 1,18,19
 385 -2 385 -2 328 -7 c 1,20,-1
 328 -72 l 1,21,-1
 226 -72 l 1,22,-1
 226 -6 l 1,23,24
 59 20 59 20 59 237 c 0,0,1
EndSplineSet
Substitution2: "'calt' Contextual Alternates in Latin lookup 0 subtable" cent.calt
EndChar
StartChar: sterling
Encoding: 163 163 98
Width: 500
GlyphClass: 2
Flags: W
LayerCount: 2
Back
Fore
SplineSet
46 293 m 1,0,-1
 46 383 l 1,1,-1
 100 383 l 1,2,3
 77 434 77 434 77 472 c 0,4,5
 77 561 77 561 129 613.5 c 128,-1,6
 181 666 181 666 283 666 c 0,7,8
 344 666 344 666 417 647 c 1,9,-1
 401 559 l 1,10,11
 342 575 342 575 282 575 c 0,12,13
 176 575 176 575 176 472 c 0,14,15
 176 414 176 414 194 383 c 1,16,-1
 389 383 l 1,17,-1
 389 293 l 1,18,-1
 229 293 l 1,19,20
 247 258 247 258 247 222.5 c 128,-1,21
 247 187 247 187 225 157 c 128,-1,22
 203 127 203 127 181 111 c 2,23,-1
 159 95 l 1,24,-1
 162 91 l 1,25,26
 207 106 207 106 225 106 c 128,-1,27
 243 106 243 106 282 92 c 128,-1,28
 321 78 321 78 345 78 c 0,29,30
 390 78 390 78 422 99 c 2,31,-1
 432 106 l 1,32,-1
 465 25 l 1,33,34
 418 -11 418 -11 345 -11 c 0,35,36
 318 -11 318 -11 275 2 c 128,-1,37
 232 15 232 15 199 15 c 0,38,39
 142 16 142 16 88 -4 c 2,40,-1
 70 -11 l 1,41,-1
 39 78 l 1,42,-1
 68 98 l 2,43,44
 86 110 86 110 115 146 c 128,-1,45
 144 182 144 182 144 212 c 0,46,47
 144 266 144 266 128 293 c 1,48,-1
 46 293 l 1,0,-1
EndSplineSet
EndChar
StartChar: currency
Encoding: 164 164 99
Width: 500
GlyphClass: 2
Flags: W
LayerCount: 2
Back
Fore
SplineSet
154 538 m 1,0,1
 242 586 242 586 342 538 c 1,2,-1
 412 616 l 1,3,-1
 481 561 l 1,4,-1
 411 480 l 1,5,6
 453 430 453 430 453.5 358 c 128,-1,7
 454 286 454 286 413 236 c 1,8,-1
 485 152 l 1,9,-1
 415 96 l 1,10,-1
 344 176 l 1,11,12
 286 149 286 149 247 149.5 c 128,-1,13
 208 150 208 150 154 176 c 1,14,-1
 82 95 l 1,15,-1
 10 152 l 1,16,-1
 82 236 l 1,17,18
 41 287 41 287 41 359 c 128,-1,19
 41 431 41 431 83 480 c 1,20,-1
 14 561 l 1,21,-1
 83 616 l 1,22,-1
 154 538 l 1,0,1
130 356 m 128,-1,24
 130 304 130 304 163.5 273 c 128,-1,25
 197 242 197 242 243.5 241 c 128,-1,26
 290 240 290 240 331 275 c 1,27,28
 363 308 363 308 362.5 359 c 128,-1,29
 362 410 362 410 328.5 442 c 128,-1,30
 295 474 295 474 247 475 c 128,-1,31
 199 476 199 476 164.5 442 c 128,-1,23
 130 408 130 408 130 356 c 128,-1,24
EndSplineSet
EndChar
StartChar: yen
Encoding: 165 165 100
Width: 500
GlyphClass: 2
Flags: W
LayerCount: 2
Back
Fore
SplineSet
50 381 m 1,0,-1
 164 381 l 1,1,-1
 -1 655 l 1,2,-1
 118 655 l 1,3,-1
 251 415 l 1,4,-1
 386 655 l 1,5,-1
 499 655 l 1,6,-1
 335 381 l 1,7,-1
 449 381 l 1,8,-1
 449 291 l 1,9,-1
 301 291 l 1,10,-1
 301 238 l 1,11,-1
 449 238 l 1,12,-1
 449 148 l 1,13,-1
 301 148 l 1,14,-1
 301 0 l 1,15,-1
 199 0 l 1,16,-1
 199 148 l 1,17,-1
 50 148 l 1,18,-1
 50 238 l 1,19,-1
 199 238 l 1,20,-1
 199 291 l 1,21,-1
 50 291 l 1,22,-1
 50 381 l 1,0,-1
EndSplineSet
EndChar
StartChar: brokenbar
Encoding: 166 166 101
Width: 500
GlyphClass: 2
Flags: W
LayerCount: 2
Back
Fore
SplineSet
301 196 m 1,0,-1
 301 -244 l 1,1,-1
 198 -244 l 1,2,-1
 198 196 l 1,3,-1
 301 196 l 1,0,-1
301 743 m 1,4,-1
 301 303 l 1,5,-1
 198 303 l 1,6,-1
 198 743 l 1,7,-1
 301 743 l 1,4,-1
EndSplineSet
EndChar
StartChar: section
Encoding: 167 167 102
Width: 500
GlyphClass: 2
Flags: W
LayerCount: 2
Back
Fore
SplineSet
69 336 m 0,0,1
 69 376 69 376 107 416 c 1,2,3
 63 452 63 452 63 527 c 0,4,5
 63 671 63 671 259 671 c 0,6,7
 323 671 323 671 410 642 c 1,8,-1
 388 556 l 1,9,10
 314 582 314 582 259.5 582.5 c 128,-1,11
 205 583 205 583 185.5 571 c 128,-1,12
 166 559 166 559 166 532 c 128,-1,13
 166 505 166 505 183.5 489 c 128,-1,14
 201 473 201 473 257 457 c 0,15,16
 357 429 357 429 391.5 399 c 128,-1,17
 426 369 426 369 426 315 c 128,-1,18
 426 261 426 261 397 230 c 1,19,20
 432 202 432 202 432 135.5 c 128,-1,21
 432 69 432 69 382 29.5 c 128,-1,22
 332 -10 332 -10 245.5 -10 c 128,-1,23
 159 -10 159 -10 72 16 c 1,24,-1
 93 110 l 1,25,26
 194 83 194 83 236.5 83 c 128,-1,27
 279 83 279 83 297.5 93 c 128,-1,28
 316 103 316 103 320.5 114 c 128,-1,29
 325 125 325 125 325 141 c 0,30,31
 325 161 325 161 269 175 c 0,32,33
 253 179 253 179 244 182 c 0,34,35
 139 212 139 212 104 243.5 c 128,-1,36
 69 275 69 275 69 336 c 0,0,1
184 380 m 1,37,38
 167 363 167 363 167 341 c 128,-1,39
 167 319 167 319 186 306 c 128,-1,40
 205 293 205 293 268 275 c 2,41,-1
 315 262 l 1,42,43
 328 279 328 279 328 311 c 0,44,45
 328 341 328 341 238 364 c 0,46,47
 201 373 201 373 184 380 c 1,37,38
EndSplineSet
EndChar
StartChar: copyright
Encoding: 169 169 103
Width: 500
GlyphClass: 2
Flags: W
LayerCount: 2
Back
Fore
SplineSet
70 66.5 m 128,-1,1
 10 139 10 139 10 271.5 c 128,-1,2
 10 404 10 404 72 476.5 c 128,-1,3
 134 549 134 549 251 549 c 0,4,5
 490 549 490 549 490 270 c 0,6,7
 490 133 490 133 426 63.5 c 128,-1,8
 362 -6 362 -6 246 -6 c 128,-1,0
 130 -6 130 -6 70 66.5 c 128,-1,1
71 270 m 0,9,10
 71 156 71 156 117 105 c 128,-1,11
 163 54 163 54 251 54 c 128,-1,12
 339 54 339 54 383 103 c 128,-1,13
 427 152 427 152 427 270.5 c 128,-1,14
 427 389 427 389 385 439 c 128,-1,15
 343 489 343 489 252 489 c 0,16,17
 71 489 71 489 71 270 c 0,9,10
161.5 158.5 m 128,-1,19
 131 190 131 190 131 271.5 c 128,-1,20
 131 353 131 353 158.5 388 c 128,-1,21
 186 423 186 423 253 423 c 0,22,23
 295 423 295 423 343 407 c 1,24,-1
 327 344 l 1,25,26
 291 356 291 356 259.5 356 c 128,-1,27
 228 356 228 356 216.5 338.5 c 128,-1,28
 205 321 205 321 205 273.5 c 128,-1,29
 205 226 205 226 217 210 c 128,-1,30
 229 194 229 194 262 194 c 0,31,32
 282 194 282 194 316 203 c 2,33,-1
 327 206 l 1,34,-1
 343 143 l 1,35,36
 302 127 302 127 261 127 c 0,37,18
 192 127 192 127 161.5 158.5 c 128,-1,19
EndSplineSet
EndChar
StartChar: ordfeminine
Encoding: 170 170 104
Width: 500
GlyphClass: 2
Flags: W
LayerCount: 2
Back
Fore
SplineSet
120 456 m 0,0,1
 120 507 120 507 150.5 528.5 c 128,-1,2
 181 550 181 550 241 550 c 0,3,4
 269 550 269 550 290 547 c 1,5,6
 289 573 289 573 281 583 c 0,7,8
 274 593 274 593 252 593 c 128,-1,9
 230 593 230 593 194 586 c 128,-1,10
 158 579 158 579 139 572 c 1,11,-1
 125 642 l 1,12,13
 198 664 198 664 258 664 c 128,-1,14
 318 664 318 664 343 637 c 128,-1,15
 368 610 368 610 368 542 c 2,16,-1
 368 424 l 1,17,-1
 375 365 l 1,18,-1
 298 357 l 1,19,-1
 293 379 l 1,20,21
 257 358 257 358 221 358 c 0,22,23
 120 358 120 358 120 456 c 0,0,1
200 456 m 128,-1,25
 200 429 200 429 230 429 c 128,-1,26
 260 429 260 429 290 453 c 1,27,-1
 290 481 l 1,28,29
 262 483 262 483 241 483 c 0,30,24
 200 483 200 483 200 456 c 128,-1,25
EndSplineSet
EndChar
StartChar: guillemotleft
Encoding: 171 171 105
Width: 500
GlyphClass: 2
Flags: W
LayerCount: 2
Back
Fore
SplineSet
30 267 m 1,0,-1
 260 431 l 1,1,-1
 260 317 l 1,2,-1
 114 227 l 1,3,-1
 260 135 l 1,4,-1
 260 21 l 1,5,-1
 30 187 l 1,6,-1
 30 267 l 1,0,-1
242 267 m 1,7,-1
 472 431 l 1,8,-1
 472 317 l 1,9,-1
 326 227 l 1,10,-1
 472 135 l 1,11,-1
 472 21 l 1,12,-1
 242 187 l 1,13,-1
 242 267 l 1,7,-1
EndSplineSet
Substitution2: "'calt' Contextual Alternates in Latin lookup 0 subtable" guillemotleft.calt
EndChar
StartChar: logicalnot
Encoding: 172 172 106
Width: 500
GlyphClass: 2
Flags: W
LayerCount: 2
Back
Fore
SplineSet
36 477 m 1,0,-1
 468 477 l 1,1,-1
 468 231 l 1,2,-1
 364 231 l 1,3,-1
 364 373 l 1,4,-1
 36 373 l 1,5,-1
 36 477 l 1,0,-1
EndSplineSet
EndChar
StartChar: registered
Encoding: 174 174 107
Width: 500
GlyphClass: 2
Flags: W
LayerCount: 2
Back
Fore
SplineSet
67.5 259.5 m 128,-1,1
 0 327 0 327 0 441.5 c 128,-1,2
 0 556 0 556 67.5 622.5 c 128,-1,3
 135 689 135 689 251 689 c 128,-1,4
 367 689 367 689 433.5 625 c 128,-1,5
 500 561 500 561 500 442.5 c 128,-1,6
 500 324 500 324 433 258 c 128,-1,7
 366 192 366 192 250.5 192 c 128,-1,0
 135 192 135 192 67.5 259.5 c 128,-1,1
60 441 m 128,-1,9
 60 249 60 249 249.5 249 c 128,-1,10
 439 249 439 249 439 441 c 128,-1,11
 439 633 439 633 249.5 633 c 128,-1,8
 60 633 60 633 60 441 c 128,-1,9
156 311 m 1,12,-1
 156 583 l 1,13,-1
 233 583 l 2,14,15
 294 583 294 583 325.5 562.5 c 128,-1,16
 357 542 357 542 357 487 c 128,-1,17
 357 432 357 432 311 412 c 1,18,19
 330 383 330 383 352 327 c 2,20,-1
 358 311 l 1,21,-1
 292 311 l 1,22,23
 273 361 273 361 249 401 c 1,24,-1
 217 401 l 1,25,-1
 217 311 l 1,26,-1
 156 311 l 1,12,-1
279.5 460 m 128,-1,28
 293 467 293 467 293 491.5 c 128,-1,29
 293 516 293 516 280 521 c 128,-1,30
 267 526 267 526 230 526 c 2,31,-1
 217 526 l 1,32,-1
 217 453 l 1,33,-1
 227 453 l 2,34,27
 266 453 266 453 279.5 460 c 128,-1,28
EndSplineSet
EndChar
StartChar: degree
Encoding: 176 176 108
Width: 500
GlyphClass: 2
Flags: W
LayerCount: 2
Back
Fore
SplineSet
108 557 m 128,-1,1
 108 616 108 616 149 654.5 c 128,-1,2
 190 693 190 693 251 693 c 128,-1,3
 312 693 312 693 351.5 654.5 c 128,-1,4
 391 616 391 616 391 556.5 c 128,-1,5
 391 497 391 497 351 458.5 c 128,-1,6
 311 420 311 420 249.5 420 c 128,-1,7
 188 420 188 420 148 459 c 128,-1,0
 108 498 108 498 108 557 c 128,-1,1
296 508.5 m 128,-1,9
 315 527 315 527 315 557.5 c 128,-1,10
 315 588 315 588 297.5 606 c 128,-1,11
 280 624 280 624 249.5 624 c 128,-1,12
 219 624 219 624 201.5 606 c 128,-1,13
 184 588 184 588 184 557.5 c 128,-1,14
 184 527 184 527 201.5 508.5 c 128,-1,15
 219 490 219 490 248 490 c 128,-1,8
 277 490 277 490 296 508.5 c 128,-1,9
EndSplineSet
EndChar
StartChar: plusminus
Encoding: 177 177 109
Width: 500
GlyphClass: 2
Flags: W
LayerCount: 2
Back
Fore
SplineSet
460 273 m 1,0,-1
 300 273 l 1,1,-1
 300 146 l 1,2,-1
 200 146 l 1,3,-1
 200 273 l 1,4,-1
 40 273 l 1,5,-1
 40 366 l 1,6,-1
 200 366 l 1,7,-1
 200 502 l 1,8,-1
 300 502 l 1,9,-1
 300 366 l 1,10,-1
 460 366 l 1,11,-1
 460 273 l 1,0,-1
460 19 m 1,12,-1
 40 19 l 1,13,-1
 40 111 l 1,14,-1
 460 111 l 1,15,-1
 460 19 l 1,12,-1
EndSplineSet
Substitution2: "'calt' Contextual Alternates in Latin lookup 0 subtable" plusminus.calt
EndChar
StartChar: mu
Encoding: 181 181 110
AltUni2: 0003bc.ffffffff.0
Width: 500
GlyphClass: 2
Flags: W
LayerCount: 2
Back
Fore
SplineSet
56 -49 m 2,0,-1
 56 475 l 1,1,-1
 159 475 l 1,2,-1
 159 184 l 2,3,4
 159 89 159 89 218 89 c 0,5,6
 288 89 288 89 341 128 c 1,7,-1
 341 475 l 1,8,-1
 444 475 l 1,9,-1
 444 0 l 1,10,-1
 344 0 l 1,11,-1
 342 29 l 1,12,13
 262 -10 262 -10 225 -10 c 128,-1,14
 188 -10 188 -10 166 0 c 128,-1,15
 144 10 144 10 137 21 c 1,16,-1
 146 -33 l 1,17,-1
 146 -54 l 2,18,19
 146 -141 146 -141 111 -199 c 1,20,-1
 36 -165 l 1,21,22
 49 -133 49 -133 52.5 -114 c 128,-1,23
 56 -95 56 -95 56 -49 c 2,0,-1
EndSplineSet
EndChar
StartChar: paragraph
Encoding: 182 182 111
Width: 500
GlyphClass: 2
Flags: W
LayerCount: 2
Back
Fore
SplineSet
455 0 m 1,0,-1
 402 0 l 1,1,-1
 402 634 l 1,2,-1
 455 634 l 1,3,-1
 455 0 l 1,0,-1
295 0 m 1,4,-1
 242 0 l 1,5,-1
 242 198 l 1,6,7
 129 206 129 206 85 255.5 c 128,-1,8
 41 305 41 305 41 413 c 128,-1,9
 41 521 41 521 85 577.5 c 128,-1,10
 129 634 129 634 242 634 c 2,11,-1
 295 634 l 1,12,-1
 295 0 l 1,4,-1
242 247 m 1,13,-1
 242 584 l 1,14,15
 153 583 153 583 123 544 c 0,16,17
 93 504 93 504 93 414 c 128,-1,18
 93 324 93 324 124 289.5 c 128,-1,19
 155 255 155 255 242 247 c 1,13,-1
EndSplineSet
EndChar
StartChar: periodcentered
Encoding: 183 183 112
Width: 500
GlyphClass: 2
Flags: W
LayerCount: 2
Back
Fore
SplineSet
182 300 m 128,-1,1
 182 336 182 336 199.5 357.5 c 128,-1,2
 217 379 217 379 248 379 c 128,-1,3
 279 379 279 379 296 358 c 128,-1,4
 313 337 313 337 313 300 c 0,5,6
 313 225 313 225 247 225 c 0,7,8
 217 225 217 225 199.5 244.5 c 128,-1,0
 182 264 182 264 182 300 c 128,-1,1
EndSplineSet
EndChar
StartChar: ordmasculine
Encoding: 186 186 113
Width: 500
GlyphClass: 2
Flags: W
LayerCount: 2
Back
Fore
SplineSet
142.5 394.5 m 128,-1,1
 107 435 107 435 107 510.5 c 128,-1,2
 107 586 107 586 142.5 625.5 c 128,-1,3
 178 665 178 665 243 665 c 128,-1,4
 308 665 308 665 343 625.5 c 128,-1,5
 378 586 378 586 378 510.5 c 128,-1,6
 378 435 378 435 343 394.5 c 128,-1,7
 308 354 308 354 243 354 c 128,-1,0
 178 354 178 354 142.5 394.5 c 128,-1,1
300 509.5 m 128,-1,9
 300 595 300 595 242.5 595 c 128,-1,10
 185 595 185 595 185 509.5 c 128,-1,11
 185 424 185 424 242.5 424 c 128,-1,8
 300 424 300 424 300 509.5 c 128,-1,9
EndSplineSet
EndChar
StartChar: guillemotright
Encoding: 187 187 114
Width: 500
GlyphClass: 2
Flags: W
LayerCount: 2
Back
Fore
SplineSet
242 431 m 1,0,-1
 472 267 l 1,1,-1
 472 187 l 1,2,-1
 242 21 l 1,3,-1
 242 135 l 1,4,-1
 388 227 l 1,5,-1
 242 317 l 1,6,-1
 242 431 l 1,0,-1
30 431 m 1,7,-1
 260 267 l 1,8,-1
 260 187 l 1,9,-1
 30 21 l 1,10,-1
 30 135 l 1,11,-1
 176 227 l 1,12,-1
 30 317 l 1,13,-1
 30 431 l 1,7,-1
EndSplineSet
Substitution2: "'calt' Contextual Alternates in Latin lookup 0 subtable" guillemotright.calt
EndChar
StartChar: questiondown
Encoding: 191 191 115
Width: 500
GlyphClass: 2
Flags: W
LayerCount: 2
Back
Fore
SplineSet
329 489 m 1,0,-1
 329 366 l 1,1,-1
 214 366 l 1,2,-1
 214 489 l 1,3,-1
 329 489 l 1,0,-1
77 -34 m 0,4,5
 77 -10 77 -10 80 9 c 128,-1,6
 83 28 83 28 102 61.5 c 128,-1,7
 121 95 121 95 156 129 c 2,8,9
 156 129 156 129 178 150 c 0,10,11
 192 163 192 163 197 168 c 2,12,-1
 210 182 l 2,13,14
 231 204 231 204 233 216.5 c 128,-1,15
 235 229 235 229 235 241.5 c 128,-1,16
 235 254 235 254 228 296 c 1,17,-1
 321 302 l 1,18,19
 334 276 334 276 334 234 c 128,-1,20
 334 192 334 192 317.5 162.5 c 128,-1,21
 301 133 301 133 257 91.5 c 128,-1,22
 213 50 213 50 199.5 30.5 c 128,-1,23
 186 11 186 11 184 0.5 c 128,-1,24
 182 -10 182 -10 182 -40.5 c 128,-1,25
 182 -71 182 -71 206.5 -89.5 c 128,-1,26
 231 -108 231 -108 258.5 -108 c 128,-1,27
 286 -108 286 -108 322 -96.5 c 128,-1,28
 358 -85 358 -85 382 -65 c 1,29,-1
 423 -146 l 1,30,31
 386 -175 386 -175 340.5 -188.5 c 128,-1,32
 295 -202 295 -202 261 -202 c 0,33,34
 183 -202 183 -202 130 -161.5 c 128,-1,35
 77 -121 77 -121 77 -34 c 0,4,5
EndSplineSet
EndChar
StartChar: Agrave
Encoding: 192 192 116
Width: 500
GlyphClass: 2
Flags: W
LayerCount: 2
Back
Fore
SplineSet
156 901 m 1,0,-1
 359 813 l 1,1,-1
 327 735 l 1,2,-1
 120 819 l 1,3,-1
 156 901 l 1,0,-1
0 0 m 1,4,-1
 159 655 l 1,5,-1
 346 655 l 1,6,-1
 500 0 l 1,7,-1
 390 0 l 1,8,-1
 359 125 l 1,9,-1
 137 125 l 1,10,-1
 108 0 l 1,11,-1
 0 0 l 1,4,-1
337 218 m 1,12,-1
 263 562 l 1,13,-1
 241 562 l 1,14,-1
 158 218 l 1,15,-1
 337 218 l 1,12,-1
EndSplineSet
EndChar
StartChar: Acircumflex
Encoding: 194 194 118
Width: 500
GlyphClass: 2
Flags: W
LayerCount: 2
Back
Fore
SplineSet
87 742 m 1,0,-1
 213 882 l 1,1,-1
 293 882 l 1,2,-1
 419 742 l 1,3,-1
 321 742 l 1,4,-1
 253 822 l 1,5,-1
 185 742 l 1,6,-1
 87 742 l 1,0,-1
0 0 m 1,7,-1
 159 655 l 1,8,-1
 346 655 l 1,9,-1
 500 0 l 1,10,-1
 390 0 l 1,11,-1
 359 125 l 1,12,-1
 137 125 l 1,13,-1
 108 0 l 1,14,-1
 0 0 l 1,7,-1
337 218 m 1,15,-1
 263 562 l 1,16,-1
 241 562 l 1,17,-1
 158 218 l 1,18,-1
 337 218 l 1,15,-1
EndSplineSet
EndChar
StartChar: Atilde
Encoding: 195 195 119
Width: 500
GlyphClass: 2
Flags: W
LayerCount: 2
Back
Fore
SplineSet
373 870 m 1,0,-1
 414 814 l 1,1,2
 365 761 365 761 318 761 c 0,3,4
 283 761 283 761 245 782 c 0,5,6
 208 804 208 804 186 804 c 128,-1,7
 164 804 164 804 131 773 c 1,8,-1
 86 828 l 1,9,10
 145 885 145 885 192 885 c 0,11,12
 225 885 225 885 264 864 c 0,13,14
 304 843 304 843 324 843 c 128,-1,15
 344 843 344 843 373 870 c 1,0,-1
0 0 m 1,16,-1
 159 655 l 1,17,-1
 346 655 l 1,18,-1
 500 0 l 1,19,-1
 390 0 l 1,20,-1
 359 125 l 1,21,-1
 137 125 l 1,22,-1
 108 0 l 1,23,-1
 0 0 l 1,16,-1
337 218 m 1,24,-1
 263 562 l 1,25,-1
 241 562 l 1,26,-1
 158 218 l 1,27,-1
 337 218 l 1,24,-1
EndSplineSet
EndChar
StartChar: Adieresis
Encoding: 196 196 120
Width: 500
GlyphClass: 2
Flags: W
LayerCount: 2
Back
Fore
SplineSet
97 812 m 128,-1,1
 97 835 97 835 113.5 852 c 128,-1,2
 130 869 130 869 153 869 c 128,-1,3
 176 869 176 869 192.5 852 c 128,-1,4
 209 835 209 835 209 812 c 128,-1,5
 209 789 209 789 193 772 c 128,-1,6
 177 755 177 755 153 755 c 128,-1,7
 129 755 129 755 113 772 c 128,-1,0
 97 789 97 789 97 812 c 128,-1,1
290 812 m 128,-1,9
 290 835 290 835 306 852 c 128,-1,10
 322 869 322 869 346 869 c 128,-1,11
 370 869 370 869 386 852 c 128,-1,12
 402 835 402 835 402 812 c 128,-1,13
 402 789 402 789 386 772 c 128,-1,14
 370 755 370 755 346 755 c 128,-1,15
 322 755 322 755 306 772 c 128,-1,8
 290 789 290 789 290 812 c 128,-1,9
0 0 m 1,16,-1
 159 655 l 1,17,-1
 346 655 l 1,18,-1
 500 0 l 1,19,-1
 390 0 l 1,20,-1
 359 125 l 1,21,-1
 137 125 l 1,22,-1
 108 0 l 1,23,-1
 0 0 l 1,16,-1
337 218 m 1,24,-1
 263 562 l 1,25,-1
 241 562 l 1,26,-1
 158 218 l 1,27,-1
 337 218 l 1,24,-1
EndSplineSet
EndChar
StartChar: Aring
Encoding: 197 197 121
Width: 500
GlyphClass: 2
Flags: W
LayerCount: 2
Back
Fore
SplineSet
336 899 m 128,-1,1
 369 869 369 869 369 818.5 c 128,-1,2
 369 768 369 768 336 738 c 128,-1,3
 303 708 303 708 249.5 708 c 128,-1,4
 196 708 196 708 163 738 c 128,-1,5
 130 768 130 768 130 818.5 c 128,-1,6
 130 869 130 869 163 899 c 128,-1,7
 196 929 196 929 249.5 929 c 128,-1,0
 303 929 303 929 336 899 c 128,-1,1
199 818 m 128,-1,9
 199 773 199 773 249 773 c 128,-1,10
 299 773 299 773 299 818 c 128,-1,11
 299 863 299 863 249 863 c 128,-1,8
 199 863 199 863 199 818 c 128,-1,9
0 0 m 1,12,-1
 159 655 l 1,13,-1
 346 655 l 1,14,-1
 500 0 l 1,15,-1
 390 0 l 1,16,-1
 359 125 l 1,17,-1
 137 125 l 1,18,-1
 108 0 l 1,19,-1
 0 0 l 1,12,-1
337 218 m 1,20,-1
 263 562 l 1,21,-1
 241 562 l 1,22,-1
 158 218 l 1,23,-1
 337 218 l 1,20,-1
EndSplineSet
EndChar
StartChar: AE
Encoding: 198 198 122
Width: 500
GlyphClass: 2
Flags: W
LayerCount: 2
Back
Fore
SplineSet
0 0 m 1,0,-1
 154 655 l 1,1,-1
 478 655 l 1,2,-1
 478 561 l 1,3,-1
 357 561 l 1,4,-1
 357 379 l 1,5,-1
 451 379 l 1,6,-1
 451 289 l 1,7,-1
 357 289 l 1,8,-1
 357 94 l 1,9,-1
 481 94 l 1,10,-1
 481 0 l 1,11,-1
 253 0 l 1,12,-1
 253 125 l 1,13,-1
 137 125 l 1,14,-1
 108 0 l 1,15,-1
 0 0 l 1,0,-1
253 218 m 1,16,-1
 253 562 l 1,17,-1
 236 562 l 1,18,-1
 158 218 l 1,19,-1
 253 218 l 1,16,-1
EndSplineSet
EndChar
StartChar: Ccedilla
Encoding: 199 199 123
Width: 500
GlyphClass: 2
Flags: W
LayerCount: 2
Back
Fore
SplineSet
341.5 -69.5 m 128,-1,1
 373 -97 373 -97 373 -148.5 c 128,-1,2
 373 -200 373 -200 343 -228.5 c 128,-1,3
 313 -257 313 -257 261 -257 c 0,4,5
 240 -257 240 -257 200 -250 c 1,6,-1
 208 -187 l 1,7,8
 243 -190 243 -190 254 -190 c 0,9,10
 299 -190 299 -190 299 -148 c 0,11,12
 299 -126 299 -126 288.5 -117 c 128,-1,13
 278 -108 278 -108 254 -108 c 2,14,-1
 212 -111 l 1,15,-1
 203 -50 l 1,16,17
 235 -42 235 -42 261 -42 c 0,18,0
 310 -42 310 -42 341.5 -69.5 c 128,-1,1
446 107 m 1,19,-1
 464 20 l 1,20,21
 362 -10 362 -10 292.5 -10 c 128,-1,22
 223 -10 223 -10 180.5 6 c 128,-1,23
 138 22 138 22 106 60 c 0,24,25
 40 137 40 137 40 334 c 0,26,27
 40 665 40 665 282 665 c 0,28,29
 366 665 366 665 451 636 c 1,30,-1
 429 551 l 1,31,32
 351 572 351 572 283.5 572 c 128,-1,33
 216 572 216 572 181 520 c 128,-1,34
 146 468 146 468 146 331.5 c 128,-1,35
 146 195 146 195 174.5 138.5 c 128,-1,36
 203 82 203 82 280.5 82 c 128,-1,37
 358 82 358 82 446 107 c 1,19,-1
EndSplineSet
EndChar
StartChar: Egrave
Encoding: 200 200 124
Width: 500
GlyphClass: 2
Flags: W
LayerCount: 2
Back
Fore
SplineSet
165 901 m 1,0,-1
 368 813 l 1,1,-1
 336 735 l 1,2,-1
 129 819 l 1,3,-1
 165 901 l 1,0,-1
60 0 m 1,4,-1
 60 655 l 1,5,-1
 443 655 l 1,6,-1
 443 561 l 1,7,-1
 164 561 l 1,8,-1
 164 379 l 1,9,-1
 416 379 l 1,10,-1
 416 289 l 1,11,-1
 164 289 l 1,12,-1
 164 94 l 1,13,-1
 446 94 l 1,14,-1
 446 0 l 1,15,-1
 60 0 l 1,4,-1
EndSplineSet
EndChar
StartChar: Eacute
Encoding: 201 201 125
Width: 500
GlyphClass: 2
Flags: W
LayerCount: 2
Back
Fore
SplineSet
140 812 m 1,0,-1
 345 900 l 1,1,-1
 379 818 l 1,2,-1
 173 734 l 1,3,-1
 140 812 l 1,0,-1
60 0 m 1,4,-1
 60 655 l 1,5,-1
 443 655 l 1,6,-1
 443 561 l 1,7,-1
 164 561 l 1,8,-1
 164 379 l 1,9,-1
 416 379 l 1,10,-1
 416 289 l 1,11,-1
 164 289 l 1,12,-1
 164 94 l 1,13,-1
 446 94 l 1,14,-1
 446 0 l 1,15,-1
 60 0 l 1,4,-1
EndSplineSet
EndChar
StartChar: Ecircumflex
Encoding: 202 202 126
Width: 500
GlyphClass: 2
Flags: W
LayerCount: 2
Back
Fore
SplineSet
87 752 m 1,0,-1
 213 882 l 1,1,-1
 293 882 l 1,2,-1
 419 752 l 1,3,-1
 321 752 l 1,4,-1
 253 822 l 1,5,-1
 185 752 l 1,6,-1
 87 752 l 1,0,-1
60 0 m 1,7,-1
 60 655 l 1,8,-1
 443 655 l 1,9,-1
 443 561 l 1,10,-1
 164 561 l 1,11,-1
 164 379 l 1,12,-1
 416 379 l 1,13,-1
 416 289 l 1,14,-1
 164 289 l 1,15,-1
 164 94 l 1,16,-1
 446 94 l 1,17,-1
 446 0 l 1,18,-1
 60 0 l 1,7,-1
EndSplineSet
EndChar
StartChar: Iacute
Encoding: 205 205 129
Width: 500
GlyphClass: 2
Flags: W
LayerCount: 2
Back
Fore
SplineSet
133 812 m 1,0,-1
 338 900 l 1,1,-1
 372 818 l 1,2,-1
 166 734 l 1,3,-1
 133 812 l 1,0,-1
72 0 m 1,4,-1
 72 93 l 1,5,-1
 201 93 l 1,6,-1
 201 562 l 1,7,-1
 72 562 l 1,8,-1
 72 655 l 1,9,-1
 425 655 l 1,10,-1
 425 562 l 1,11,-1
 305 562 l 1,12,-1
 305 93 l 1,13,-1
 425 93 l 1,14,-1
 425 0 l 1,15,-1
 72 0 l 1,4,-1
EndSplineSet
EndChar
StartChar: Icircumflex
Encoding: 206 206 130
Width: 500
GlyphClass: 2
Flags: W
LayerCount: 2
Back
Fore
SplineSet
87 742 m 1,0,-1
 213 882 l 1,1,-1
 293 882 l 1,2,-1
 419 742 l 1,3,-1
 321 742 l 1,4,-1
 253 822 l 1,5,-1
 185 742 l 1,6,-1
 87 742 l 1,0,-1
72 0 m 1,7,-1
 72 93 l 1,8,-1
 201 93 l 1,9,-1
 201 562 l 1,10,-1
 72 562 l 1,11,-1
 72 655 l 1,12,-1
 425 655 l 1,13,-1
 425 562 l 1,14,-1
 305 562 l 1,15,-1
 305 93 l 1,16,-1
 425 93 l 1,17,-1
 425 0 l 1,18,-1
 72 0 l 1,7,-1
EndSplineSet
EndChar
StartChar: Eth
Encoding: 208 208 132
Width: 500
GlyphClass: 2
Flags: W
LayerCount: 2
Back
Fore
SplineSet
50 0 m 1,0,-1
 50 270 l 1,1,-1
 8 270 l 1,2,-1
 8 367 l 1,3,-1
 50 367 l 1,4,-1
 50 655 l 1,5,-1
 194 655 l 2,6,7
 273 655 273 655 321.5 642 c 128,-1,8
 370 629 370 629 404 593 c 128,-1,9
 438 557 438 557 452 493.5 c 128,-1,10
 466 430 466 430 466 313.5 c 128,-1,11
 466 197 466 197 437.5 126 c 128,-1,12
 409 55 409 55 352 27.5 c 128,-1,13
 295 0 295 0 192 0 c 2,14,-1
 50 0 l 1,0,-1
351.5 204.5 m 128,-1,16
 360 250 360 250 360 328.5 c 128,-1,17
 360 407 360 407 353 452 c 128,-1,18
 346 497 346 497 323.5 523.5 c 128,-1,19
 301 550 301 550 268 557.5 c 128,-1,20
 235 565 235 565 174 565 c 2,21,-1
 154 565 l 1,22,-1
 154 367 l 1,23,-1
 245 367 l 1,24,-1
 245 270 l 1,25,-1
 154 270 l 1,26,-1
 154 90 l 1,27,-1
 172 90 l 2,28,29
 230 90 230 90 263.5 98.5 c 128,-1,30
 297 107 297 107 320 133 c 128,-1,15
 343 159 343 159 351.5 204.5 c 128,-1,16
EndSplineSet
EndChar
StartChar: Ntilde
Encoding: 209 209 133
Width: 500
GlyphClass: 2
Flags: W
LayerCount: 2
Back
Fore
SplineSet
373 870 m 1,0,-1
 414 814 l 1,1,2
 365 761 365 761 318 761 c 0,3,4
 283 761 283 761 245 782 c 0,5,6
 208 804 208 804 186 804 c 128,-1,7
 164 804 164 804 131 773 c 1,8,-1
 86 828 l 1,9,10
 145 885 145 885 192 885 c 0,11,12
 225 885 225 885 264 864 c 0,13,14
 304 843 304 843 324 843 c 128,-1,15
 344 843 344 843 373 870 c 1,0,-1
375 0 m 1,16,-1
 375 87 l 1,17,-1
 128 493 l 1,18,-1
 125 493 l 1,19,-1
 125 0 l 1,20,-1
 31 0 l 1,21,-1
 31 655 l 1,22,-1
 125 655 l 1,23,-1
 371 245 l 1,24,-1
 375 245 l 1,25,-1
 375 655 l 1,26,-1
 469 655 l 1,27,-1
 469 0 l 1,28,-1
 375 0 l 1,16,-1
EndSplineSet
EndChar
StartChar: Ocircumflex
Encoding: 212 212 136
Width: 500
GlyphClass: 2
Flags: W
LayerCount: 2
Back
Fore
SplineSet
87 752 m 1,0,-1
 213 882 l 1,1,-1
 293 882 l 1,2,-1
 419 752 l 1,3,-1
 321 752 l 1,4,-1
 253 822 l 1,5,-1
 185 752 l 1,6,-1
 87 752 l 1,0,-1
77 74 m 128,-1,8
 25 158 25 158 25 331.5 c 128,-1,9
 25 505 25 505 78.5 585 c 128,-1,10
 132 665 132 665 252.5 665 c 128,-1,11
 373 665 373 665 424 586 c 128,-1,12
 475 507 475 507 475 329.5 c 128,-1,13
 475 152 475 152 424 71 c 128,-1,14
 373 -10 373 -10 251 -10 c 128,-1,7
 129 -10 129 -10 77 74 c 128,-1,8
344 135.5 m 128,-1,16
 369 187 369 187 369 331 c 128,-1,17
 369 475 369 475 344.5 523 c 128,-1,18
 320 571 320 571 252.5 571 c 128,-1,19
 185 571 185 571 158 519 c 128,-1,20
 131 467 131 467 131 333.5 c 128,-1,21
 131 200 131 200 155 142 c 128,-1,22
 179 84 179 84 249 84 c 128,-1,15
 319 84 319 84 344 135.5 c 128,-1,16
EndSplineSet
EndChar
StartChar: Otilde
Encoding: 213 213 137
Width: 500
GlyphClass: 2
Flags: W
LayerCount: 2
Back
Fore
SplineSet
373 870 m 1,0,-1
 414 814 l 1,1,2
 365 761 365 761 318 761 c 0,3,4
 283 761 283 761 245 782.5 c 128,-1,5
 207 804 207 804 185.5 804 c 128,-1,6
 164 804 164 804 131 773 c 1,7,-1
 86 828 l 1,8,9
 145 885 145 885 192 885 c 0,10,11
 225 885 225 885 264 864 c 128,-1,12
 303 843 303 843 323.5 843 c 128,-1,13
 344 843 344 843 373 870 c 1,0,-1
77 74 m 128,-1,15
 25 158 25 158 25 331.5 c 128,-1,16
 25 505 25 505 78.5 585 c 128,-1,17
 132 665 132 665 252.5 665 c 128,-1,18
 373 665 373 665 424 586 c 128,-1,19
 475 507 475 507 475 329.5 c 128,-1,20
 475 152 475 152 424 71 c 128,-1,21
 373 -10 373 -10 251 -10 c 128,-1,14
 129 -10 129 -10 77 74 c 128,-1,15
344 135.5 m 128,-1,23
 369 187 369 187 369 331 c 128,-1,24
 369 475 369 475 344.5 523 c 128,-1,25
 320 571 320 571 252.5 571 c 128,-1,26
 185 571 185 571 158 519 c 128,-1,27
 131 467 131 467 131 333.5 c 128,-1,28
 131 200 131 200 155 142 c 128,-1,29
 179 84 179 84 249 84 c 128,-1,22
 319 84 319 84 344 135.5 c 128,-1,23
EndSplineSet
EndChar
StartChar: Odieresis
Encoding: 214 214 138
Width: 500
GlyphClass: 2
Flags: W
LayerCount: 2
Back
Fore
SplineSet
97 812 m 128,-1,1
 97 835 97 835 113.5 852 c 128,-1,2
 130 869 130 869 153 869 c 128,-1,3
 176 869 176 869 192.5 852 c 128,-1,4
 209 835 209 835 209 812 c 128,-1,5
 209 789 209 789 193 772 c 128,-1,6
 177 755 177 755 153 755 c 128,-1,7
 129 755 129 755 113 772 c 128,-1,0
 97 789 97 789 97 812 c 128,-1,1
290 812 m 128,-1,9
 290 835 290 835 306 852 c 128,-1,10
 322 869 322 869 346 869 c 128,-1,11
 370 869 370 869 386 852 c 128,-1,12
 402 835 402 835 402 812 c 128,-1,13
 402 789 402 789 386 772 c 128,-1,14
 370 755 370 755 346 755 c 128,-1,15
 322 755 322 755 306 772 c 128,-1,8
 290 789 290 789 290 812 c 128,-1,9
77 74 m 128,-1,17
 25 158 25 158 25 331.5 c 128,-1,18
 25 505 25 505 78.5 585 c 128,-1,19
 132 665 132 665 252.5 665 c 128,-1,20
 373 665 373 665 424 586 c 128,-1,21
 475 507 475 507 475 329.5 c 128,-1,22
 475 152 475 152 424 71 c 128,-1,23
 373 -10 373 -10 251 -10 c 128,-1,16
 129 -10 129 -10 77 74 c 128,-1,17
344 135.5 m 128,-1,25
 369 187 369 187 369 331 c 128,-1,26
 369 475 369 475 344.5 523 c 128,-1,27
 320 571 320 571 252.5 571 c 128,-1,28
 185 571 185 571 158 519 c 128,-1,29
 131 467 131 467 131 333.5 c 128,-1,30
 131 200 131 200 155 142 c 128,-1,31
 179 84 179 84 249 84 c 128,-1,24
 319 84 319 84 344 135.5 c 128,-1,25
EndSplineSet
EndChar
StartChar: multiply
Encoding: 215 215 139
Width: 500
GlyphClass: 2
Flags: W
LayerCount: 2
Back
Fore
SplineSet
384 90 m 1,0,-1
 247 227 l 1,1,-1
 111 90 l 1,2,-1
 40 159 l 1,3,-1
 177 297 l 1,4,-1
 39 434 l 1,5,-1
 112 503 l 1,6,-1
 247 367 l 1,7,-1
 384 502 l 1,8,-1
 455 434 l 1,9,-1
 318 297 l 1,10,-1
 454 160 l 1,11,-1
 384 90 l 1,0,-1
EndSplineSet
Substitution2: "'calt' Contextual Alternates in Latin lookup 0 subtable" multiply.calt
EndChar
StartChar: Oslash
Encoding: 216 216 140
Width: 500
GlyphClass: 2
Flags: W
LayerCount: 2
Back
Fore
SplineSet
72 83 m 1,0,1
 25 164 25 164 25 334.5 c 128,-1,2
 25 505 25 505 78.5 585 c 128,-1,3
 132 665 132 665 250 665 c 0,4,5
 334 665 334 665 384 628 c 1,6,-1
 405 665 l 1,7,-1
 466 631 l 1,8,-1
 432 572 l 1,9,10
 475 493 475 493 475 322.5 c 128,-1,11
 475 152 475 152 424 71 c 128,-1,12
 373 -10 373 -10 250 -10 c 0,13,14
 169 -10 169 -10 120 27 c 1,15,-1
 99 -10 l 1,16,-1
 38 23 l 1,17,-1
 72 83 l 1,0,1
158 519 m 128,-1,19
 131 467 131 467 131 357.5 c 128,-1,20
 131 248 131 248 139 200 c 1,21,-1
 333 540 l 1,22,23
 309 571 309 571 247 571 c 128,-1,18
 185 571 185 571 158 519 c 128,-1,19
369 334 m 0,24,25
 369 404 369 404 363 452 c 1,26,-1
 171 116 l 1,27,28
 197 84 197 84 250 84 c 0,29,30
 319 84 319 84 344 135.5 c 128,-1,31
 369 187 369 187 369 334 c 0,24,25
EndSplineSet
EndChar
StartChar: Uacute
Encoding: 218 218 142
Width: 500
GlyphClass: 2
Flags: W
LayerCount: 2
Back
Fore
SplineSet
151 812 m 1,0,-1
 356 900 l 1,1,-1
 390 818 l 1,2,-1
 184 734 l 1,3,-1
 151 812 l 1,0,-1
26 220 m 2,4,-1
 26 655 l 1,5,-1
 131 655 l 1,6,-1
 131 232 l 2,7,8
 131 155 131 155 156 120 c 0,9,10
 180 85 180 85 248 85 c 128,-1,11
 316 85 316 85 342 119 c 128,-1,12
 368 153 368 153 368 232 c 2,13,-1
 368 655 l 1,14,-1
 473 655 l 1,15,-1
 473 220 l 2,16,17
 473 103 473 103 422.5 47 c 128,-1,18
 372 -9 372 -9 246 -9 c 128,-1,19
 120 -9 120 -9 73 48 c 128,-1,20
 26 105 26 105 26 220 c 2,4,-1
EndSplineSet
EndChar
StartChar: Ucircumflex
Encoding: 219 219 143
Width: 500
GlyphClass: 2
Flags: W
LayerCount: 2
Back
Fore
SplineSet
87 752 m 1,0,-1
 213 882 l 1,1,-1
 293 882 l 1,2,-1
 419 752 l 1,3,-1
 321 752 l 1,4,-1
 253 822 l 1,5,-1
 185 752 l 1,6,-1
 87 752 l 1,0,-1
26 220 m 2,7,-1
 26 655 l 1,8,-1
 131 655 l 1,9,-1
 131 232 l 2,10,11
 131 155 131 155 156 120 c 0,12,13
 180 85 180 85 248 85 c 128,-1,14
 316 85 316 85 342 119 c 128,-1,15
 368 153 368 153 368 232 c 2,16,-1
 368 655 l 1,17,-1
 473 655 l 1,18,-1
 473 220 l 2,19,20
 473 103 473 103 422.5 47 c 128,-1,21
 372 -9 372 -9 246 -9 c 128,-1,22
 120 -9 120 -9 73 48 c 128,-1,23
 26 105 26 105 26 220 c 2,7,-1
EndSplineSet
EndChar
StartChar: Udieresis
Encoding: 220 220 144
Width: 500
GlyphClass: 2
Flags: W
LayerCount: 2
Back
Fore
SplineSet
97 812 m 128,-1,1
 97 835 97 835 113.5 852 c 128,-1,2
 130 869 130 869 153 869 c 128,-1,3
 176 869 176 869 192.5 852 c 128,-1,4
 209 835 209 835 209 812 c 128,-1,5
 209 789 209 789 193 772 c 128,-1,6
 177 755 177 755 153 755 c 128,-1,7
 129 755 129 755 113 772 c 128,-1,0
 97 789 97 789 97 812 c 128,-1,1
290 812 m 128,-1,9
 290 835 290 835 306 852 c 128,-1,10
 322 869 322 869 346 869 c 128,-1,11
 370 869 370 869 386 852 c 128,-1,12
 402 835 402 835 402 812 c 128,-1,13
 402 789 402 789 386 772 c 128,-1,14
 370 755 370 755 346 755 c 128,-1,15
 322 755 322 755 306 772 c 128,-1,8
 290 789 290 789 290 812 c 128,-1,9
26 220 m 2,16,-1
 26 655 l 1,17,-1
 131 655 l 1,18,-1
 131 232 l 2,19,20
 131 155 131 155 156 120 c 0,21,22
 180 85 180 85 248 85 c 128,-1,23
 316 85 316 85 342 119 c 128,-1,24
 368 153 368 153 368 232 c 2,25,-1
 368 655 l 1,26,-1
 473 655 l 1,27,-1
 473 220 l 2,28,29
 473 103 473 103 422.5 47 c 128,-1,30
 372 -9 372 -9 246 -9 c 128,-1,31
 120 -9 120 -9 73 48 c 128,-1,32
 26 105 26 105 26 220 c 2,16,-1
EndSplineSet
EndChar
StartChar: Yacute
Encoding: 221 221 145
Width: 500
GlyphClass: 2
Flags: W
LayerCount: 2
Back
Fore
SplineSet
148 779 m 1,0,-1
 329 880 l 1,1,-1
 372 793 l 1,2,-1
 188 706 l 1,3,-1
 148 779 l 1,0,-1
302 283 m 1,4,-1
 302 0 l 1,5,-1
 198 0 l 1,6,-1
 198 283 l 1,7,-1
 0 655 l 1,8,-1
 116 655 l 1,9,-1
 246 380 l 1,10,-1
 254 380 l 1,11,-1
 384 655 l 1,12,-1
 500 655 l 1,13,-1
 302 283 l 1,4,-1
EndSplineSet
EndChar
StartChar: Thorn
Encoding: 222 222 146
Width: 500
GlyphClass: 2
Flags: W
LayerCount: 2
Back
Fore
SplineSet
143 115 m 1,0,-1
 143 0 l 1,1,-1
 44 0 l 1,2,-1
 44 655 l 1,3,-1
 143 655 l 1,4,-1
 143 550 l 1,5,-1
 224 550 l 2,6,7
 281 550 281 550 325.5 526 c 128,-1,8
 370 502 370 502 392.5 463.5 c 128,-1,9
 415 425 415 425 425 379 c 128,-1,10
 435 333 435 333 423.5 286.5 c 128,-1,11
 412 240 412 240 389 201.5 c 128,-1,12
 366 163 366 163 321.5 139 c 128,-1,13
 277 115 277 115 222 115 c 2,14,-1
 143 115 l 1,0,-1
204 460 m 2,15,-1
 143 460 l 1,16,-1
 143 205 l 1,17,-1
 202 205 l 2,18,19
 246 205 246 205 276 231.5 c 128,-1,20
 306 258 306 258 313 295 c 128,-1,21
 320 332 320 332 313.5 369.5 c 128,-1,22
 307 407 307 407 277.5 433.5 c 128,-1,23
 248 460 248 460 204 460 c 2,15,-1
EndSplineSet
Substitution2: "'calt' Contextual Alternates in Latin lookup 0 subtable" Thorn.calt
EndChar
StartChar: germandbls
Encoding: 223 223 147
Width: 500
GlyphClass: 2
Flags: W
LayerCount: 2
Back
Fore
SplineSet
26 0 m 1,0,-1
 26 469 l 2,1,2
 26 561 26 561 81 613 c 128,-1,3
 136 665 136 665 239 665 c 0,4,5
 439 665 439 665 439 517 c 2,6,-1
 439 398 l 1,7,8
 353 393 353 393 307 383 c 0,9,10
 276 376 276 376 276 350 c 128,-1,11
 276 324 276 324 287 312.5 c 128,-1,12
 298 301 298 301 337 285 c 0,13,14
 432 247 432 247 458 219.5 c 128,-1,15
 484 192 484 192 484 126 c 128,-1,16
 484 60 484 60 445 25 c 128,-1,17
 406 -10 406 -10 319 -10 c 128,-1,18
 232 -10 232 -10 169 10 c 1,19,-1
 192 101 l 1,20,21
 244 82 244 82 296 82 c 128,-1,22
 348 82 348 82 363 93.5 c 128,-1,23
 378 105 378 105 378 133 c 0,24,25
 378 147 378 147 363 156.5 c 128,-1,26
 348 166 348 166 307 182 c 0,27,28
 225 214 225 214 198.5 247.5 c 128,-1,29
 172 281 172 281 172 345 c 0,30,31
 172 463 172 463 307 476 c 2,32,-1
 338 479 l 1,33,-1
 338 505 l 2,34,35
 338 572 338 572 239 572 c 0,36,37
 182 572 182 572 155.5 548 c 128,-1,38
 129 524 129 524 129 466 c 2,39,-1
 129 0 l 1,40,-1
 26 0 l 1,0,-1
EndSplineSet
EndChar
StartChar: agrave
Encoding: 224 224 148
Width: 500
GlyphClass: 2
Flags: W
LayerCount: 2
Back
Fore
SplineSet
216 86 m 0,0,1
 244 86 244 86 278 99 c 128,-1,2
 312 112 312 112 332 128 c 1,3,-1
 332 198 l 1,4,5
 272 203 272 203 234 203 c 0,6,7
 151 203 151 203 151 141 c 0,8,9
 151 86 151 86 216 86 c 0,0,1
200 -11 m 0,10,11
 40 -11 40 -11 40 141 c 0,12,13
 40 222 40 222 91.5 254.5 c 128,-1,14
 143 287 143 287 234 287 c 0,15,16
 277 287 277 287 332 282 c 1,17,18
 332 342 332 342 315 364 c 128,-1,19
 298 386 298 386 256 386 c 128,-1,20
 214 386 214 386 158 376 c 128,-1,21
 102 366 102 366 72 356 c 1,22,-1
 53 451 l 1,23,24
 158 483 158 483 258 483 c 128,-1,25
 358 483 358 483 396.5 439 c 128,-1,26
 435 395 435 395 435 290 c 2,27,-1
 435 87 l 1,28,-1
 446 -1 l 1,29,-1
 343 -11 l 1,30,-1
 333 35 l 1,31,32
 249 -11 249 -11 200 -11 c 0,10,11
181 735 m 1,33,-1
 362 634 l 1,34,-1
 322 561 l 1,35,-1
 138 648 l 1,36,-1
 181 735 l 1,33,-1
EndSplineSet
Substitution2: "'smcp' Lowercase to Small Capitals in Latin lookup 3 subtable" agrave.sc
EndChar
StartChar: atilde
Encoding: 227 227 151
Width: 500
GlyphClass: 2
Flags: W
LayerCount: 2
Back
Fore
SplineSet
216 86 m 0,0,1
 244 86 244 86 278 99 c 128,-1,2
 312 112 312 112 332 128 c 1,3,-1
 332 198 l 1,4,5
 272 203 272 203 234 203 c 0,6,7
 151 203 151 203 151 141 c 0,8,9
 151 86 151 86 216 86 c 0,0,1
200 -11 m 0,10,11
 40 -11 40 -11 40 141 c 0,12,13
 40 222 40 222 91.5 254.5 c 128,-1,14
 143 287 143 287 234 287 c 0,15,16
 277 287 277 287 332 282 c 1,17,18
 332 342 332 342 315 364 c 128,-1,19
 298 386 298 386 256 386 c 128,-1,20
 214 386 214 386 158 376 c 128,-1,21
 102 366 102 366 72 356 c 1,22,-1
 53 451 l 1,23,24
 158 483 158 483 258 483 c 128,-1,25
 358 483 358 483 396.5 439 c 128,-1,26
 435 395 435 395 435 290 c 2,27,-1
 435 87 l 1,28,-1
 446 -1 l 1,29,-1
 343 -11 l 1,30,-1
 333 35 l 1,31,32
 249 -11 249 -11 200 -11 c 0,10,11
360 705 m 1,33,-1
 401 649 l 1,34,35
 352 596 352 596 305 596 c 0,36,37
 270 596 270 596 232 617.5 c 128,-1,38
 194 639 194 639 172 639 c 128,-1,39
 150 639 150 639 118 608 c 1,40,-1
 73 663 l 1,41,42
 132 720 132 720 179 720 c 0,43,44
 212 720 212 720 251 699 c 128,-1,45
 290 678 290 678 310 678 c 128,-1,46
 330 678 330 678 360 705 c 1,33,-1
EndSplineSet
Substitution2: "'smcp' Lowercase to Small Capitals in Latin lookup 3 subtable" atilde.sc
EndChar
StartChar: adieresis
Encoding: 228 228 152
Width: 500
GlyphClass: 2
Flags: W
LayerCount: 2
Back
Fore
SplineSet
216 86 m 0,0,1
 244 86 244 86 278 99 c 128,-1,2
 312 112 312 112 332 128 c 1,3,-1
 332 198 l 1,4,5
 272 203 272 203 234 203 c 0,6,7
 151 203 151 203 151 141 c 0,8,9
 151 86 151 86 216 86 c 0,0,1
200 -11 m 0,10,11
 40 -11 40 -11 40 141 c 0,12,13
 40 222 40 222 91.5 254.5 c 128,-1,14
 143 287 143 287 234 287 c 0,15,16
 277 287 277 287 332 282 c 1,17,18
 332 342 332 342 315 364 c 128,-1,19
 298 386 298 386 256 386 c 128,-1,20
 214 386 214 386 158 376 c 128,-1,21
 102 366 102 366 72 356 c 1,22,-1
 53 451 l 1,23,24
 158 483 158 483 258 483 c 128,-1,25
 358 483 358 483 396.5 439 c 128,-1,26
 435 395 435 395 435 290 c 2,27,-1
 435 87 l 1,28,-1
 446 -1 l 1,29,-1
 343 -11 l 1,30,-1
 333 35 l 1,31,32
 249 -11 249 -11 200 -11 c 0,10,11
97 647 m 128,-1,34
 97 670 97 670 113.5 687 c 128,-1,35
 130 704 130 704 153 704 c 128,-1,36
 176 704 176 704 192.5 687 c 128,-1,37
 209 670 209 670 209 647 c 128,-1,38
 209 624 209 624 193 607 c 128,-1,39
 177 590 177 590 153 590 c 128,-1,40
 129 590 129 590 113 607 c 128,-1,33
 97 624 97 624 97 647 c 128,-1,34
290 647 m 128,-1,42
 290 670 290 670 306 687 c 128,-1,43
 322 704 322 704 346 704 c 128,-1,44
 370 704 370 704 386 687 c 128,-1,45
 402 670 402 670 402 647 c 128,-1,46
 402 624 402 624 386 607 c 128,-1,47
 370 590 370 590 346 590 c 128,-1,48
 322 590 322 590 306 607 c 128,-1,41
 290 624 290 624 290 647 c 128,-1,42
EndSplineSet
Substitution2: "'smcp' Lowercase to Small Capitals in Latin lookup 3 subtable" adieresis.sc
EndChar
StartChar: aring
Encoding: 229 229 153
Width: 500
GlyphClass: 2
Flags: W
LayerCount: 2
Back
Fore
SplineSet
216 86 m 0,0,1
 244 86 244 86 278 99 c 128,-1,2
 312 112 312 112 332 128 c 1,3,-1
 332 198 l 1,4,5
 272 203 272 203 234 203 c 0,6,7
 151 203 151 203 151 141 c 0,8,9
 151 86 151 86 216 86 c 0,0,1
200 -11 m 0,10,11
 40 -11 40 -11 40 141 c 0,12,13
 40 222 40 222 91.5 254.5 c 128,-1,14
 143 287 143 287 234 287 c 0,15,16
 277 287 277 287 332 282 c 1,17,18
 332 342 332 342 315 364 c 128,-1,19
 298 386 298 386 256 386 c 128,-1,20
 214 386 214 386 158 376 c 128,-1,21
 102 366 102 366 72 356 c 1,22,-1
 53 451 l 1,23,24
 158 483 158 483 257.5 483 c 128,-1,25
 357 483 357 483 396 439 c 128,-1,26
 435 395 435 395 435 290 c 2,27,-1
 435 87 l 1,28,-1
 446 -1 l 1,29,-1
 343 -11 l 1,30,-1
 333 35 l 1,31,32
 249 -11 249 -11 200 -11 c 0,10,11
336 709 m 128,-1,34
 369 679 369 679 369 628.5 c 128,-1,35
 369 578 369 578 336 548 c 128,-1,36
 303 518 303 518 249.5 518 c 128,-1,37
 196 518 196 518 163 548 c 128,-1,38
 130 578 130 578 130 628.5 c 128,-1,39
 130 679 130 679 163 709 c 128,-1,40
 196 739 196 739 249.5 739 c 128,-1,33
 303 739 303 739 336 709 c 128,-1,34
199 628 m 128,-1,42
 199 583 199 583 249 583 c 128,-1,43
 299 583 299 583 299 628 c 128,-1,44
 299 673 299 673 249 673 c 128,-1,41
 199 673 199 673 199 628 c 128,-1,42
EndSplineSet
Substitution2: "'smcp' Lowercase to Small Capitals in Latin lookup 3 subtable" aring.sc
EndChar
StartChar: ae
Encoding: 230 230 154
Width: 500
GlyphClass: 2
Flags: W
LayerCount: 2
Back
Fore
SplineSet
202.5 2 m 128,-1,1
 179 -10 179 -10 130.5 -10 c 128,-1,2
 82 -10 82 -10 50.5 28.5 c 128,-1,3
 19 67 19 67 19 132.5 c 128,-1,4
 19 198 19 198 56.5 240.5 c 128,-1,5
 94 283 94 283 156 283 c 2,6,-1
 204 283 l 1,7,8
 204 359 204 359 196 381.5 c 128,-1,9
 188 404 188 404 160 404 c 0,10,11
 118 404 118 404 59 377 c 1,12,-1
 34 440 l 1,13,14
 106 475 106 475 153 475 c 128,-1,15
 200 475 200 475 222.5 465.5 c 128,-1,16
 245 456 245 456 259 425 c 1,17,18
 290 480 290 480 357.5 480 c 128,-1,19
 425 480 425 480 455 429.5 c 128,-1,20
 485 379 485 379 485 269 c 1,21,-1
 482 201 l 1,22,-1
 299 201 l 1,23,24
 300 133 300 133 315.5 98 c 128,-1,25
 331 63 331 63 371 62 c 0,26,27
 396 62 396 62 444 77 c 2,28,-1
 460 82 l 1,29,-1
 481 15 l 1,30,31
 416 -10 416 -10 374 -10 c 128,-1,32
 332 -10 332 -10 308 0.5 c 128,-1,33
 284 11 284 11 255 45 c 1,34,0
 226 14 226 14 202.5 2 c 128,-1,1
206 102 m 1,35,-1
 206 201 l 1,36,-1
 156 201 l 2,37,38
 128 201 128 201 111.5 183.5 c 128,-1,39
 95 166 95 166 95 134 c 0,40,41
 95 61 95 61 140 61 c 0,42,43
 163 61 163 61 179.5 71.5 c 128,-1,44
 196 82 196 82 201 92 c 2,45,-1
 206 102 l 1,35,-1
394 378.5 m 128,-1,47
 384 405 384 405 355.5 405 c 128,-1,48
 327 405 327 405 312.5 379 c 128,-1,49
 298 353 298 353 297 282 c 1,50,-1
 404 282 l 1,51,46
 404 352 404 352 394 378.5 c 128,-1,47
EndSplineSet
Substitution2: "'smcp' Lowercase to Small Capitals in Latin lookup 3 subtable" ae.sc
EndChar
StartChar: ccedilla
Encoding: 231 231 155
Width: 500
GlyphClass: 2
Flags: W
LayerCount: 2
Back
Fore
SplineSet
326 302 m 1,0,-1
 326 384 l 1,1,2
 303 388 303 388 281 388 c 0,3,4
 219 388 219 388 194.5 352 c 128,-1,5
 170 316 170 316 170 238.5 c 128,-1,6
 170 161 170 161 195.5 123 c 128,-1,7
 221 85 221 85 285 85 c 128,-1,8
 349 85 349 85 416 103 c 1,9,-1
 431 7 l 1,10,11
 361 -13 361 -13 281 -13 c 0,12,13
 59 -13 59 -13 59 237 c 0,14,15
 59 366 59 366 109.5 425.5 c 128,-1,16
 160 485 160 485 278 485 c 0,17,18
 354 485 354 485 424 466 c 1,19,-1
 424 302 l 1,20,-1
 326 302 l 1,0,-1
346.5 -69.5 m 128,-1,22
 378 -97 378 -97 378 -148.5 c 128,-1,23
 378 -200 378 -200 348 -228.5 c 128,-1,24
 318 -257 318 -257 266 -257 c 0,25,26
 245 -257 245 -257 205 -250 c 1,27,-1
 213 -187 l 1,28,29
 248 -190 248 -190 259 -190 c 0,30,31
 304 -190 304 -190 304 -148 c 0,32,33
 304 -126 304 -126 293.5 -117 c 128,-1,34
 283 -108 283 -108 259 -108 c 2,35,-1
 217 -111 l 1,36,-1
 208 -50 l 1,37,38
 240 -42 240 -42 266 -42 c 0,39,21
 315 -42 315 -42 346.5 -69.5 c 128,-1,22
EndSplineSet
Substitution2: "'smcp' Lowercase to Small Capitals in Latin lookup 3 subtable" ccedilla.sc
EndChar
StartChar: ecircumflex
Encoding: 234 234 158
Width: 500
GlyphClass: 2
Flags: W
LayerCount: 2
Back
Fore
SplineSet
103 420.5 m 128,-1,1
 157 483 157 483 253 483 c 128,-1,2
 349 483 349 483 401.5 426.5 c 128,-1,3
 454 370 454 370 456 261 c 1,4,-1
 452 187 l 1,5,-1
 160 187 l 1,6,7
 169 79 169 79 268 79 c 0,8,9
 337 79 337 79 414 104 c 1,10,-1
 435 17 l 1,11,12
 403 6 403 6 352 -2.5 c 128,-1,13
 301 -11 301 -11 268 -11 c 0,14,15
 49 -11 49 -11 49 237 c 0,16,0
 49 358 49 358 103 420.5 c 128,-1,1
257 390 m 0,17,18
 210 390 210 390 186.5 362.5 c 128,-1,19
 163 335 163 335 160 271 c 1,20,-1
 345 271 l 1,21,22
 345 390 345 390 257 390 c 0,17,18
297 745 m 1,23,-1
 405 588 l 1,24,-1
 303 588 l 1,25,-1
 250 674 l 1,26,-1
 197 588 l 1,27,-1
 95 588 l 1,28,-1
 203 745 l 1,29,-1
 297 745 l 1,23,-1
EndSplineSet
Substitution2: "'smcp' Lowercase to Small Capitals in Latin lookup 3 subtable" ecircumflex.sc
EndChar
StartChar: edieresis
Encoding: 235 235 159
Width: 500
GlyphClass: 2
Flags: W
LayerCount: 2
Back
Fore
SplineSet
103 420.5 m 128,-1,1
 157 483 157 483 253 483 c 128,-1,2
 349 483 349 483 401.5 426.5 c 128,-1,3
 454 370 454 370 456 261 c 1,4,-1
 452 187 l 1,5,-1
 160 187 l 1,6,7
 169 79 169 79 268 79 c 0,8,9
 337 79 337 79 414 104 c 1,10,-1
 435 17 l 1,11,12
 403 6 403 6 352 -2.5 c 128,-1,13
 301 -11 301 -11 268 -11 c 0,14,15
 49 -11 49 -11 49 237 c 0,16,0
 49 358 49 358 103 420.5 c 128,-1,1
257 390 m 0,17,18
 210 390 210 390 186.5 362.5 c 128,-1,19
 163 335 163 335 160 271 c 1,20,-1
 345 271 l 1,21,22
 345 390 345 390 257 390 c 0,17,18
97 647 m 128,-1,24
 97 670 97 670 113.5 687 c 128,-1,25
 130 704 130 704 153 704 c 128,-1,26
 176 704 176 704 192.5 687 c 128,-1,27
 209 670 209 670 209 647 c 128,-1,28
 209 624 209 624 193 607 c 128,-1,29
 177 590 177 590 153 590 c 128,-1,30
 129 590 129 590 113 607 c 128,-1,23
 97 624 97 624 97 647 c 128,-1,24
290 647 m 128,-1,32
 290 670 290 670 306 687 c 128,-1,33
 322 704 322 704 346 704 c 128,-1,34
 370 704 370 704 386 687 c 128,-1,35
 402 670 402 670 402 647 c 128,-1,36
 402 624 402 624 386 607 c 128,-1,37
 370 590 370 590 346 590 c 128,-1,38
 322 590 322 590 306 607 c 128,-1,31
 290 624 290 624 290 647 c 128,-1,32
EndSplineSet
Substitution2: "'smcp' Lowercase to Small Capitals in Latin lookup 3 subtable" edieresis.sc
EndChar
StartChar: igrave
Encoding: 236 236 160
Width: 500
GlyphClass: 2
Flags: W
LayerCount: 2
Back
Fore
SplineSet
144 634 m 1,0,-1
 325 735 l 1,1,-1
 368 648 l 1,2,-1
 184 561 l 1,3,-1
 144 634 l 1,0,-1
103 381 m 1,4,-1
 103 473 l 1,5,-1
 317 473 l 1,6,-1
 317 92 l 1,7,-1
 428 92 l 1,8,-1
 428 0 l 1,9,-1
 95 0 l 1,10,-1
 95 92 l 1,11,-1
 214 92 l 1,12,-1
 214 381 l 1,13,-1
 103 381 l 1,4,-1
EndSplineSet
Substitution2: "'smcp' Lowercase to Small Capitals in Latin lookup 3 subtable" igrave.sc
EndChar
StartChar: iacute
Encoding: 237 237 161
Width: 500
GlyphClass: 2
Flags: W
LayerCount: 2
Back
Fore
SplineSet
103 381 m 1,0,-1
 103 473 l 1,1,-1
 317 473 l 1,2,-1
 317 92 l 1,3,-1
 428 92 l 1,4,-1
 428 0 l 1,5,-1
 95 0 l 1,6,-1
 95 92 l 1,7,-1
 214 92 l 1,8,-1
 214 381 l 1,9,-1
 103 381 l 1,0,-1
138 634 m 1,10,-1
 319 735 l 1,11,-1
 362 648 l 1,12,-1
 178 561 l 1,13,-1
 138 634 l 1,10,-1
EndSplineSet
Substitution2: "'smcp' Lowercase to Small Capitals in Latin lookup 3 subtable" iacute.sc
EndChar
StartChar: icircumflex
Encoding: 238 238 162
Width: 500
GlyphClass: 2
Flags: W
LayerCount: 2
Back
Fore
SplineSet
103 381 m 1,0,-1
 103 473 l 1,1,-1
 317 473 l 1,2,-1
 317 92 l 1,3,-1
 428 92 l 1,4,-1
 428 0 l 1,5,-1
 95 0 l 1,6,-1
 95 92 l 1,7,-1
 214 92 l 1,8,-1
 214 381 l 1,9,-1
 103 381 l 1,0,-1
297 745 m 1,10,-1
 405 588 l 1,11,-1
 303 588 l 1,12,-1
 250 674 l 1,13,-1
 197 588 l 1,14,-1
 95 588 l 1,15,-1
 203 745 l 1,16,-1
 297 745 l 1,10,-1
EndSplineSet
Substitution2: "'smcp' Lowercase to Small Capitals in Latin lookup 3 subtable" icircumflex.sc
EndChar
StartChar: idieresis
Encoding: 239 239 163
Width: 500
GlyphClass: 2
Flags: W
LayerCount: 2
Back
Fore
SplineSet
107 647 m 128,-1,1
 107 670 107 670 123.5 687 c 128,-1,2
 140 704 140 704 163 704 c 128,-1,3
 186 704 186 704 202.5 687 c 128,-1,4
 219 670 219 670 219 647 c 128,-1,5
 219 624 219 624 203 607 c 128,-1,6
 187 590 187 590 163 590 c 128,-1,7
 139 590 139 590 123 607 c 128,-1,0
 107 624 107 624 107 647 c 128,-1,1
290 647 m 128,-1,9
 290 670 290 670 306 687 c 128,-1,10
 322 704 322 704 346 704 c 128,-1,11
 370 704 370 704 386 687 c 128,-1,12
 402 670 402 670 402 647 c 128,-1,13
 402 624 402 624 386 607 c 128,-1,14
 370 590 370 590 346 590 c 128,-1,15
 322 590 322 590 306 607 c 128,-1,8
 290 624 290 624 290 647 c 128,-1,9
103 381 m 1,16,-1
 103 473 l 1,17,-1
 317 473 l 1,18,-1
 317 92 l 1,19,-1
 428 92 l 1,20,-1
 428 0 l 1,21,-1
 95 0 l 1,22,-1
 95 92 l 1,23,-1
 214 92 l 1,24,-1
 214 381 l 1,25,-1
 103 381 l 1,16,-1
EndSplineSet
Substitution2: "'smcp' Lowercase to Small Capitals in Latin lookup 3 subtable" idieresis.sc
EndChar
StartChar: eth
Encoding: 240 240 164
Width: 500
GlyphClass: 2
Flags: W
LayerCount: 2
Back
Fore
SplineSet
263 556 m 1,0,-1
 198 498 l 1,1,-1
 146 548 l 1,2,-1
 204 603 l 1,3,4
 171 625 171 625 138 641 c 1,5,-1
 182 716 l 1,6,7
 227 692 227 692 269 663 c 1,8,-1
 331 722 l 1,9,-1
 386 667 l 1,10,-1
 329 615 l 1,11,12
 396 552 396 552 426.5 470.5 c 128,-1,13
 457 389 457 389 457 276 c 0,14,15
 457 122 457 122 407.5 54.5 c 128,-1,16
 358 -13 358 -13 250 -13 c 128,-1,17
 142 -13 142 -13 92 48.5 c 128,-1,18
 42 110 42 110 42 236 c 128,-1,19
 42 362 42 362 92.5 419 c 128,-1,20
 143 476 143 476 250 476 c 0,21,22
 294 476 294 476 329 467 c 1,23,24
 306 514 306 514 263 556 c 1,0,-1
153 236 m 128,-1,26
 153 156 153 156 174 120 c 128,-1,27
 195 84 195 84 250 84 c 128,-1,28
 305 84 305 84 326 120 c 128,-1,29
 347 156 347 156 347 236 c 128,-1,30
 347 316 347 316 326.5 351 c 128,-1,31
 306 386 306 386 250 386 c 128,-1,32
 194 386 194 386 173.5 351 c 128,-1,25
 153 316 153 316 153 236 c 128,-1,26
EndSplineSet
Substitution2: "'smcp' Lowercase to Small Capitals in Latin lookup 3 subtable" eth.sc
Substitution2: "'calt' Contextual Alternates in Latin lookup 0 subtable" eth.calt
EndChar
StartChar: ntilde
Encoding: 241 241 165
Width: 500
GlyphClass: 2
Flags: W
LayerCount: 2
Back
Fore
SplineSet
158 475 m 1,0,-1
 160 446 l 1,1,2
 241 483 241 483 287 483 c 0,3,4
 368 483 368 483 406.5 435.5 c 128,-1,5
 445 388 445 388 445 287 c 2,6,-1
 445 0 l 1,7,-1
 342 0 l 1,8,-1
 342 284 l 2,9,10
 342 332 342 332 325 359 c 128,-1,11
 308 386 308 386 272 386 c 128,-1,12
 236 386 236 386 161 351 c 1,13,-1
 161 0 l 1,14,-1
 58 0 l 1,15,-1
 58 475 l 1,16,-1
 158 475 l 1,0,-1
373 705 m 1,17,-1
 414 649 l 1,18,19
 365 596 365 596 318 596 c 0,20,21
 283 596 283 596 245 618 c 0,22,23
 208 639 208 639 186 639 c 128,-1,24
 164 639 164 639 131 608 c 1,25,-1
 86 663 l 1,26,27
 145 720 145 720 192 720 c 0,28,29
 225 720 225 720 264 699 c 0,30,31
 304 678 304 678 324 678 c 128,-1,32
 344 678 344 678 373 705 c 1,17,-1
EndSplineSet
Substitution2: "'smcp' Lowercase to Small Capitals in Latin lookup 3 subtable" ntilde.sc
EndChar
StartChar: oacute
Encoding: 243 243 167
Width: 500
GlyphClass: 2
Flags: W
LayerCount: 2
Back
Fore
SplineSet
250 483 m 128,-1,1
 356 483 356 483 407 422.5 c 128,-1,2
 458 362 458 362 458 236 c 128,-1,3
 458 110 458 110 407 48.5 c 128,-1,4
 356 -13 356 -13 250 -13 c 128,-1,5
 144 -13 144 -13 93 48.5 c 128,-1,6
 42 110 42 110 42 236 c 128,-1,7
 42 362 42 362 93 422.5 c 128,-1,0
 144 483 144 483 250 483 c 128,-1,1
153 236 m 128,-1,9
 153 156 153 156 174 120 c 128,-1,10
 195 84 195 84 250 84 c 128,-1,11
 305 84 305 84 326 120 c 128,-1,12
 347 156 347 156 347 236 c 128,-1,13
 347 316 347 316 326.5 351 c 128,-1,14
 306 386 306 386 250 386 c 128,-1,15
 194 386 194 386 173.5 351 c 128,-1,8
 153 316 153 316 153 236 c 128,-1,9
141 634 m 1,16,-1
 322 735 l 1,17,-1
 365 648 l 1,18,-1
 181 561 l 1,19,-1
 141 634 l 1,16,-1
EndSplineSet
Substitution2: "'smcp' Lowercase to Small Capitals in Latin lookup 3 subtable" oacute.sc
EndChar
StartChar: ocircumflex
Encoding: 244 244 168
Width: 500
GlyphClass: 2
Flags: W
LayerCount: 2
Back
Fore
SplineSet
250 483 m 128,-1,1
 356 483 356 483 407 422.5 c 128,-1,2
 458 362 458 362 458 236 c 128,-1,3
 458 110 458 110 407 48.5 c 128,-1,4
 356 -13 356 -13 250 -13 c 128,-1,5
 144 -13 144 -13 93 48.5 c 128,-1,6
 42 110 42 110 42 236 c 128,-1,7
 42 362 42 362 93 422.5 c 128,-1,0
 144 483 144 483 250 483 c 128,-1,1
153 236 m 128,-1,9
 153 156 153 156 174 120 c 128,-1,10
 195 84 195 84 250 84 c 128,-1,11
 305 84 305 84 326 120 c 128,-1,12
 347 156 347 156 347 236 c 128,-1,13
 347 316 347 316 326.5 351 c 128,-1,14
 306 386 306 386 250 386 c 128,-1,15
 194 386 194 386 173.5 351 c 128,-1,8
 153 316 153 316 153 236 c 128,-1,9
297 745 m 1,16,-1
 405 588 l 1,17,-1
 303 588 l 1,18,-1
 250 674 l 1,19,-1
 197 588 l 1,20,-1
 95 588 l 1,21,-1
 203 745 l 1,22,-1
 297 745 l 1,16,-1
EndSplineSet
Substitution2: "'smcp' Lowercase to Small Capitals in Latin lookup 3 subtable" ocircumflex.sc
EndChar
StartChar: otilde
Encoding: 245 245 169
Width: 500
GlyphClass: 2
Flags: W
LayerCount: 2
Back
Fore
SplineSet
250 483 m 128,-1,1
 356 483 356 483 407 422.5 c 128,-1,2
 458 362 458 362 458 236 c 128,-1,3
 458 110 458 110 407 48.5 c 128,-1,4
 356 -13 356 -13 250 -13 c 128,-1,5
 144 -13 144 -13 93 48.5 c 128,-1,6
 42 110 42 110 42 236 c 128,-1,7
 42 362 42 362 93 422.5 c 128,-1,0
 144 483 144 483 250 483 c 128,-1,1
153 236 m 128,-1,9
 153 156 153 156 174 120 c 128,-1,10
 195 84 195 84 250 84 c 128,-1,11
 305 84 305 84 326 120 c 128,-1,12
 347 156 347 156 347 236 c 128,-1,13
 347 316 347 316 326.5 351 c 128,-1,14
 306 386 306 386 250 386 c 128,-1,15
 194 386 194 386 173.5 351 c 128,-1,8
 153 316 153 316 153 236 c 128,-1,9
374 705 m 1,16,-1
 415 649 l 1,17,18
 366 596 366 596 319 596 c 0,19,20
 284 596 284 596 246 617.5 c 128,-1,21
 208 639 208 639 186 639 c 128,-1,22
 164 639 164 639 132 608 c 1,23,-1
 87 663 l 1,24,25
 146 720 146 720 193 720 c 0,26,27
 226 720 226 720 265 699 c 128,-1,28
 304 678 304 678 324 678 c 128,-1,29
 344 678 344 678 374 705 c 1,16,-1
EndSplineSet
Substitution2: "'smcp' Lowercase to Small Capitals in Latin lookup 3 subtable" otilde.sc
EndChar
StartChar: divide
Encoding: 247 247 171
Width: 500
GlyphClass: 2
Flags: W
LayerCount: 2
Back
Fore
SplineSet
186 130 m 128,-1,1
 186 160 186 160 202.5 178.5 c 128,-1,2
 219 197 219 197 247 197 c 128,-1,3
 275 197 275 197 291.5 178.5 c 128,-1,4
 308 160 308 160 308 130 c 128,-1,5
 308 100 308 100 292 83.5 c 128,-1,6
 276 67 276 67 247 67 c 128,-1,7
 218 67 218 67 202 83.5 c 128,-1,0
 186 100 186 100 186 130 c 128,-1,1
186 433 m 128,-1,9
 186 463 186 463 202.5 481.5 c 128,-1,10
 219 500 219 500 247 500 c 128,-1,11
 275 500 275 500 291.5 481.5 c 128,-1,12
 308 463 308 463 308 433 c 128,-1,13
 308 403 308 403 292 386.5 c 128,-1,14
 276 370 276 370 247 370 c 128,-1,15
 218 370 218 370 202 386.5 c 128,-1,8
 186 403 186 403 186 433 c 128,-1,9
55 236 m 1,16,-1
 55 332 l 1,17,-1
 445 332 l 1,18,-1
 445 236 l 1,19,-1
 55 236 l 1,16,-1
EndSplineSet
Substitution2: "'calt' Contextual Alternates in Latin lookup 0 subtable" divide.calt
EndChar
StartChar: oslash
Encoding: 248 248 172
Width: 500
GlyphClass: 2
Flags: W
LayerCount: 2
Back
Fore
SplineSet
250 483 m 0,0,1
 300 483 300 483 339 469 c 1,2,-1
 369 521 l 1,3,-1
 435 482 l 1,4,-1
 403 426 l 1,5,6
 458 367 458 367 458 238.5 c 128,-1,7
 458 110 458 110 407 48.5 c 128,-1,8
 356 -13 356 -13 250 -13 c 0,9,10
 203 -13 203 -13 162 0 c 1,11,-1
 133 -50 l 1,12,-1
 68 -11 l 1,13,-1
 98 42 l 1,14,15
 42 102 42 102 42 232 c 128,-1,16
 42 362 42 362 93 422.5 c 128,-1,17
 144 483 144 483 250 483 c 0,0,1
136 236 m 0,18,19
 136 176 136 176 152 138 c 1,20,-1
 294 389 l 1,21,22
 274 398 274 398 250 398 c 0,23,24
 136 398 136 398 136 236 c 0,18,19
335.5 115 m 128,-1,26
 364 158 364 158 364 225 c 128,-1,27
 364 292 364 292 349 330 c 1,28,-1
 207 80 l 1,29,30
 226 72 226 72 250 72 c 0,31,25
 307 72 307 72 335.5 115 c 128,-1,26
EndSplineSet
Substitution2: "'smcp' Lowercase to Small Capitals in Latin lookup 3 subtable" oslash.sc
EndChar
StartChar: udieresis
Encoding: 252 252 176
Width: 500
GlyphClass: 2
Flags: W
LayerCount: 2
Back
Fore
SplineSet
344 0 m 1,0,-1
 342 29 l 2,1,2
 339 28 339 28 323.5 20.5 c 128,-1,3
 308 13 308 13 304 11.5 c 128,-1,4
 300 10 300 10 288 4 c 0,5,6
 274 0 274 0 268 -2 c 2,7,-1
 252 -6 l 2,8,9
 233 -10 233 -10 211 -11 c 0,10,11
 130 -11 130 -11 93 36 c 128,-1,12
 56 83 56 83 56 185 c 2,13,-1
 56 475 l 1,14,-1
 159 475 l 1,15,-1
 159 191 l 2,16,17
 159 140 159 140 173 114.5 c 128,-1,18
 187 89 187 89 222 89 c 128,-1,19
 257 89 257 89 293.5 103.5 c 128,-1,20
 330 118 330 118 341 128 c 1,21,-1
 341 475 l 1,22,-1
 444 475 l 1,23,-1
 444 0 l 1,24,-1
 344 0 l 1,0,-1
97 647 m 128,-1,26
 97 670 97 670 113.5 687 c 128,-1,27
 130 704 130 704 153 704 c 128,-1,28
 176 704 176 704 192.5 687 c 128,-1,29
 209 670 209 670 209 647 c 128,-1,30
 209 624 209 624 193 607 c 128,-1,31
 177 590 177 590 153 590 c 128,-1,32
 129 590 129 590 113 607 c 128,-1,25
 97 624 97 624 97 647 c 128,-1,26
290 647 m 128,-1,34
 290 670 290 670 306 687 c 128,-1,35
 322 704 322 704 346 704 c 128,-1,36
 370 704 370 704 386 687 c 128,-1,37
 402 670 402 670 402 647 c 128,-1,38
 402 624 402 624 386 607 c 128,-1,39
 370 590 370 590 346 590 c 128,-1,40
 322 590 322 590 306 607 c 128,-1,33
 290 624 290 624 290 647 c 128,-1,34
EndSplineSet
Substitution2: "'smcp' Lowercase to Small Capitals in Latin lookup 3 subtable" udieresis.sc
EndChar
StartChar: thorn
Encoding: 254 254 178
Width: 500
GlyphClass: 2
Flags: W
LayerCount: 2
Back
Fore
SplineSet
57 -192 m 1,0,-1
 57 655 l 1,1,-1
 157 655 l 1,2,-1
 157 438 l 1,3,4
 224 483 224 483 276 483 c 0,5,6
 378 483 378 483 425.5 423.5 c 128,-1,7
 473 364 473 364 473 239 c 128,-1,8
 473 114 473 114 414.5 51.5 c 128,-1,9
 356 -11 356 -11 249 -11 c 0,10,11
 213 -11 213 -11 160 10 c 1,12,-1
 160 -192 l 1,13,-1
 57 -192 l 1,0,-1
272 387 m 0,14,15
 226 387 226 387 160 343 c 1,16,-1
 160 105 l 1,17,18
 208 84 208 84 247 84 c 0,19,20
 362 84 362 84 362 236 c 128,-1,21
 362 388 362 388 272 387 c 0,14,15
EndSplineSet
Substitution2: "'smcp' Lowercase to Small Capitals in Latin lookup 3 subtable" thorn.sc
EndChar
StartChar: ydieresis
Encoding: 255 255 179
Width: 500
GlyphClass: 2
Flags: W
LayerCount: 2
Back
Fore
SplineSet
29 475 m 1,0,-1
 141 475 l 1,1,-1
 256 89 l 1,2,-1
 264 89 l 1,3,-1
 361 475 l 1,4,-1
 470 475 l 1,5,-1
 338 12 l 2,6,7
 317 -62 317 -62 299 -101.5 c 128,-1,8
 281 -141 281 -141 249 -166 c 128,-1,9
 217 -191 217 -191 178 -198 c 128,-1,10
 139 -205 139 -205 68 -206 c 1,11,-1
 68 -113 l 1,12,13
 129 -113 129 -113 158 -100 c 128,-1,14
 187 -87 187 -87 198 -59 c 2,15,-1
 204 -44 l 1,16,-1
 29 475 l 1,0,-1
97 647 m 128,-1,18
 97 670 97 670 113.5 687 c 128,-1,19
 130 704 130 704 153 704 c 128,-1,20
 176 704 176 704 192.5 687 c 128,-1,21
 209 670 209 670 209 647 c 128,-1,22
 209 624 209 624 193 607 c 128,-1,23
 177 590 177 590 153 590 c 128,-1,24
 129 590 129 590 113 607 c 128,-1,17
 97 624 97 624 97 647 c 128,-1,18
290 647 m 128,-1,26
 290 670 290 670 306 687 c 128,-1,27
 322 704 322 704 346 704 c 128,-1,28
 370 704 370 704 386 687 c 128,-1,29
 402 670 402 670 402 647 c 128,-1,30
 402 624 402 624 386 607 c 128,-1,31
 370 590 370 590 346 590 c 128,-1,32
 322 590 322 590 306 607 c 128,-1,25
 290 624 290 624 290 647 c 128,-1,26
EndSplineSet
Substitution2: "'smcp' Lowercase to Small Capitals in Latin lookup 3 subtable" ydieresis.sc
EndChar
StartChar: Amacron
Encoding: 256 256 180
Width: 500
GlyphClass: 2
Flags: W
LayerCount: 2
Back
Fore
SplineSet
84 853 m 1,0,-1
 417 853 l 1,1,-1
 417 771 l 1,2,-1
 84 771 l 1,3,-1
 84 853 l 1,0,-1
0 0 m 1,4,-1
 159 655 l 1,5,-1
 346 655 l 1,6,-1
 500 0 l 1,7,-1
 390 0 l 1,8,-1
 359 125 l 1,9,-1
 137 125 l 1,10,-1
 108 0 l 1,11,-1
 0 0 l 1,4,-1
337 218 m 1,12,-1
 263 562 l 1,13,-1
 241 562 l 1,14,-1
 158 218 l 1,15,-1
 337 218 l 1,12,-1
EndSplineSet
EndChar
StartChar: Abreve
Encoding: 258 258 182
Width: 500
GlyphClass: 2
Flags: W
LayerCount: 2
Back
Fore
SplineSet
250 754 m 128,-1,1
 115 754 115 754 107 875 c 1,2,-1
 181 875 l 1,3,4
 186 845 186 845 203 833 c 128,-1,5
 220 821 220 821 250 821 c 128,-1,6
 280 821 280 821 297 833 c 128,-1,7
 314 845 314 845 319 875 c 1,8,-1
 393 875 l 1,9,0
 385 754 385 754 250 754 c 128,-1,1
0 0 m 1,10,-1
 159 655 l 1,11,-1
 346 655 l 1,12,-1
 500 0 l 1,13,-1
 390 0 l 1,14,-1
 359 125 l 1,15,-1
 137 125 l 1,16,-1
 108 0 l 1,17,-1
 0 0 l 1,10,-1
337 218 m 1,18,-1
 263 562 l 1,19,-1
 241 562 l 1,20,-1
 158 218 l 1,21,-1
 337 218 l 1,18,-1
EndSplineSet
EndChar
StartChar: abreve
Encoding: 259 259 183
Width: 500
GlyphClass: 2
Flags: W
LayerCount: 2
Back
Fore
SplineSet
216 86 m 0,0,1
 244 86 244 86 278 99 c 128,-1,2
 312 112 312 112 332 128 c 1,3,-1
 332 198 l 1,4,5
 272 203 272 203 234 203 c 0,6,7
 151 203 151 203 151 141 c 0,8,9
 151 86 151 86 216 86 c 0,0,1
200 -11 m 0,10,11
 40 -11 40 -11 40 141 c 0,12,13
 40 222 40 222 91.5 254.5 c 128,-1,14
 143 287 143 287 234 287 c 0,15,16
 277 287 277 287 332 282 c 1,17,18
 332 342 332 342 315 364 c 128,-1,19
 298 386 298 386 256 386 c 128,-1,20
 214 386 214 386 158 376 c 128,-1,21
 102 366 102 366 72 356 c 1,22,-1
 53 451 l 1,23,24
 158 483 158 483 258 483 c 128,-1,25
 358 483 358 483 396.5 439 c 128,-1,26
 435 395 435 395 435 290 c 2,27,-1
 435 87 l 1,28,-1
 446 -1 l 1,29,-1
 343 -11 l 1,30,-1
 333 35 l 1,31,32
 249 -11 249 -11 200 -11 c 0,10,11
250 579 m 128,-1,34
 115 579 115 579 107 700 c 1,35,-1
 181 700 l 1,36,37
 186 670 186 670 203 658 c 128,-1,38
 220 646 220 646 250 646 c 128,-1,39
 280 646 280 646 297 658 c 128,-1,40
 314 670 314 670 319 700 c 1,41,-1
 393 700 l 1,42,33
 385 579 385 579 250 579 c 128,-1,34
EndSplineSet
Substitution2: "'smcp' Lowercase to Small Capitals in Latin lookup 3 subtable" abreve.sc
EndChar
StartChar: Aogonek
Encoding: 260 260 184
Width: 500
GlyphClass: 2
Flags: W
LayerCount: 2
Back
Fore
SplineSet
305 -135 m 0,0,1
 305 -91 305 -91 339.5 -48.5 c 128,-1,2
 374 -6 374 -6 465 47 c 1,3,-1
 502 0 l 1,4,5
 437 -49 437 -49 414.5 -78.5 c 128,-1,6
 392 -108 392 -108 392 -134 c 128,-1,7
 392 -160 392 -160 404 -176 c 128,-1,8
 416 -192 416 -192 442 -192 c 128,-1,9
 468 -192 468 -192 491 -188 c 1,10,-1
 501 -263 l 1,11,12
 457 -270 457 -270 430 -270 c 0,13,14
 380 -270 380 -270 342.5 -236.5 c 128,-1,15
 305 -203 305 -203 305 -135 c 0,0,1
0 0 m 1,16,-1
 159 655 l 1,17,-1
 346 655 l 1,18,-1
 500 0 l 1,19,-1
 390 0 l 1,20,-1
 359 125 l 1,21,-1
 137 125 l 1,22,-1
 108 0 l 1,23,-1
 0 0 l 1,16,-1
337 218 m 1,24,-1
 263 562 l 1,25,-1
 241 562 l 1,26,-1
 158 218 l 1,27,-1
 337 218 l 1,24,-1
EndSplineSet
EndChar
StartChar: aogonek
Encoding: 261 261 185
Width: 500
GlyphClass: 2
Flags: W
LayerCount: 2
Back
Fore
SplineSet
200 -11 m 0,0,1
 40 -11 40 -11 40 141 c 0,2,3
 40 222 40 222 91.5 254.5 c 128,-1,4
 143 287 143 287 234 287 c 0,5,6
 277 287 277 287 332 282 c 1,7,8
 332 342 332 342 315 364 c 128,-1,9
 298 386 298 386 256 386 c 128,-1,10
 214 386 214 386 158 376 c 128,-1,11
 102 366 102 366 72 356 c 1,12,-1
 53 451 l 1,13,14
 158 483 158 483 258 483 c 128,-1,15
 358 483 358 483 396.5 439 c 128,-1,16
 435 395 435 395 435 290 c 2,17,-1
 435 87 l 1,18,-1
 446 -1 l 1,19,20
 380 -50 380 -50 358 -79 c 128,-1,21
 336 -108 336 -108 336 -134 c 128,-1,22
 336 -160 336 -160 348 -176 c 128,-1,23
 360 -192 360 -192 386 -192 c 128,-1,24
 412 -192 412 -192 435 -188 c 1,25,-1
 445 -263 l 1,26,27
 401 -270 401 -270 374 -270 c 0,28,29
 324 -270 324 -270 286.5 -236.5 c 128,-1,30
 249 -203 249 -203 249 -135 c 128,-1,31
 249 -67 249 -67 340 0 c 1,32,-1
 333 35 l 1,33,34
 249 -11 249 -11 200 -11 c 0,0,1
216 86 m 0,35,36
 244 86 244 86 278 99 c 128,-1,37
 312 112 312 112 332 128 c 1,38,-1
 332 198 l 1,39,40
 272 203 272 203 234 203 c 0,41,42
 151 203 151 203 151 141 c 0,43,44
 151 86 151 86 216 86 c 0,35,36
EndSplineSet
Substitution2: "'smcp' Lowercase to Small Capitals in Latin lookup 3 subtable" aogonek.sc
EndChar
StartChar: Cacute
Encoding: 262 262 186
Width: 500
GlyphClass: 2
Flags: W
LayerCount: 2
Back
Fore
SplineSet
156 812 m 1,0,-1
 361 900 l 1,1,-1
 395 818 l 1,2,-1
 189 734 l 1,3,-1
 156 812 l 1,0,-1
446 107 m 1,4,-1
 464 20 l 1,5,6
 362 -10 362 -10 292.5 -10 c 128,-1,7
 223 -10 223 -10 180.5 6 c 128,-1,8
 138 22 138 22 106 60 c 0,9,10
 40 137 40 137 40 334 c 0,11,12
 40 665 40 665 282 665 c 0,13,14
 366 665 366 665 451 636 c 1,15,-1
 429 551 l 1,16,17
 351 572 351 572 283.5 572 c 128,-1,18
 216 572 216 572 181 520 c 128,-1,19
 146 468 146 468 146 331.5 c 128,-1,20
 146 195 146 195 174.5 138.5 c 128,-1,21
 203 82 203 82 280.5 82 c 128,-1,22
 358 82 358 82 446 107 c 1,4,-1
EndSplineSet
EndChar
StartChar: Ccircumflex
Encoding: 264 264 188
Width: 500
GlyphClass: 2
Flags: W
LayerCount: 2
Back
Fore
SplineSet
102 752 m 1,0,-1
 228 882 l 1,1,-1
 308 882 l 1,2,-1
 434 752 l 1,3,-1
 336 752 l 1,4,-1
 268 822 l 1,5,-1
 200 752 l 1,6,-1
 102 752 l 1,0,-1
446 107 m 1,7,-1
 464 20 l 1,8,9
 362 -10 362 -10 292.5 -10 c 128,-1,10
 223 -10 223 -10 180.5 6 c 128,-1,11
 138 22 138 22 106 60 c 0,12,13
 40 137 40 137 40 334 c 0,14,15
 40 665 40 665 282 665 c 0,16,17
 366 665 366 665 451 636 c 1,18,-1
 429 551 l 1,19,20
 351 572 351 572 283.5 572 c 128,-1,21
 216 572 216 572 181 520 c 128,-1,22
 146 468 146 468 146 331.5 c 128,-1,23
 146 195 146 195 174.5 138.5 c 128,-1,24
 203 82 203 82 280.5 82 c 128,-1,25
 358 82 358 82 446 107 c 1,7,-1
EndSplineSet
EndChar
StartChar: Cdotaccent
Encoding: 266 266 190
Width: 500
GlyphClass: 2
Flags: W
LayerCount: 2
Back
Fore
SplineSet
224 812 m 128,-1,1
 224 835 224 835 240 852 c 128,-1,2
 256 869 256 869 280 869 c 128,-1,3
 304 869 304 869 320 852 c 128,-1,4
 336 835 336 835 336 812 c 128,-1,5
 336 789 336 789 320 772 c 128,-1,6
 304 755 304 755 280 755 c 128,-1,7
 256 755 256 755 240 772 c 128,-1,0
 224 789 224 789 224 812 c 128,-1,1
446 107 m 1,8,-1
 464 20 l 1,9,10
 362 -10 362 -10 292.5 -10 c 128,-1,11
 223 -10 223 -10 180.5 6 c 128,-1,12
 138 22 138 22 106 60 c 0,13,14
 40 137 40 137 40 334 c 0,15,16
 40 665 40 665 282 665 c 0,17,18
 366 665 366 665 451 636 c 1,19,-1
 429 551 l 1,20,21
 351 572 351 572 283.5 572 c 128,-1,22
 216 572 216 572 181 520 c 128,-1,23
 146 468 146 468 146 331.5 c 128,-1,24
 146 195 146 195 174.5 138.5 c 128,-1,25
 203 82 203 82 280.5 82 c 128,-1,26
 358 82 358 82 446 107 c 1,8,-1
EndSplineSet
EndChar
StartChar: cdotaccent
Encoding: 267 267 191
Width: 500
GlyphClass: 2
Flags: W
LayerCount: 2
Back
Fore
SplineSet
326 302 m 1,0,-1
 326 384 l 1,1,2
 303 388 303 388 281 388 c 0,3,4
 219 388 219 388 194.5 352 c 128,-1,5
 170 316 170 316 170 238 c 128,-1,6
 170 160 170 160 195.5 122.5 c 128,-1,7
 221 85 221 85 285 85 c 128,-1,8
 349 85 349 85 416 103 c 1,9,-1
 431 7 l 1,10,11
 361 -13 361 -13 281 -13 c 0,12,13
 59 -13 59 -13 59 237 c 0,14,15
 59 366 59 366 109.5 425.5 c 128,-1,16
 160 485 160 485 278 485 c 0,17,18
 354 485 354 485 424 466 c 1,19,-1
 424 302 l 1,20,-1
 326 302 l 1,0,-1
204 647 m 128,-1,22
 204 670 204 670 220 687 c 128,-1,23
 236 704 236 704 260 704 c 128,-1,24
 284 704 284 704 300 687 c 128,-1,25
 316 670 316 670 316 647 c 128,-1,26
 316 624 316 624 300 607 c 128,-1,27
 284 590 284 590 260 590 c 128,-1,28
 236 590 236 590 220 607 c 128,-1,21
 204 624 204 624 204 647 c 128,-1,22
EndSplineSet
Substitution2: "'smcp' Lowercase to Small Capitals in Latin lookup 3 subtable" cdotaccent.sc
EndChar
StartChar: ccaron
Encoding: 269 269 193
Width: 500
GlyphClass: 2
Flags: W
LayerCount: 2
Back
Fore
SplineSet
326 302 m 1,0,-1
 326 384 l 1,1,2
 303 388 303 388 281 388 c 0,3,4
 219 388 219 388 194.5 352 c 128,-1,5
 170 316 170 316 170 238 c 128,-1,6
 170 160 170 160 195.5 122.5 c 128,-1,7
 221 85 221 85 285 85 c 128,-1,8
 349 85 349 85 416 103 c 1,9,-1
 431 7 l 1,10,11
 361 -13 361 -13 281 -13 c 0,12,13
 59 -13 59 -13 59 237 c 0,14,15
 59 366 59 366 109.5 425.5 c 128,-1,16
 160 485 160 485 278 485 c 0,17,18
 354 485 354 485 424 466 c 1,19,-1
 424 302 l 1,20,-1
 326 302 l 1,0,-1
446 722 m 1,21,-1
 320 592 l 1,22,-1
 240 592 l 1,23,-1
 114 722 l 1,24,-1
 212 722 l 1,25,-1
 280 652 l 1,26,-1
 348 722 l 1,27,-1
 446 722 l 1,21,-1
EndSplineSet
Substitution2: "'smcp' Lowercase to Small Capitals in Latin lookup 3 subtable" ccaron.sc
EndChar
StartChar: Dcaron
Encoding: 270 270 194
Width: 500
GlyphClass: 2
Flags: W
LayerCount: 2
Back
Fore
SplineSet
394 882 m 1,0,-1
 268 752 l 1,1,-1
 188 752 l 1,2,-1
 62 882 l 1,3,-1
 160 882 l 1,4,-1
 228 812 l 1,5,-1
 296 882 l 1,6,-1
 394 882 l 1,0,-1
38 0 m 1,7,-1
 38 655 l 1,8,-1
 194 655 l 2,9,10
 273 655 273 655 321.5 642 c 128,-1,11
 370 629 370 629 404 593 c 128,-1,12
 438 557 438 557 452 493.5 c 128,-1,13
 466 430 466 430 466 313.5 c 128,-1,14
 466 197 466 197 437.5 126 c 128,-1,15
 409 55 409 55 352 27.5 c 128,-1,16
 295 0 295 0 192 0 c 2,17,-1
 38 0 l 1,7,-1
351.5 204.5 m 128,-1,19
 360 250 360 250 360 328.5 c 128,-1,20
 360 407 360 407 353 452 c 128,-1,21
 346 497 346 497 323.5 523.5 c 128,-1,22
 301 550 301 550 268 557.5 c 128,-1,23
 235 565 235 565 174 565 c 2,24,-1
 142 565 l 1,25,-1
 142 90 l 1,26,-1
 172 90 l 2,27,28
 230 90 230 90 263.5 98.5 c 128,-1,29
 297 107 297 107 320 133 c 128,-1,18
 343 159 343 159 351.5 204.5 c 128,-1,19
EndSplineSet
EndChar
StartChar: dcaron
Encoding: 271 271 195
Width: 500
GlyphClass: 2
Flags: W
LayerCount: 2
Back
Fore
SplineSet
376 667 m 1,0,-1
 376 83 l 1,1,-1
 385 0 l 1,2,-1
 284 -10 l 1,3,-1
 276 36 l 1,4,5
 255 18 255 18 246 11.5 c 128,-1,6
 237 5 237 5 217 -3 c 128,-1,7
 197 -11 197 -11 176 -11 c 0,8,9
 94 -11 94 -11 55 43 c 128,-1,10
 16 97 16 97 16 227.5 c 128,-1,11
 16 358 16 358 63.5 420.5 c 128,-1,12
 111 483 111 483 192 483 c 0,13,14
 225 483 225 483 275 460 c 1,15,-1
 275 667 l 1,16,-1
 376 667 l 1,0,-1
226 96.5 m 128,-1,18
 241 108 241 108 245 112 c 2,19,-1
 260 125 l 2,20,21
 271 135 271 135 275 139 c 1,22,-1
 275 362 l 1,23,24
 227 387 227 387 197 387 c 0,25,26
 152 387 152 387 134 349 c 128,-1,27
 116 311 116 311 116 235.5 c 128,-1,28
 116 160 116 160 129.5 122.5 c 128,-1,29
 143 85 143 85 177 85 c 128,-1,17
 211 85 211 85 226 96.5 c 128,-1,18
410 588 m 1,30,-1
 410 687 l 1,31,-1
 499 687 l 1,32,-1
 499 617 l 2,33,34
 499 577 499 577 484 544 c 128,-1,35
 469 511 469 511 431 473 c 1,36,-1
 404 498 l 1,37,38
 427 528 427 528 435.5 545.5 c 128,-1,39
 444 563 444 563 446 588 c 1,40,-1
 410 588 l 1,30,-1
EndSplineSet
Substitution2: "'smcp' Lowercase to Small Capitals in Latin lookup 3 subtable" dcaron.sc
EndChar
StartChar: Dcroat
Encoding: 272 272 196
Width: 500
GlyphClass: 2
Flags: W
LayerCount: 2
Back
Fore
SplineSet
44 0 m 1,0,-1
 44 294 l 1,1,-1
 0 294 l 1,2,-1
 0 378 l 1,3,-1
 44 378 l 1,4,-1
 44 655 l 1,5,-1
 199 655 l 2,6,7
 274 655 274 655 321.5 642 c 128,-1,8
 369 629 369 629 404.5 593 c 128,-1,9
 440 557 440 557 455.5 492.5 c 128,-1,10
 471 428 471 428 471 327.5 c 128,-1,11
 471 227 471 227 454 161.5 c 128,-1,12
 437 96 437 96 399.5 61 c 128,-1,13
 362 26 362 26 315 13 c 128,-1,14
 268 0 268 0 197 0 c 2,15,-1
 44 0 l 1,0,-1
179 565 m 2,16,-1
 143 565 l 1,17,-1
 143 378 l 1,18,-1
 266 378 l 1,19,-1
 266 294 l 1,20,-1
 143 294 l 1,21,-1
 143 90 l 1,22,-1
 177 90 l 2,23,24
 183 90 183 90 200.5 89.5 c 128,-1,25
 218 89 218 89 230.5 89.5 c 128,-1,26
 243 90 243 90 264.5 94.5 c 128,-1,27
 286 99 286 99 298 107 c 128,-1,28
 310 115 310 115 326 132.5 c 128,-1,29
 342 150 342 150 350 174 c 0,30,31
 370 235 370 235 370 302.5 c 128,-1,32
 370 370 370 370 366 405.5 c 128,-1,33
 362 441 362 441 354.5 465.5 c 128,-1,34
 347 490 347 490 336.5 508 c 128,-1,35
 326 526 326 526 313.5 536.5 c 128,-1,36
 301 547 301 547 286 554 c 0,37,38
 272 560 272 560 257 562 c 0,39,40
 218 566 218 566 201 565.5 c 128,-1,41
 184 565 184 565 179 565 c 2,16,-1
EndSplineSet
EndChar
StartChar: dcroat
Encoding: 273 273 197
Width: 500
GlyphClass: 2
Flags: W
LayerCount: 2
Back
Fore
SplineSet
227 602 m 1,0,-1
 500 602 l 1,1,-1
 500 529 l 1,2,-1
 227 529 l 1,3,-1
 227 602 l 1,0,-1
456 667 m 1,4,-1
 456 83 l 1,5,-1
 466 0 l 1,6,-1
 365 -10 l 1,7,-1
 356 36 l 1,8,9
 291 -11 291 -11 229 -11 c 0,10,11
 136 -11 136 -11 89 43.5 c 128,-1,12
 42 98 42 98 42 228 c 128,-1,13
 42 358 42 358 99 420.5 c 128,-1,14
 156 483 156 483 247 483 c 0,15,16
 300 483 300 483 354 460 c 1,17,-1
 354 667 l 1,18,-1
 456 667 l 1,4,-1
236 85 m 0,19,20
 289 85 289 85 354 139 c 1,21,-1
 354 362 l 1,22,23
 302 387 302 387 252 387 c 0,24,25
 153 387 153 387 153 228 c 0,26,27
 153 85 153 85 236 85 c 0,19,20
EndSplineSet
Substitution2: "'smcp' Lowercase to Small Capitals in Latin lookup 3 subtable" dcroat.sc
EndChar
StartChar: Emacron
Encoding: 274 274 198
Width: 500
GlyphClass: 2
Flags: W
LayerCount: 2
Back
Fore
SplineSet
84 853 m 1,0,-1
 417 853 l 1,1,-1
 417 771 l 1,2,-1
 84 771 l 1,3,-1
 84 853 l 1,0,-1
60 0 m 1,4,-1
 60 655 l 1,5,-1
 443 655 l 1,6,-1
 443 561 l 1,7,-1
 164 561 l 1,8,-1
 164 379 l 1,9,-1
 416 379 l 1,10,-1
 416 289 l 1,11,-1
 164 289 l 1,12,-1
 164 94 l 1,13,-1
 446 94 l 1,14,-1
 446 0 l 1,15,-1
 60 0 l 1,4,-1
EndSplineSet
EndChar
StartChar: Ebreve
Encoding: 276 276 200
Width: 500
GlyphClass: 2
Flags: W
LayerCount: 2
Back
Fore
SplineSet
250 754 m 128,-1,1
 115 754 115 754 107 875 c 1,2,-1
 181 875 l 1,3,4
 186 845 186 845 203 833 c 128,-1,5
 220 821 220 821 250 821 c 128,-1,6
 280 821 280 821 297 833 c 128,-1,7
 314 845 314 845 319 875 c 1,8,-1
 393 875 l 1,9,0
 385 754 385 754 250 754 c 128,-1,1
60 0 m 1,10,-1
 60 655 l 1,11,-1
 443 655 l 1,12,-1
 443 561 l 1,13,-1
 164 561 l 1,14,-1
 164 379 l 1,15,-1
 416 379 l 1,16,-1
 416 289 l 1,17,-1
 164 289 l 1,18,-1
 164 94 l 1,19,-1
 446 94 l 1,20,-1
 446 0 l 1,21,-1
 60 0 l 1,10,-1
EndSplineSet
EndChar
StartChar: ebreve
Encoding: 277 277 201
Width: 500
GlyphClass: 2
Flags: W
LayerCount: 2
Back
Fore
SplineSet
103 420.5 m 128,-1,1
 157 483 157 483 253 483 c 128,-1,2
 349 483 349 483 401.5 426.5 c 128,-1,3
 454 370 454 370 456 261 c 1,4,-1
 452 187 l 1,5,-1
 160 187 l 1,6,7
 169 79 169 79 268 79 c 0,8,9
 337 79 337 79 414 104 c 1,10,-1
 435 17 l 1,11,12
 403 6 403 6 352 -2.5 c 128,-1,13
 301 -11 301 -11 268 -11 c 0,14,15
 49 -11 49 -11 49 237 c 0,16,0
 49 358 49 358 103 420.5 c 128,-1,1
257 390 m 0,17,18
 210 390 210 390 186.5 362.5 c 128,-1,19
 163 335 163 335 160 271 c 1,20,-1
 345 271 l 1,21,22
 345 390 345 390 257 390 c 0,17,18
250 579 m 128,-1,24
 115 579 115 579 107 700 c 1,25,-1
 181 700 l 1,26,27
 186 670 186 670 203 658 c 128,-1,28
 220 646 220 646 250 646 c 128,-1,29
 280 646 280 646 297 658 c 128,-1,30
 314 670 314 670 319 700 c 1,31,-1
 393 700 l 1,32,23
 385 579 385 579 250 579 c 128,-1,24
EndSplineSet
Substitution2: "'smcp' Lowercase to Small Capitals in Latin lookup 3 subtable" ebreve.sc
EndChar
StartChar: Edotaccent
Encoding: 278 278 202
Width: 500
GlyphClass: 2
Flags: W
LayerCount: 2
Back
Fore
SplineSet
194 812 m 128,-1,1
 194 835 194 835 210 852 c 128,-1,2
 226 869 226 869 250 869 c 128,-1,3
 274 869 274 869 290 852 c 128,-1,4
 306 835 306 835 306 812 c 128,-1,5
 306 789 306 789 290 772 c 128,-1,6
 274 755 274 755 250 755 c 128,-1,7
 226 755 226 755 210 772 c 128,-1,0
 194 789 194 789 194 812 c 128,-1,1
60 0 m 1,8,-1
 60 655 l 1,9,-1
 443 655 l 1,10,-1
 443 561 l 1,11,-1
 164 561 l 1,12,-1
 164 379 l 1,13,-1
 416 379 l 1,14,-1
 416 289 l 1,15,-1
 164 289 l 1,16,-1
 164 94 l 1,17,-1
 446 94 l 1,18,-1
 446 0 l 1,19,-1
 60 0 l 1,8,-1
EndSplineSet
EndChar
StartChar: edotaccent
Encoding: 279 279 203
Width: 500
GlyphClass: 2
Flags: W
LayerCount: 2
Back
Fore
SplineSet
103 420.5 m 128,-1,1
 157 483 157 483 253 483 c 128,-1,2
 349 483 349 483 401.5 426.5 c 128,-1,3
 454 370 454 370 456 261 c 1,4,-1
 452 187 l 1,5,-1
 160 187 l 1,6,7
 169 79 169 79 268 79 c 0,8,9
 337 79 337 79 414 104 c 1,10,-1
 435 17 l 1,11,12
 403 6 403 6 352 -2.5 c 128,-1,13
 301 -11 301 -11 268 -11 c 0,14,15
 49 -11 49 -11 49 237 c 0,16,0
 49 358 49 358 103 420.5 c 128,-1,1
257 390 m 0,17,18
 210 390 210 390 186.5 362.5 c 128,-1,19
 163 335 163 335 160 271 c 1,20,-1
 345 271 l 1,21,22
 345 390 345 390 257 390 c 0,17,18
194 647 m 128,-1,24
 194 670 194 670 210 687 c 128,-1,25
 226 704 226 704 250 704 c 128,-1,26
 274 704 274 704 290 687 c 128,-1,27
 306 670 306 670 306 647 c 128,-1,28
 306 624 306 624 290 607 c 128,-1,29
 274 590 274 590 250 590 c 128,-1,30
 226 590 226 590 210 607 c 128,-1,23
 194 624 194 624 194 647 c 128,-1,24
EndSplineSet
Substitution2: "'smcp' Lowercase to Small Capitals in Latin lookup 3 subtable" edotaccent.sc
EndChar
StartChar: Eogonek
Encoding: 280 280 204
Width: 500
GlyphClass: 2
Flags: W
LayerCount: 2
Back
Fore
SplineSet
249 -134 m 0,0,1
 249 -93 249 -93 272.5 -56.5 c 128,-1,2
 296 -20 296 -20 340 0 c 1,3,-1
 409 49 l 1,4,-1
 446 0 l 1,5,-1
 396 -38 l 2,6,7
 336 -82 336 -82 336 -136 c 0,8,9
 336 -158 336 -158 348 -174.5 c 128,-1,10
 360 -191 360 -191 386 -191 c 128,-1,11
 412 -191 412 -191 435 -187 c 1,12,-1
 445 -262 l 1,13,14
 401 -269 401 -269 374 -269 c 0,15,16
 324 -269 324 -269 286.5 -235.5 c 128,-1,17
 249 -202 249 -202 249 -134 c 0,0,1
60 0 m 1,18,-1
 60 655 l 1,19,-1
 443 655 l 1,20,-1
 443 561 l 1,21,-1
 164 561 l 1,22,-1
 164 379 l 1,23,-1
 416 379 l 1,24,-1
 416 289 l 1,25,-1
 164 289 l 1,26,-1
 164 94 l 1,27,-1
 446 94 l 1,28,-1
 446 0 l 1,29,-1
 60 0 l 1,18,-1
EndSplineSet
EndChar
StartChar: eogonek
Encoding: 281 281 205
Width: 500
GlyphClass: 2
Flags: W
LayerCount: 2
Back
Fore
SplineSet
103 420.5 m 128,-1,1
 157 483 157 483 253 483 c 128,-1,2
 349 483 349 483 401.5 426.5 c 128,-1,3
 454 370 454 370 456 261 c 1,4,-1
 452 187 l 1,5,-1
 160 187 l 1,6,7
 169 79 169 79 268 79 c 0,8,9
 337 79 337 79 414 104 c 1,10,-1
 435 17 l 1,11,12
 353 -44 353 -44 326.5 -75.5 c 128,-1,13
 300 -107 300 -107 300.5 -132.5 c 128,-1,14
 301 -158 301 -158 313 -174.5 c 128,-1,15
 325 -191 325 -191 351.5 -191 c 128,-1,16
 378 -191 378 -191 400 -187 c 1,17,-1
 410 -262 l 1,18,19
 366 -269 366 -269 339 -269 c 0,20,21
 289 -269 289 -269 251.5 -235.5 c 128,-1,22
 214 -202 214 -202 214 -128 c 128,-1,23
 214 -54 214 -54 283 -10 c 1,24,25
 277 -11 277 -11 268 -11 c 0,26,27
 49 -11 49 -11 49 237 c 0,28,0
 49 358 49 358 103 420.5 c 128,-1,1
257 390 m 0,29,30
 210 390 210 390 186.5 362.5 c 128,-1,31
 163 335 163 335 160 271 c 1,32,-1
 345 271 l 1,33,34
 345 390 345 390 257 390 c 0,29,30
EndSplineSet
Substitution2: "'smcp' Lowercase to Small Capitals in Latin lookup 3 subtable" eogonek.sc
EndChar
StartChar: Ecaron
Encoding: 282 282 206
Width: 500
GlyphClass: 2
Flags: W
LayerCount: 2
Back
Fore
SplineSet
419 882 m 1,0,-1
 293 752 l 1,1,-1
 213 752 l 1,2,-1
 87 882 l 1,3,-1
 185 882 l 1,4,-1
 253 812 l 1,5,-1
 321 882 l 1,6,-1
 419 882 l 1,0,-1
60 0 m 1,7,-1
 60 655 l 1,8,-1
 443 655 l 1,9,-1
 443 561 l 1,10,-1
 164 561 l 1,11,-1
 164 379 l 1,12,-1
 416 379 l 1,13,-1
 416 289 l 1,14,-1
 164 289 l 1,15,-1
 164 94 l 1,16,-1
 446 94 l 1,17,-1
 446 0 l 1,18,-1
 60 0 l 1,7,-1
EndSplineSet
EndChar
StartChar: Gcircumflex
Encoding: 284 284 208
Width: 500
GlyphClass: 2
Flags: W
LayerCount: 2
Back
Fore
SplineSet
97 752 m 1,0,-1
 223 882 l 1,1,-1
 303 882 l 1,2,-1
 429 752 l 1,3,-1
 331 752 l 1,4,-1
 263 822 l 1,5,-1
 195 752 l 1,6,-1
 97 752 l 1,0,-1
80.5 70 m 128,-1,8
 22 149 22 149 22 326 c 128,-1,9
 22 503 22 503 82.5 584 c 128,-1,10
 143 665 143 665 272 665 c 0,11,12
 374 665 374 665 456 637 c 1,13,-1
 438 548 l 1,14,15
 368 572 368 572 272 572 c 0,16,17
 193 572 193 572 160.5 515 c 128,-1,18
 128 458 128 458 128 331 c 128,-1,19
 128 204 128 204 162.5 145.5 c 128,-1,20
 197 87 197 87 266 87 c 0,21,22
 315 87 315 87 369 100 c 1,23,-1
 369 255 l 1,24,-1
 276 255 l 1,25,-1
 276 347 l 1,26,-1
 469 347 l 1,27,-1
 469 25 l 1,28,29
 374 -9 374 -9 266 -9 c 0,30,7
 139 -9 139 -9 80.5 70 c 128,-1,8
EndSplineSet
EndChar
StartChar: gcircumflex
Encoding: 285 285 209
Width: 500
GlyphClass: 2
Flags: W
LayerCount: 2
Back
Fore
SplineSet
456 115 m 1,0,-1
 459 -23 l 2,1,2
 459 -109 459 -109 401 -155 c 128,-1,3
 343 -201 343 -201 244 -201 c 128,-1,4
 145 -201 145 -201 52 -168 c 1,5,-1
 77 -76 l 1,6,7
 167 -106 167 -106 226 -106 c 128,-1,8
 285 -106 285 -106 320.5 -85.5 c 128,-1,9
 356 -65 356 -65 356 -24 c 0,10,11
 356 -16 356 -16 354.5 7.5 c 128,-1,12
 353 31 353 31 353 44 c 1,13,14
 289 -1 289 -1 229 -1 c 0,15,16
 137 -1 137 -1 89 56 c 128,-1,17
 41 113 41 113 41 237.5 c 128,-1,18
 41 362 41 362 95.5 421.5 c 128,-1,19
 150 481 150 481 245 481 c 0,20,21
 266 481 266 481 298.5 471 c 128,-1,22
 331 461 331 461 353 449 c 1,23,-1
 355 478 l 1,24,-1
 456 478 l 1,25,-1
 456 115 l 1,0,-1
236 94 m 0,26,27
 287 94 287 94 353 144 c 1,28,-1
 353 350 l 1,29,30
 296 386 296 386 248 386 c 0,31,32
 152 386 152 386 152 240 c 128,-1,33
 152 94 152 94 236 94 c 0,26,27
297 745 m 1,34,-1
 405 588 l 1,35,-1
 303 588 l 1,36,-1
 250 674 l 1,37,-1
 197 588 l 1,38,-1
 95 588 l 1,39,-1
 203 745 l 1,40,-1
 297 745 l 1,34,-1
EndSplineSet
Substitution2: "'smcp' Lowercase to Small Capitals in Latin lookup 3 subtable" gcircumflex.sc
EndChar
StartChar: Gbreve
Encoding: 286 286 210
Width: 500
GlyphClass: 2
Flags: W
LayerCount: 2
Back
Fore
SplineSet
260 754 m 128,-1,1
 125 754 125 754 117 875 c 1,2,-1
 191 875 l 1,3,4
 196 845 196 845 213 833 c 128,-1,5
 230 821 230 821 260 821 c 128,-1,6
 290 821 290 821 307 833 c 128,-1,7
 324 845 324 845 329 875 c 1,8,-1
 403 875 l 1,9,0
 395 754 395 754 260 754 c 128,-1,1
80.5 70 m 128,-1,11
 22 149 22 149 22 326 c 128,-1,12
 22 503 22 503 82.5 584 c 128,-1,13
 143 665 143 665 272 665 c 0,14,15
 374 665 374 665 456 637 c 1,16,-1
 438 548 l 1,17,18
 368 572 368 572 272 572 c 0,19,20
 193 572 193 572 160.5 515 c 128,-1,21
 128 458 128 458 128 331 c 128,-1,22
 128 204 128 204 162.5 145.5 c 128,-1,23
 197 87 197 87 266 87 c 0,24,25
 315 87 315 87 369 100 c 1,26,-1
 369 255 l 1,27,-1
 276 255 l 1,28,-1
 276 347 l 1,29,-1
 469 347 l 1,30,-1
 469 25 l 1,31,32
 374 -9 374 -9 266 -9 c 0,33,10
 139 -9 139 -9 80.5 70 c 128,-1,11
EndSplineSet
EndChar
StartChar: gbreve
Encoding: 287 287 211
Width: 500
GlyphClass: 2
Flags: W
LayerCount: 2
Back
Fore
SplineSet
456 115 m 1,0,-1
 459 -23 l 2,1,2
 459 -109 459 -109 401 -155 c 128,-1,3
 343 -201 343 -201 244 -201 c 128,-1,4
 145 -201 145 -201 52 -168 c 1,5,-1
 77 -76 l 1,6,7
 167 -106 167 -106 226 -106 c 128,-1,8
 285 -106 285 -106 320.5 -85.5 c 128,-1,9
 356 -65 356 -65 356 -24 c 0,10,11
 356 -16 356 -16 354.5 7.5 c 128,-1,12
 353 31 353 31 353 44 c 1,13,14
 289 -1 289 -1 229 -1 c 0,15,16
 137 -1 137 -1 89 56 c 128,-1,17
 41 113 41 113 41 237.5 c 128,-1,18
 41 362 41 362 95.5 421.5 c 128,-1,19
 150 481 150 481 245 481 c 0,20,21
 266 481 266 481 298.5 471 c 128,-1,22
 331 461 331 461 353 449 c 1,23,-1
 355 478 l 1,24,-1
 456 478 l 1,25,-1
 456 115 l 1,0,-1
236 94 m 0,26,27
 287 94 287 94 353 144 c 1,28,-1
 353 350 l 1,29,30
 296 386 296 386 248 386 c 0,31,32
 152 386 152 386 152 240 c 128,-1,33
 152 94 152 94 236 94 c 0,26,27
250 579 m 128,-1,35
 115 579 115 579 107 700 c 1,36,-1
 181 700 l 1,37,38
 186 670 186 670 203 658 c 128,-1,39
 220 646 220 646 250 646 c 128,-1,40
 280 646 280 646 297 658 c 128,-1,41
 314 670 314 670 319 700 c 1,42,-1
 393 700 l 1,43,34
 385 579 385 579 250 579 c 128,-1,35
EndSplineSet
Substitution2: "'smcp' Lowercase to Small Capitals in Latin lookup 3 subtable" gbreve.sc
EndChar
StartChar: Gdotaccent
Encoding: 288 288 212
Width: 500
GlyphClass: 2
Flags: W
LayerCount: 2
Back
Fore
SplineSet
214 812 m 128,-1,1
 214 835 214 835 230 852 c 128,-1,2
 246 869 246 869 270 869 c 128,-1,3
 294 869 294 869 310 852 c 128,-1,4
 326 835 326 835 326 812 c 128,-1,5
 326 789 326 789 310 772 c 128,-1,6
 294 755 294 755 270 755 c 128,-1,7
 246 755 246 755 230 772 c 128,-1,0
 214 789 214 789 214 812 c 128,-1,1
80.5 70 m 128,-1,9
 22 149 22 149 22 326 c 128,-1,10
 22 503 22 503 82.5 584 c 128,-1,11
 143 665 143 665 272 665 c 0,12,13
 374 665 374 665 456 637 c 1,14,-1
 438 548 l 1,15,16
 368 572 368 572 272 572 c 0,17,18
 193 572 193 572 160.5 515 c 128,-1,19
 128 458 128 458 128 331 c 128,-1,20
 128 204 128 204 162.5 145.5 c 128,-1,21
 197 87 197 87 266 87 c 0,22,23
 315 87 315 87 369 100 c 1,24,-1
 369 255 l 1,25,-1
 276 255 l 1,26,-1
 276 347 l 1,27,-1
 469 347 l 1,28,-1
 469 25 l 1,29,30
 374 -9 374 -9 266 -9 c 0,31,8
 139 -9 139 -9 80.5 70 c 128,-1,9
EndSplineSet
EndChar
StartChar: Gcommaaccent
Encoding: 290 290 214
Width: 500
GlyphClass: 2
Flags: W
LayerCount: 2
Back
Fore
SplineSet
221 -160 m 1,0,-1
 221 -59 l 1,1,-1
 321 -59 l 1,2,-1
 321 -128 l 2,3,4
 321 -167 321 -167 304.5 -194.5 c 128,-1,5
 288 -222 288 -222 249 -251 c 1,6,-1
 218 -216 l 1,7,8
 234 -202 234 -202 243 -188 c 128,-1,9
 252 -174 252 -174 253 -160 c 1,10,-1
 221 -160 l 1,0,-1
80.5 70 m 128,-1,12
 22 149 22 149 22 326 c 128,-1,13
 22 503 22 503 82.5 584 c 128,-1,14
 143 665 143 665 272 665 c 0,15,16
 374 665 374 665 456 637 c 1,17,-1
 438 548 l 1,18,19
 368 572 368 572 272 572 c 0,20,21
 193 572 193 572 160.5 515 c 128,-1,22
 128 458 128 458 128 331 c 128,-1,23
 128 204 128 204 162.5 145.5 c 128,-1,24
 197 87 197 87 266 87 c 0,25,26
 315 87 315 87 369 100 c 1,27,-1
 369 255 l 1,28,-1
 276 255 l 1,29,-1
 276 347 l 1,30,-1
 469 347 l 1,31,-1
 469 25 l 1,32,33
 374 -9 374 -9 266 -9 c 0,34,11
 139 -9 139 -9 80.5 70 c 128,-1,12
EndSplineSet
EndChar
StartChar: gcommaaccent
Encoding: 291 291 215
Width: 500
GlyphClass: 2
Flags: W
LayerCount: 2
Back
Fore
SplineSet
308 674 m 1,0,-1
 308 573 l 1,1,-1
 208 573 l 1,2,-1
 208 642 l 2,3,4
 208 681 208 681 224.5 708.5 c 128,-1,5
 241 736 241 736 280 765 c 1,6,-1
 311 730 l 1,7,8
 295 716 295 716 286 702 c 128,-1,9
 277 688 277 688 276 674 c 1,10,-1
 308 674 l 1,0,-1
456 115 m 1,11,-1
 459 -23 l 2,12,13
 459 -109 459 -109 401 -155 c 128,-1,14
 343 -201 343 -201 244 -201 c 128,-1,15
 145 -201 145 -201 52 -168 c 1,16,-1
 77 -76 l 1,17,18
 167 -106 167 -106 226 -106 c 128,-1,19
 285 -106 285 -106 320.5 -85.5 c 128,-1,20
 356 -65 356 -65 356 -24 c 0,21,22
 356 -16 356 -16 354.5 7.5 c 128,-1,23
 353 31 353 31 353 44 c 1,24,25
 289 -1 289 -1 229 -1 c 0,26,27
 137 -1 137 -1 89 56 c 128,-1,28
 41 113 41 113 41 237.5 c 128,-1,29
 41 362 41 362 95.5 421.5 c 128,-1,30
 150 481 150 481 245 481 c 0,31,32
 266 481 266 481 298.5 471 c 128,-1,33
 331 461 331 461 353 449 c 1,34,-1
 355 478 l 1,35,-1
 456 478 l 1,36,-1
 456 115 l 1,11,-1
236 94 m 0,37,38
 287 94 287 94 353 144 c 1,39,-1
 353 350 l 1,40,41
 296 386 296 386 248 386 c 0,42,43
 152 386 152 386 152 240 c 128,-1,44
 152 94 152 94 236 94 c 0,37,38
EndSplineSet
Substitution2: "'smcp' Lowercase to Small Capitals in Latin lookup 3 subtable" gcommaaccent.sc
EndChar
StartChar: Hcircumflex
Encoding: 292 292 216
Width: 500
GlyphClass: 2
Flags: W
LayerCount: 2
Back
Fore
SplineSet
84 752 m 1,0,-1
 210 882 l 1,1,-1
 290 882 l 1,2,-1
 416 752 l 1,3,-1
 318 752 l 1,4,-1
 250 822 l 1,5,-1
 182 752 l 1,6,-1
 84 752 l 1,0,-1
32 0 m 1,7,-1
 32 655 l 1,8,-1
 137 655 l 1,9,-1
 137 373 l 1,10,-1
 364 373 l 1,11,-1
 364 655 l 1,12,-1
 469 655 l 1,13,-1
 469 0 l 1,14,-1
 364 0 l 1,15,-1
 364 279 l 1,16,-1
 137 279 l 1,17,-1
 137 0 l 1,18,-1
 32 0 l 1,7,-1
EndSplineSet
EndChar
StartChar: Hbar
Encoding: 294 294 218
Width: 500
GlyphClass: 2
Flags: W
LayerCount: 2
Back
Fore
SplineSet
0 529 m 1,0,-1
 500 529 l 1,1,-1
 500 456 l 1,2,-1
 0 456 l 1,3,-1
 0 529 l 1,0,-1
32 0 m 1,4,-1
 32 655 l 1,5,-1
 137 655 l 1,6,-1
 137 373 l 1,7,-1
 364 373 l 1,8,-1
 364 655 l 1,9,-1
 469 655 l 1,10,-1
 469 0 l 1,11,-1
 364 0 l 1,12,-1
 364 279 l 1,13,-1
 137 279 l 1,14,-1
 137 0 l 1,15,-1
 32 0 l 1,4,-1
EndSplineSet
EndChar
StartChar: hbar
Encoding: 295 295 219
Width: 500
GlyphClass: 2
Flags: W
LayerCount: 2
Back
Fore
SplineSet
0 602 m 1,0,-1
 303 602 l 1,1,-1
 303 529 l 1,2,-1
 0 529 l 1,3,-1
 0 602 l 1,0,-1
159 350 m 1,4,-1
 159 0 l 1,5,-1
 56 0 l 1,6,-1
 56 667 l 1,7,-1
 159 667 l 1,8,-1
 159 447 l 1,9,10
 240 483 240 483 286 483 c 0,11,12
 372 483 372 483 407.5 433 c 128,-1,13
 443 383 443 383 443 287 c 2,14,-1
 443 0 l 1,15,-1
 340 0 l 1,16,-1
 340 289 l 2,17,18
 340 331 340 331 323.5 358.5 c 128,-1,19
 307 386 307 386 280 386 c 0,20,21
 231 386 231 386 159 350 c 1,4,-1
EndSplineSet
Substitution2: "'smcp' Lowercase to Small Capitals in Latin lookup 3 subtable" hbar.sc
EndChar
StartChar: Itilde
Encoding: 296 296 220
Width: 500
GlyphClass: 2
Flags: W
LayerCount: 2
Back
Fore
SplineSet
373 870 m 1,0,-1
 414 814 l 1,1,2
 365 761 365 761 318 761 c 0,3,4
 283 761 283 761 245 782 c 0,5,6
 208 804 208 804 186 804 c 128,-1,7
 164 804 164 804 131 773 c 1,8,-1
 86 828 l 1,9,10
 145 885 145 885 192 885 c 0,11,12
 225 885 225 885 264 864 c 0,13,14
 304 843 304 843 324 843 c 128,-1,15
 344 843 344 843 373 870 c 1,0,-1
72 0 m 1,16,-1
 72 93 l 1,17,-1
 201 93 l 1,18,-1
 201 562 l 1,19,-1
 72 562 l 1,20,-1
 72 655 l 1,21,-1
 425 655 l 1,22,-1
 425 562 l 1,23,-1
 305 562 l 1,24,-1
 305 93 l 1,25,-1
 425 93 l 1,26,-1
 425 0 l 1,27,-1
 72 0 l 1,16,-1
EndSplineSet
EndChar
StartChar: itilde
Encoding: 297 297 221
Width: 500
GlyphClass: 2
Flags: W
LayerCount: 2
Back
Fore
SplineSet
103 381 m 1,0,-1
 103 473 l 1,1,-1
 317 473 l 1,2,-1
 317 92 l 1,3,-1
 428 92 l 1,4,-1
 428 0 l 1,5,-1
 95 0 l 1,6,-1
 95 92 l 1,7,-1
 214 92 l 1,8,-1
 214 381 l 1,9,-1
 103 381 l 1,0,-1
373 705 m 1,10,-1
 414 649 l 1,11,12
 365 596 365 596 318 596 c 0,13,14
 283 596 283 596 245 618 c 0,15,16
 208 639 208 639 186 639 c 128,-1,17
 164 639 164 639 131 608 c 1,18,-1
 86 663 l 1,19,20
 145 720 145 720 192 720 c 0,21,22
 225 720 225 720 264 699 c 0,23,24
 304 678 304 678 324 678 c 128,-1,25
 344 678 344 678 373 705 c 1,10,-1
EndSplineSet
Substitution2: "'smcp' Lowercase to Small Capitals in Latin lookup 3 subtable" itilde.sc
EndChar
StartChar: Ibreve
Encoding: 300 300 223
Width: 500
GlyphClass: 2
Flags: W
LayerCount: 2
Back
Fore
SplineSet
251 754 m 128,-1,1
 116 754 116 754 108 875 c 1,2,-1
 182 875 l 1,3,4
 187 845 187 845 204 833 c 128,-1,5
 221 821 221 821 251 821 c 128,-1,6
 281 821 281 821 298 833 c 128,-1,7
 315 845 315 845 320 875 c 1,8,-1
 394 875 l 1,9,0
 386 754 386 754 251 754 c 128,-1,1
72 0 m 1,10,-1
 72 93 l 1,11,-1
 201 93 l 1,12,-1
 201 562 l 1,13,-1
 72 562 l 1,14,-1
 72 655 l 1,15,-1
 425 655 l 1,16,-1
 425 562 l 1,17,-1
 305 562 l 1,18,-1
 305 93 l 1,19,-1
 425 93 l 1,20,-1
 425 0 l 1,21,-1
 72 0 l 1,10,-1
EndSplineSet
EndChar
StartChar: Iogonek
Encoding: 302 302 224
Width: 500
GlyphClass: 2
Flags: W
LayerCount: 2
Back
Fore
SplineSet
218 -134 m 0,0,1
 218 -93 218 -93 241.5 -56.5 c 128,-1,2
 265 -20 265 -20 309 0 c 1,3,-1
 378 49 l 1,4,-1
 415 0 l 1,5,-1
 365 -38 l 2,6,7
 305 -82 305 -82 305 -136 c 0,8,9
 305 -158 305 -158 317 -174 c 0,10,11
 330 -191 330 -191 356 -191 c 128,-1,12
 382 -191 382 -191 404 -187 c 1,13,-1
 414 -262 l 1,14,15
 370 -269 370 -269 343 -269 c 0,16,17
 293 -269 293 -269 255.5 -235.5 c 128,-1,18
 218 -202 218 -202 218 -134 c 0,0,1
72 0 m 1,19,-1
 72 93 l 1,20,-1
 201 93 l 1,21,-1
 201 562 l 1,22,-1
 72 562 l 1,23,-1
 72 655 l 1,24,-1
 425 655 l 1,25,-1
 425 562 l 1,26,-1
 305 562 l 1,27,-1
 305 93 l 1,28,-1
 425 93 l 1,29,-1
 425 0 l 1,30,-1
 72 0 l 1,19,-1
EndSplineSet
EndChar
StartChar: iogonek
Encoding: 303 303 225
Width: 500
GlyphClass: 2
Flags: W
LayerCount: 2
Back
Fore
SplineSet
231 -135 m 0,0,1
 231 -91 231 -91 265.5 -47.5 c 128,-1,2
 300 -4 300 -4 391 49 c 1,3,-1
 428 0 l 1,4,5
 363 -49 363 -49 340.5 -78.5 c 128,-1,6
 318 -108 318 -108 318 -134 c 128,-1,7
 318 -160 318 -160 330 -176 c 128,-1,8
 342 -192 342 -192 368 -192 c 128,-1,9
 394 -192 394 -192 417 -188 c 1,10,-1
 427 -263 l 1,11,12
 383 -270 383 -270 356 -270 c 0,13,14
 306 -270 306 -270 268.5 -236.5 c 128,-1,15
 231 -203 231 -203 231 -135 c 0,0,1
103 381 m 1,16,-1
 103 473 l 1,17,-1
 317 473 l 1,18,-1
 317 92 l 1,19,-1
 428 92 l 1,20,-1
 428 0 l 1,21,-1
 95 0 l 1,22,-1
 95 92 l 1,23,-1
 214 92 l 1,24,-1
 214 381 l 1,25,-1
 103 381 l 1,16,-1
198 606 m 128,-1,27
 198 632 198 632 216 650 c 256,28,29
 234 668 234 668 260 668 c 128,-1,30
 286 668 286 668 304 650.5 c 128,-1,31
 322 633 322 633 322 606 c 128,-1,32
 322 579 322 579 304 560 c 128,-1,33
 286 541 286 541 261 541 c 128,-1,34
 236 541 236 541 217 560.5 c 128,-1,26
 198 580 198 580 198 606 c 128,-1,27
EndSplineSet
Substitution2: "'smcp' Lowercase to Small Capitals in Latin lookup 3 subtable" iogonek.sc
EndChar
StartChar: Idotaccent
Encoding: 304 304 226
Width: 500
GlyphClass: 2
Flags: W
LayerCount: 2
Back
Fore
SplineSet
194 812 m 128,-1,1
 194 835 194 835 210 852 c 128,-1,2
 226 869 226 869 250 869 c 128,-1,3
 274 869 274 869 290 852 c 128,-1,4
 306 835 306 835 306 812 c 128,-1,5
 306 789 306 789 290 772 c 128,-1,6
 274 755 274 755 250 755 c 128,-1,7
 226 755 226 755 210 772 c 128,-1,0
 194 789 194 789 194 812 c 128,-1,1
72 0 m 1,8,-1
 72 93 l 1,9,-1
 201 93 l 1,10,-1
 201 562 l 1,11,-1
 72 562 l 1,12,-1
 72 655 l 1,13,-1
 425 655 l 1,14,-1
 425 562 l 1,15,-1
 305 562 l 1,16,-1
 305 93 l 1,17,-1
 425 93 l 1,18,-1
 425 0 l 1,19,-1
 72 0 l 1,8,-1
EndSplineSet
EndChar
StartChar: dotlessi
Encoding: 305 305 227
Width: 500
GlyphClass: 2
Flags: W
LayerCount: 2
Back
Fore
SplineSet
103 381 m 1,0,-1
 103 473 l 1,1,-1
 317 473 l 1,2,-1
 317 92 l 1,3,-1
 428 92 l 1,4,-1
 428 0 l 1,5,-1
 95 0 l 1,6,-1
 95 92 l 1,7,-1
 214 92 l 1,8,-1
 214 381 l 1,9,-1
 103 381 l 1,0,-1
EndSplineSet
EndChar
StartChar: I_J
Encoding: 306 306 228
Width: 500
GlyphClass: 3
Flags: W
LayerCount: 2
Back
Fore
SplineSet
113 266 m 1,0,-1
 113 580 l 1,1,-1
 29 580 l 1,2,-1
 29 655 l 1,3,-1
 292 655 l 1,4,-1
 292 580 l 1,5,-1
 210 580 l 1,6,-1
 210 266 l 1,7,-1
 292 266 l 1,8,-1
 292 191 l 1,9,-1
 29 191 l 1,10,-1
 29 266 l 1,11,-1
 113 266 l 1,0,-1
371 655 m 1,12,-1
 469 655 l 1,13,-1
 469 205 l 2,14,15
 469 94 469 94 385 46 c 0,16,17
 343 22 343 22 297 10 c 128,-1,18
 251 -2 251 -2 184 -10 c 1,19,-1
 172 84 l 1,20,21
 280 100 280 100 325.5 126 c 128,-1,22
 371 152 371 152 371 203 c 2,23,-1
 371 655 l 1,12,-1
EndSplineSet
Ligature2: "'dlig' Discretionary Ligatures in Latin lookup 4 subtable" I J
EndChar
StartChar: Jcircumflex
Encoding: 308 308 229
Width: 500
GlyphClass: 2
Flags: W
LayerCount: 2
Back
Fore
SplineSet
70 752 m 1,0,-1
 196 882 l 1,1,-1
 276 882 l 1,2,-1
 402 752 l 1,3,-1
 304 752 l 1,4,-1
 236 822 l 1,5,-1
 168 752 l 1,6,-1
 70 752 l 1,0,-1
331 561 m 1,7,-1
 331 215 l 2,8,9
 331 79 331 79 307 34 c 128,-1,10
 283 -11 283 -11 196 -11 c 0,11,12
 140 -11 140 -11 44 16 c 1,13,-1
 62 101 l 1,14,15
 109 87 109 87 156 81 c 128,-1,16
 203 75 203 75 215 99.5 c 128,-1,17
 227 124 227 124 227 217 c 2,18,-1
 227 561 l 1,19,-1
 76 561 l 1,20,-1
 76 655 l 1,21,-1
 393 655 l 1,22,-1
 393 561 l 1,23,-1
 331 561 l 1,7,-1
EndSplineSet
EndChar
StartChar: jcircumflex
Encoding: 309 309 230
Width: 500
GlyphClass: 2
Flags: W
LayerCount: 2
Back
Fore
SplineSet
352 475 m 1,0,-1
 352 -10 l 2,1,2
 352 -100 352 -100 308 -146 c 0,3,4
 274 -182 274 -182 189 -198 c 0,5,6
 115 -212 115 -212 99 -211 c 1,7,-1
 87 -115 l 1,8,9
 189 -100 189 -100 219 -83.5 c 128,-1,10
 249 -67 249 -67 249 -10 c 2,11,-1
 249 385 l 1,12,-1
 132 385 l 1,13,-1
 132 475 l 1,14,-1
 352 475 l 1,0,-1
297 745 m 1,15,-1
 405 588 l 1,16,-1
 303 588 l 1,17,-1
 250 674 l 1,18,-1
 197 588 l 1,19,-1
 95 588 l 1,20,-1
 203 745 l 1,21,-1
 297 745 l 1,15,-1
EndSplineSet
Substitution2: "'smcp' Lowercase to Small Capitals in Latin lookup 3 subtable" jcircumflex.sc
EndChar
StartChar: Kcommaaccent
Encoding: 310 310 231
Width: 500
GlyphClass: 2
Flags: W
LayerCount: 2
Back
Fore
SplineSet
201 -160 m 1,0,-1
 201 -59 l 1,1,-1
 301 -59 l 1,2,-1
 301 -128 l 2,3,4
 301 -167 301 -167 284.5 -194.5 c 128,-1,5
 268 -222 268 -222 229 -251 c 1,6,-1
 198 -216 l 1,7,8
 214 -202 214 -202 223 -188 c 128,-1,9
 232 -174 232 -174 233 -160 c 1,10,-1
 201 -160 l 1,0,-1
360 655 m 1,11,-1
 473 655 l 1,12,13
 372 455 372 455 293 337 c 1,14,15
 322 292 322 292 368 208 c 2,16,17
 368 208 368 208 480 0 c 1,18,-1
 367 0 l 1,19,20
 266 195 266 195 212 281 c 1,21,-1
 150 275 l 1,22,-1
 150 0 l 1,23,-1
 49 0 l 1,24,-1
 49 655 l 1,25,-1
 150 655 l 1,26,-1
 150 370 l 1,27,-1
 204 378 l 1,28,29
 270 480 270 480 337 610 c 2,30,-1
 360 655 l 1,11,-1
EndSplineSet
EndChar
StartChar: kcommaaccent
Encoding: 311 311 232
Width: 500
GlyphClass: 2
Flags: W
LayerCount: 2
Back
Fore
SplineSet
345 475 m 1,0,-1
 456 475 l 1,1,2
 372 339 372 339 300 253 c 1,3,4
 383 135 383 135 465 0 c 1,5,-1
 346 0 l 1,6,7
 294 90 294 90 224 196 c 1,8,-1
 180 191 l 1,9,-1
 180 0 l 1,10,-1
 77 0 l 1,11,-1
 77 667 l 1,12,-1
 180 667 l 1,13,-1
 180 284 l 1,14,-1
 218 291 l 1,15,16
 268 356 268 356 345 475 c 1,0,-1
204 -160 m 1,17,-1
 204 -59 l 1,18,-1
 304 -59 l 1,19,-1
 304 -128 l 2,20,21
 304 -167 304 -167 287.5 -194.5 c 128,-1,22
 271 -222 271 -222 232 -251 c 1,23,-1
 201 -216 l 1,24,25
 217 -202 217 -202 226 -188 c 128,-1,26
 235 -174 235 -174 236 -160 c 1,27,-1
 204 -160 l 1,17,-1
EndSplineSet
Substitution2: "'smcp' Lowercase to Small Capitals in Latin lookup 3 subtable" kcommaaccent.sc
EndChar
StartChar: Lacute
Encoding: 313 313 233
Width: 500
GlyphClass: 2
Flags: W
LayerCount: 2
Back
Fore
SplineSet
136 812 m 1,0,-1
 341 900 l 1,1,-1
 375 818 l 1,2,-1
 169 734 l 1,3,-1
 136 812 l 1,0,-1
439 94 m 1,4,-1
 439 0 l 1,5,-1
 68 0 l 1,6,-1
 68 655 l 1,7,-1
 172 655 l 1,8,-1
 172 94 l 1,9,-1
 439 94 l 1,4,-1
EndSplineSet
EndChar
StartChar: lacute
Encoding: 314 314 234
Width: 500
GlyphClass: 2
Flags: W
LayerCount: 2
Back
Fore
SplineSet
99 575 m 1,0,-1
 98 666 l 1,1,-1
 311 667 l 1,2,-1
 311 90 l 1,3,-1
 423 90 l 1,4,-1
 423 0 l 1,5,-1
 95 0 l 1,6,-1
 95 90 l 1,7,-1
 208 90 l 1,8,-1
 208 576 l 1,9,-1
 99 575 l 1,0,-1
148 779 m 1,10,-1
 329 880 l 1,11,-1
 372 793 l 1,12,-1
 188 706 l 1,13,-1
 148 779 l 1,10,-1
EndSplineSet
Substitution2: "'smcp' Lowercase to Small Capitals in Latin lookup 3 subtable" lacute.sc
EndChar
StartChar: Lcommaaccent
Encoding: 315 315 235
Width: 500
GlyphClass: 2
Flags: W
LayerCount: 2
Back
Fore
SplineSet
201 -160 m 1,0,-1
 201 -59 l 1,1,-1
 301 -59 l 1,2,-1
 301 -128 l 2,3,4
 301 -167 301 -167 284.5 -194.5 c 128,-1,5
 268 -222 268 -222 229 -251 c 1,6,-1
 198 -216 l 1,7,8
 214 -202 214 -202 223 -188 c 128,-1,9
 232 -174 232 -174 233 -160 c 1,10,-1
 201 -160 l 1,0,-1
439 94 m 1,11,-1
 439 0 l 1,12,-1
 68 0 l 1,13,-1
 68 655 l 1,14,-1
 172 655 l 1,15,-1
 172 94 l 1,16,-1
 439 94 l 1,11,-1
EndSplineSet
EndChar
StartChar: lcommaaccent
Encoding: 316 316 236
Width: 500
GlyphClass: 2
Flags: W
LayerCount: 2
Back
Fore
SplineSet
99 575 m 1,0,-1
 98 666 l 1,1,-1
 311 667 l 1,2,-1
 311 90 l 1,3,-1
 423 90 l 1,4,-1
 423 0 l 1,5,-1
 95 0 l 1,6,-1
 95 90 l 1,7,-1
 208 90 l 1,8,-1
 208 576 l 1,9,-1
 99 575 l 1,0,-1
209 -160 m 1,10,-1
 209 -59 l 1,11,-1
 309 -59 l 1,12,-1
 309 -128 l 2,13,14
 309 -167 309 -167 292.5 -194.5 c 128,-1,15
 276 -222 276 -222 237 -251 c 1,16,-1
 206 -216 l 1,17,18
 222 -202 222 -202 231 -188 c 128,-1,19
 240 -174 240 -174 241 -160 c 1,20,-1
 209 -160 l 1,10,-1
EndSplineSet
Substitution2: "'smcp' Lowercase to Small Capitals in Latin lookup 3 subtable" lcommaaccent.sc
EndChar
StartChar: Lcaron
Encoding: 317 317 237
Width: 500
GlyphClass: 2
Flags: W
LayerCount: 2
Back
Fore
SplineSet
310 588 m 1,0,-1
 310 687 l 1,1,-1
 399 687 l 1,2,-1
 399 617 l 2,3,4
 399 578 399 578 384.5 550 c 128,-1,5
 370 522 370 522 331 483 c 1,6,-1
 304 508 l 1,7,8
 327 538 327 538 335.5 554 c 128,-1,9
 344 570 344 570 346 588 c 1,10,-1
 310 588 l 1,0,-1
439 94 m 1,11,-1
 439 0 l 1,12,-1
 68 0 l 1,13,-1
 68 655 l 1,14,-1
 172 655 l 1,15,-1
 172 94 l 1,16,-1
 439 94 l 1,11,-1
EndSplineSet
EndChar
StartChar: lcaron
Encoding: 318 318 238
Width: 500
GlyphClass: 2
Flags: W
LayerCount: 2
Back
Fore
SplineSet
375 588 m 1,0,-1
 375 687 l 1,1,-1
 468 687 l 1,2,-1
 468 617 l 2,3,4
 468 577 468 577 452.5 544 c 128,-1,5
 437 511 437 511 399 473 c 1,6,-1
 372 498 l 1,7,8
 395 528 395 528 403.5 545.5 c 128,-1,9
 412 563 412 563 414 588 c 1,10,-1
 375 588 l 1,0,-1
99 575 m 1,11,-1
 98 666 l 1,12,-1
 311 667 l 1,13,-1
 311 90 l 1,14,-1
 423 90 l 1,15,-1
 423 0 l 1,16,-1
 95 0 l 1,17,-1
 95 90 l 1,18,-1
 208 90 l 1,19,-1
 208 576 l 1,20,-1
 99 575 l 1,11,-1
EndSplineSet
Substitution2: "'smcp' Lowercase to Small Capitals in Latin lookup 3 subtable" lcaron.sc
EndChar
StartChar: Lslash
Encoding: 321 321 239
Width: 500
GlyphClass: 2
Flags: W
LayerCount: 2
Back
Fore
SplineSet
328 330 m 1,0,-1
 0 249 l 1,1,-1
 0 345 l 1,2,-1
 328 425 l 1,3,-1
 328 330 l 1,0,-1
449 94 m 1,4,-1
 449 0 l 1,5,-1
 78 0 l 1,6,-1
 78 655 l 1,7,-1
 182 655 l 1,8,-1
 182 94 l 1,9,-1
 449 94 l 1,4,-1
EndSplineSet
EndChar
StartChar: lslash
Encoding: 322 322 240
Width: 500
GlyphClass: 2
Flags: W
LayerCount: 2
Back
Fore
SplineSet
423 330 m 1,0,-1
 95 249 l 1,1,-1
 95 345 l 1,2,-1
 423 425 l 1,3,-1
 423 330 l 1,0,-1
99 575 m 1,4,-1
 98 666 l 1,5,-1
 311 667 l 1,6,-1
 311 90 l 1,7,-1
 423 90 l 1,8,-1
 423 0 l 1,9,-1
 95 0 l 1,10,-1
 95 90 l 1,11,-1
 208 90 l 1,12,-1
 208 576 l 1,13,-1
 99 575 l 1,4,-1
EndSplineSet
Substitution2: "'smcp' Lowercase to Small Capitals in Latin lookup 3 subtable" lslash.sc
EndChar
StartChar: Nacute
Encoding: 323 323 241
Width: 500
GlyphClass: 2
Flags: W
LayerCount: 2
Back
Fore
SplineSet
136 812 m 1,0,-1
 341 900 l 1,1,-1
 375 818 l 1,2,-1
 169 734 l 1,3,-1
 136 812 l 1,0,-1
375 0 m 1,4,-1
 375 87 l 1,5,-1
 128 493 l 1,6,-1
 125 493 l 1,7,-1
 125 0 l 1,8,-1
 31 0 l 1,9,-1
 31 655 l 1,10,-1
 125 655 l 1,11,-1
 371 245 l 1,12,-1
 375 245 l 1,13,-1
 375 655 l 1,14,-1
 469 655 l 1,15,-1
 469 0 l 1,16,-1
 375 0 l 1,4,-1
EndSplineSet
EndChar
StartChar: nacute
Encoding: 324 324 242
Width: 500
GlyphClass: 2
Flags: W
LayerCount: 2
Back
Fore
SplineSet
156 475 m 1,0,-1
 158 446 l 1,1,2
 239 483 239 483 285 483 c 0,3,4
 366 483 366 483 404.5 435.5 c 128,-1,5
 443 388 443 388 443 287 c 2,6,-1
 443 0 l 1,7,-1
 340 0 l 1,8,-1
 340 284 l 2,9,10
 340 332 340 332 323 359 c 128,-1,11
 306 386 306 386 270 386 c 128,-1,12
 234 386 234 386 159 351 c 1,13,-1
 159 0 l 1,14,-1
 56 0 l 1,15,-1
 56 475 l 1,16,-1
 156 475 l 1,0,-1
138 634 m 1,17,-1
 319 735 l 1,18,-1
 362 648 l 1,19,-1
 178 561 l 1,20,-1
 138 634 l 1,17,-1
EndSplineSet
Substitution2: "'smcp' Lowercase to Small Capitals in Latin lookup 3 subtable" nacute.sc
EndChar
StartChar: Ncommaaccent
Encoding: 325 325 243
Width: 500
GlyphClass: 2
Flags: W
LayerCount: 2
Back
Fore
SplineSet
199 -160 m 1,0,-1
 199 -59 l 1,1,-1
 299 -59 l 1,2,-1
 299 -128 l 2,3,4
 299 -167 299 -167 282.5 -194.5 c 128,-1,5
 266 -222 266 -222 227 -251 c 1,6,-1
 196 -216 l 1,7,8
 212 -202 212 -202 221 -188 c 128,-1,9
 230 -174 230 -174 231 -160 c 1,10,-1
 199 -160 l 1,0,-1
375 0 m 1,11,-1
 375 87 l 1,12,-1
 128 493 l 1,13,-1
 125 493 l 1,14,-1
 125 0 l 1,15,-1
 31 0 l 1,16,-1
 31 655 l 1,17,-1
 125 655 l 1,18,-1
 371 245 l 1,19,-1
 375 245 l 1,20,-1
 375 655 l 1,21,-1
 469 655 l 1,22,-1
 469 0 l 1,23,-1
 375 0 l 1,11,-1
EndSplineSet
EndChar
StartChar: ncommaaccent
Encoding: 326 326 244
Width: 500
GlyphClass: 2
Flags: W
LayerCount: 2
Back
Fore
SplineSet
156 475 m 1,0,-1
 158 446 l 1,1,2
 239 483 239 483 285 483 c 0,3,4
 366 483 366 483 404.5 435.5 c 128,-1,5
 443 388 443 388 443 287 c 2,6,-1
 443 0 l 1,7,-1
 340 0 l 1,8,-1
 340 284 l 2,9,10
 340 332 340 332 323 359 c 128,-1,11
 306 386 306 386 270 386 c 128,-1,12
 234 386 234 386 159 351 c 1,13,-1
 159 0 l 1,14,-1
 56 0 l 1,15,-1
 56 475 l 1,16,-1
 156 475 l 1,0,-1
204 -160 m 1,17,-1
 204 -59 l 1,18,-1
 304 -59 l 1,19,-1
 304 -128 l 2,20,21
 304 -167 304 -167 287.5 -194.5 c 128,-1,22
 271 -222 271 -222 232 -251 c 1,23,-1
 201 -216 l 1,24,25
 217 -202 217 -202 226 -188 c 128,-1,26
 235 -174 235 -174 236 -160 c 1,27,-1
 204 -160 l 1,17,-1
EndSplineSet
Substitution2: "'smcp' Lowercase to Small Capitals in Latin lookup 3 subtable" ncommaaccent.sc
EndChar
StartChar: Ncaron
Encoding: 327 327 245
Width: 500
GlyphClass: 2
Flags: W
LayerCount: 2
Back
Fore
SplineSet
419 882 m 1,0,-1
 293 752 l 1,1,-1
 213 752 l 1,2,-1
 87 882 l 1,3,-1
 185 882 l 1,4,-1
 253 812 l 1,5,-1
 321 882 l 1,6,-1
 419 882 l 1,0,-1
375 0 m 1,7,-1
 375 87 l 1,8,-1
 128 493 l 1,9,-1
 125 493 l 1,10,-1
 125 0 l 1,11,-1
 31 0 l 1,12,-1
 31 655 l 1,13,-1
 125 655 l 1,14,-1
 371 245 l 1,15,-1
 375 245 l 1,16,-1
 375 655 l 1,17,-1
 469 655 l 1,18,-1
 469 0 l 1,19,-1
 375 0 l 1,7,-1
EndSplineSet
EndChar
StartChar: Eng
Encoding: 330 330 247
Width: 500
GlyphClass: 2
Flags: W
LayerCount: 2
Back
Fore
SplineSet
481 655 m 1,0,-1
 481 -10 l 2,1,2
 480 -100 480 -100 436 -146 c 0,3,4
 402 -182 402 -182 318 -198 c 0,5,6
 244 -212 244 -212 228 -211 c 1,7,-1
 216 -115 l 1,8,9
 318 -100 318 -100 347.5 -83.5 c 128,-1,10
 377 -67 377 -67 377 -10 c 2,11,-1
 377 87 l 1,12,-1
 121 485 l 1,13,-1
 121 0 l 1,14,-1
 18 0 l 1,15,-1
 18 655 l 1,16,-1
 123 655 l 1,17,-1
 377 250 l 1,18,-1
 377 655 l 1,19,-1
 481 655 l 1,0,-1
EndSplineSet
EndChar
StartChar: eng
Encoding: 331 331 248
Width: 500
GlyphClass: 2
Flags: W
LayerCount: 2
Back
Fore
SplineSet
443 287 m 2,0,-1
 443 -10 l 2,1,2
 443 -66 443 -66 422 -113 c 0,3,4
 410 -140 410 -140 364 -166 c 0,5,6
 338 -180 338 -180 298 -186 c 0,7,8
 216 -198 216 -198 190 -201 c 1,9,-1
 178 -105 l 1,10,11
 220 -99 220 -99 236 -97 c 128,-1,12
 252 -95 252 -95 267.5 -92 c 128,-1,13
 283 -89 283 -89 289 -87 c 128,-1,14
 295 -85 295 -85 305.5 -81 c 128,-1,15
 316 -77 316 -77 319 -73 c 128,-1,16
 322 -69 322 -69 328 -63 c 0,17,18
 334 -58 334 -58 336 -50 c 0,19,20
 340 -28 340 -28 340 -10 c 2,21,-1
 340 284 l 2,22,23
 340 332 340 332 323 359 c 128,-1,24
 306 386 306 386 270 386 c 128,-1,25
 234 386 234 386 159 351 c 1,26,-1
 159 0 l 1,27,-1
 56 0 l 1,28,-1
 56 475 l 1,29,-1
 156 475 l 1,30,-1
 158 446 l 1,31,32
 239 483 239 483 285 483 c 0,33,34
 366 483 366 483 404.5 435.5 c 128,-1,35
 443 388 443 388 443 287 c 2,0,-1
EndSplineSet
Substitution2: "'smcp' Lowercase to Small Capitals in Latin lookup 3 subtable" eng.sc
EndChar
StartChar: Omacron
Encoding: 332 332 249
Width: 500
GlyphClass: 2
Flags: W
LayerCount: 2
Back
Fore
SplineSet
84 853 m 1,0,-1
 417 853 l 1,1,-1
 417 771 l 1,2,-1
 84 771 l 1,3,-1
 84 853 l 1,0,-1
77 74 m 128,-1,5
 25 158 25 158 25 331.5 c 128,-1,6
 25 505 25 505 78.5 585 c 128,-1,7
 132 665 132 665 252.5 665 c 128,-1,8
 373 665 373 665 424 586 c 128,-1,9
 475 507 475 507 475 329.5 c 128,-1,10
 475 152 475 152 424 71 c 128,-1,11
 373 -10 373 -10 251 -10 c 128,-1,4
 129 -10 129 -10 77 74 c 128,-1,5
344 135.5 m 128,-1,13
 369 187 369 187 369 331 c 128,-1,14
 369 475 369 475 344.5 523 c 128,-1,15
 320 571 320 571 252.5 571 c 128,-1,16
 185 571 185 571 158 519 c 128,-1,17
 131 467 131 467 131 333.5 c 128,-1,18
 131 200 131 200 155 142 c 128,-1,19
 179 84 179 84 249 84 c 128,-1,12
 319 84 319 84 344 135.5 c 128,-1,13
EndSplineSet
EndChar
StartChar: Obreve
Encoding: 334 334 251
Width: 500
GlyphClass: 2
Flags: W
LayerCount: 2
Back
Fore
SplineSet
251 754 m 128,-1,1
 116 754 116 754 108 875 c 1,2,-1
 182 875 l 1,3,4
 187 845 187 845 204 833 c 128,-1,5
 221 821 221 821 251 821 c 128,-1,6
 281 821 281 821 298 833 c 128,-1,7
 315 845 315 845 320 875 c 1,8,-1
 394 875 l 1,9,0
 386 754 386 754 251 754 c 128,-1,1
77 74 m 128,-1,11
 25 158 25 158 25 331.5 c 128,-1,12
 25 505 25 505 78.5 585 c 128,-1,13
 132 665 132 665 252.5 665 c 128,-1,14
 373 665 373 665 424 586 c 128,-1,15
 475 507 475 507 475 329.5 c 128,-1,16
 475 152 475 152 424 71 c 128,-1,17
 373 -10 373 -10 251 -10 c 128,-1,10
 129 -10 129 -10 77 74 c 128,-1,11
344 135.5 m 128,-1,19
 369 187 369 187 369 331 c 128,-1,20
 369 475 369 475 344.5 523 c 128,-1,21
 320 571 320 571 252.5 571 c 128,-1,22
 185 571 185 571 158 519 c 128,-1,23
 131 467 131 467 131 333.5 c 128,-1,24
 131 200 131 200 155 142 c 128,-1,25
 179 84 179 84 249 84 c 128,-1,18
 319 84 319 84 344 135.5 c 128,-1,19
EndSplineSet
EndChar
StartChar: obreve
Encoding: 335 335 252
Width: 500
GlyphClass: 2
Flags: W
LayerCount: 2
Back
Fore
SplineSet
250 483 m 128,-1,1
 356 483 356 483 407 422.5 c 128,-1,2
 458 362 458 362 458 236 c 128,-1,3
 458 110 458 110 407 48.5 c 128,-1,4
 356 -13 356 -13 250 -13 c 128,-1,5
 144 -13 144 -13 93 48.5 c 128,-1,6
 42 110 42 110 42 236 c 128,-1,7
 42 362 42 362 93 422.5 c 128,-1,0
 144 483 144 483 250 483 c 128,-1,1
153 236 m 128,-1,9
 153 156 153 156 174 120 c 128,-1,10
 195 84 195 84 250 84 c 128,-1,11
 305 84 305 84 326 120 c 128,-1,12
 347 156 347 156 347 236 c 128,-1,13
 347 316 347 316 326.5 351 c 128,-1,14
 306 386 306 386 250 386 c 128,-1,15
 194 386 194 386 173.5 351 c 128,-1,8
 153 316 153 316 153 236 c 128,-1,9
250 579 m 128,-1,17
 115 579 115 579 107 700 c 1,18,-1
 181 700 l 1,19,20
 186 670 186 670 203 658 c 128,-1,21
 220 646 220 646 250 646 c 128,-1,22
 280 646 280 646 297 658 c 128,-1,23
 314 670 314 670 319 700 c 1,24,-1
 393 700 l 1,25,16
 385 579 385 579 250 579 c 128,-1,17
EndSplineSet
Substitution2: "'smcp' Lowercase to Small Capitals in Latin lookup 3 subtable" obreve.sc
EndChar
StartChar: Ohungarumlaut
Encoding: 336 336 253
Width: 500
GlyphClass: 2
Flags: W
LayerCount: 2
Back
Fore
SplineSet
44 757 m 1,0,-1
 215 874 l 1,1,-1
 266 791 l 1,2,-1
 90 688 l 1,3,-1
 44 757 l 1,0,-1
258 757 m 1,4,-1
 429 874 l 1,5,-1
 480 791 l 1,6,-1
 304 688 l 1,7,-1
 258 757 l 1,4,-1
77 74 m 128,-1,9
 25 158 25 158 25 331.5 c 128,-1,10
 25 505 25 505 78.5 585 c 128,-1,11
 132 665 132 665 252.5 665 c 128,-1,12
 373 665 373 665 424 586 c 128,-1,13
 475 507 475 507 475 329.5 c 128,-1,14
 475 152 475 152 424 71 c 128,-1,15
 373 -10 373 -10 251 -10 c 128,-1,8
 129 -10 129 -10 77 74 c 128,-1,9
344 135.5 m 128,-1,17
 369 187 369 187 369 331 c 128,-1,18
 369 475 369 475 344.5 523 c 128,-1,19
 320 571 320 571 252.5 571 c 128,-1,20
 185 571 185 571 158 519 c 128,-1,21
 131 467 131 467 131 333.5 c 128,-1,22
 131 200 131 200 155 142 c 128,-1,23
 179 84 179 84 249 84 c 128,-1,16
 319 84 319 84 344 135.5 c 128,-1,17
EndSplineSet
EndChar
StartChar: OE
Encoding: 338 338 255
Width: 500
GlyphClass: 2
Flags: W
LayerCount: 2
Back
Fore
SplineSet
258 665 m 2,0,-1
 478 665 l 1,1,-1
 478 566 l 1,2,-1
 353 566 l 1,3,-1
 353 379 l 1,4,-1
 451 379 l 1,5,-1
 451 289 l 1,6,-1
 353 289 l 1,7,-1
 353 89 l 1,8,-1
 481 89 l 1,9,-1
 481 0 l 1,10,-1
 258 0 l 2,11,12
 127 0 127 0 76.5 84 c 128,-1,13
 26 168 26 168 26 338 c 128,-1,14
 26 508 26 508 75 586.5 c 128,-1,15
 124 665 124 665 258 665 c 2,0,-1
128 341 m 0,16,17
 128 84 128 84 233 84 c 2,18,-1
 249 84 l 1,19,-1
 249 570 l 1,20,21
 236 571 236 571 233 571 c 0,22,23
 128 571 128 571 128 341 c 0,16,17
EndSplineSet
EndChar
StartChar: oe
Encoding: 339 339 256
Width: 500
GlyphClass: 2
Flags: W
LayerCount: 2
Back
Fore
SplineSet
254 74 m 1,0,1
 233 -10 233 -10 152.5 -10 c 128,-1,2
 72 -10 72 -10 44.5 50 c 128,-1,3
 17 110 17 110 17 236 c 128,-1,4
 17 362 17 362 44.5 421.5 c 128,-1,5
 72 481 72 481 148 481 c 0,6,7
 185 481 185 481 211 464.5 c 128,-1,8
 237 448 237 448 245 431 c 2,9,-1
 253 414 l 1,10,11
 275 481 275 481 349.5 481 c 128,-1,12
 424 481 424 481 454.5 427.5 c 128,-1,13
 485 374 485 374 485 267 c 1,14,-1
 482 201 l 1,15,-1
 301 201 l 1,16,17
 301 136 301 136 321 104 c 128,-1,18
 341 72 341 72 363 72 c 0,19,20
 404 72 404 72 444 87 c 2,21,-1
 457 92 l 1,22,-1
 481 15 l 1,23,24
 421 -9 421 -9 384 -9 c 128,-1,25
 347 -9 347 -9 324 -0.5 c 128,-1,26
 301 8 301 8 289 18 c 0,27,28
 277 30 277 30 268 44 c 0,29,30
 256 62 256 62 254 74 c 1,0,1
92 236 m 128,-1,32
 92 150 92 150 104 109.5 c 128,-1,33
 116 69 116 69 147.5 69 c 128,-1,34
 179 69 179 69 191 109.5 c 128,-1,35
 203 150 203 150 203 236 c 128,-1,36
 203 322 203 322 191.5 362 c 128,-1,37
 180 402 180 402 148 402 c 128,-1,38
 116 402 116 402 104 362 c 128,-1,31
 92 322 92 322 92 236 c 128,-1,32
393 380.5 m 128,-1,40
 382 405 382 405 352.5 405 c 128,-1,41
 323 405 323 405 311 377 c 128,-1,42
 299 349 299 349 297 282 c 1,43,-1
 404 282 l 1,44,39
 404 356 404 356 393 380.5 c 128,-1,40
EndSplineSet
Substitution2: "'smcp' Lowercase to Small Capitals in Latin lookup 3 subtable" oe.sc
EndChar
StartChar: Racute
Encoding: 340 340 257
Width: 500
GlyphClass: 2
Flags: W
LayerCount: 2
Back
Fore
SplineSet
116 812 m 1,0,-1
 321 900 l 1,1,-1
 355 818 l 1,2,-1
 149 734 l 1,3,-1
 116 812 l 1,0,-1
248 239 m 1,4,5
 194 236 194 236 188 236 c 2,6,-1
 141 236 l 1,7,-1
 141 0 l 1,8,-1
 37 0 l 1,9,-1
 37 655 l 1,10,-1
 243 655 l 2,11,12
 352 655 352 655 408 606.5 c 128,-1,13
 464 558 464 558 464 445 c 0,14,15
 464 315 464 315 352 262 c 1,16,17
 421 131 421 131 468 0 c 1,18,-1
 356 0 l 1,19,20
 311 121 311 121 248 239 c 1,4,5
223 563 m 2,21,-1
 141 563 l 1,22,-1
 141 332 l 1,23,-1
 224 332 l 2,24,25
 358 332 358 332 358 445 c 0,26,27
 358 508 358 508 326 535.5 c 128,-1,28
 294 563 294 563 223 563 c 2,21,-1
EndSplineSet
EndChar
StartChar: racute
Encoding: 341 341 258
Width: 500
GlyphClass: 2
Flags: W
LayerCount: 2
Back
Fore
SplineSet
81 383 m 1,0,-1
 81 475 l 1,1,-1
 263 475 l 1,2,-1
 265 427 l 1,3,4
 345 472 345 472 442 483 c 1,5,-1
 442 383 l 1,6,7
 403 379 403 379 350 362 c 128,-1,8
 297 345 297 345 265 327 c 1,9,-1
 265 90 l 1,10,-1
 407 90 l 1,11,-1
 407 0 l 1,12,-1
 81 0 l 1,13,-1
 81 92 l 1,14,-1
 163 92 l 1,15,-1
 163 383 l 1,16,-1
 81 383 l 1,0,-1
138 634 m 1,17,-1
 319 735 l 1,18,-1
 362 648 l 1,19,-1
 178 561 l 1,20,-1
 138 634 l 1,17,-1
EndSplineSet
Substitution2: "'smcp' Lowercase to Small Capitals in Latin lookup 3 subtable" racute.sc
EndChar
StartChar: Rcommaaccent
Encoding: 342 342 259
Width: 500
GlyphClass: 2
Flags: W
LayerCount: 2
Back
Fore
SplineSet
201 -160 m 1,0,-1
 201 -59 l 1,1,-1
 301 -59 l 1,2,-1
 301 -128 l 2,3,4
 301 -167 301 -167 284.5 -194.5 c 128,-1,5
 268 -222 268 -222 229 -251 c 1,6,-1
 198 -216 l 1,7,8
 214 -202 214 -202 223 -188 c 128,-1,9
 232 -174 232 -174 233 -160 c 1,10,-1
 201 -160 l 1,0,-1
248 239 m 1,11,12
 194 236 194 236 188 236 c 2,13,-1
 141 236 l 1,14,-1
 141 0 l 1,15,-1
 37 0 l 1,16,-1
 37 655 l 1,17,-1
 243 655 l 2,18,19
 352 655 352 655 408 606.5 c 128,-1,20
 464 558 464 558 464 445 c 0,21,22
 464 315 464 315 352 262 c 1,23,24
 421 131 421 131 468 0 c 1,25,-1
 356 0 l 1,26,27
 311 121 311 121 248 239 c 1,11,12
223 563 m 2,28,-1
 141 563 l 1,29,-1
 141 332 l 1,30,-1
 224 332 l 2,31,32
 358 332 358 332 358 445 c 0,33,34
 358 508 358 508 326 535.5 c 128,-1,35
 294 563 294 563 223 563 c 2,28,-1
EndSplineSet
EndChar
StartChar: rcommaaccent
Encoding: 343 343 260
Width: 500
GlyphClass: 2
Flags: W
LayerCount: 2
Back
Fore
SplineSet
81 383 m 1,0,-1
 81 475 l 1,1,-1
 263 475 l 1,2,-1
 265 427 l 1,3,4
 345 472 345 472 442 483 c 1,5,-1
 442 383 l 1,6,7
 403 379 403 379 350 362 c 128,-1,8
 297 345 297 345 265 327 c 1,9,-1
 265 90 l 1,10,-1
 407 90 l 1,11,-1
 407 0 l 1,12,-1
 81 0 l 1,13,-1
 81 92 l 1,14,-1
 163 92 l 1,15,-1
 163 383 l 1,16,-1
 81 383 l 1,0,-1
204 -160 m 1,17,-1
 204 -59 l 1,18,-1
 304 -59 l 1,19,-1
 304 -128 l 2,20,21
 304 -167 304 -167 287.5 -194.5 c 128,-1,22
 271 -222 271 -222 232 -251 c 1,23,-1
 201 -216 l 1,24,25
 217 -202 217 -202 226 -188 c 128,-1,26
 235 -174 235 -174 236 -160 c 1,27,-1
 204 -160 l 1,17,-1
EndSplineSet
Substitution2: "'smcp' Lowercase to Small Capitals in Latin lookup 3 subtable" rcommaaccent.sc
EndChar
StartChar: Rcaron
Encoding: 344 344 261
Width: 500
GlyphClass: 2
Flags: W
LayerCount: 2
Back
Fore
SplineSet
399 882 m 1,0,-1
 273 752 l 1,1,-1
 193 752 l 1,2,-1
 67 882 l 1,3,-1
 165 882 l 1,4,-1
 233 812 l 1,5,-1
 301 882 l 1,6,-1
 399 882 l 1,0,-1
248 239 m 1,7,8
 194 236 194 236 188 236 c 2,9,-1
 141 236 l 1,10,-1
 141 0 l 1,11,-1
 37 0 l 1,12,-1
 37 655 l 1,13,-1
 243 655 l 2,14,15
 352 655 352 655 408 606.5 c 128,-1,16
 464 558 464 558 464 445 c 0,17,18
 464 315 464 315 352 262 c 1,19,20
 421 131 421 131 468 0 c 1,21,-1
 356 0 l 1,22,23
 311 121 311 121 248 239 c 1,7,8
223 563 m 2,24,-1
 141 563 l 1,25,-1
 141 332 l 1,26,-1
 224 332 l 2,27,28
 358 332 358 332 358 445 c 0,29,30
 358 508 358 508 326 535.5 c 128,-1,31
 294 563 294 563 223 563 c 2,24,-1
EndSplineSet
EndChar
StartChar: Sacute
Encoding: 346 346 263
Width: 500
GlyphClass: 2
Flags: W
LayerCount: 2
Back
Fore
SplineSet
148 779 m 1,0,-1
 329 880 l 1,1,-1
 372 793 l 1,2,-1
 188 706 l 1,3,-1
 148 779 l 1,0,-1
42 480 m 0,4,5
 42 665 42 665 264 665 c 0,6,7
 342 665 342 665 442 630 c 1,8,-1
 419 539 l 1,9,10
 317 571 317 571 258.5 571.5 c 128,-1,11
 200 572 200 572 174 552 c 128,-1,12
 148 532 148 532 148 482 c 0,13,14
 148 448 148 448 177 424.5 c 128,-1,15
 206 401 206 401 275 383 c 0,16,17
 380 355 380 355 419 311 c 128,-1,18
 458 267 458 267 458 180 c 0,19,20
 458 -9 458 -9 232 -9 c 0,21,22
 157 -9 157 -9 43 23 c 1,23,-1
 64 118 l 2,24,25
 64 117 64 117 95 109 c 0,26,27
 192 84 192 84 245.5 84 c 128,-1,28
 299 84 299 84 325.5 111 c 128,-1,29
 352 138 352 138 352 179 c 128,-1,30
 352 220 352 220 329.5 242 c 128,-1,31
 307 264 307 264 247 281 c 0,32,33
 139 311 139 311 90.5 355 c 128,-1,34
 42 399 42 399 42 480 c 0,4,5
EndSplineSet
EndChar
StartChar: Scircumflex
Encoding: 348 348 265
Width: 500
GlyphClass: 2
Flags: W
LayerCount: 2
Back
Fore
SplineSet
87 752 m 1,0,-1
 213 882 l 1,1,-1
 293 882 l 1,2,-1
 419 752 l 1,3,-1
 321 752 l 1,4,-1
 253 822 l 1,5,-1
 185 752 l 1,6,-1
 87 752 l 1,0,-1
42 480 m 0,7,8
 42 665 42 665 264 665 c 0,9,10
 342 665 342 665 442 630 c 1,11,-1
 419 539 l 1,12,13
 317 571 317 571 258.5 571.5 c 128,-1,14
 200 572 200 572 174 552 c 128,-1,15
 148 532 148 532 148 482 c 0,16,17
 148 448 148 448 177 424.5 c 128,-1,18
 206 401 206 401 275 383 c 0,19,20
 380 355 380 355 419 311 c 128,-1,21
 458 267 458 267 458 180 c 0,22,23
 458 -9 458 -9 232 -9 c 0,24,25
 157 -9 157 -9 43 23 c 1,26,-1
 64 118 l 2,27,28
 64 117 64 117 95 109 c 0,29,30
 192 84 192 84 245.5 84 c 128,-1,31
 299 84 299 84 325.5 111 c 128,-1,32
 352 138 352 138 352 179 c 128,-1,33
 352 220 352 220 329.5 242 c 128,-1,34
 307 264 307 264 247 281 c 0,35,36
 139 311 139 311 90.5 355 c 128,-1,37
 42 399 42 399 42 480 c 0,7,8
EndSplineSet
EndChar
StartChar: Scedilla
Encoding: 350 350 267
Width: 500
GlyphClass: 2
Flags: W
LayerCount: 2
Back
Fore
SplineSet
305.5 -69.5 m 128,-1,1
 337 -97 337 -97 337 -148.5 c 128,-1,2
 337 -200 337 -200 307 -228.5 c 128,-1,3
 277 -257 277 -257 225 -257 c 0,4,5
 204 -257 204 -257 164 -250 c 1,6,-1
 172 -187 l 1,7,8
 207 -190 207 -190 218 -190 c 0,9,10
 263 -190 263 -190 263 -148 c 0,11,12
 263 -126 263 -126 252.5 -117 c 128,-1,13
 242 -108 242 -108 218 -108 c 2,14,-1
 176 -111 l 1,15,-1
 167 -50 l 1,16,17
 199 -42 199 -42 225 -42 c 0,18,0
 274 -42 274 -42 305.5 -69.5 c 128,-1,1
42 480 m 0,19,20
 42 665 42 665 264 665 c 0,21,22
 342 665 342 665 442 630 c 1,23,-1
 419 539 l 1,24,25
 317 571 317 571 258.5 571.5 c 128,-1,26
 200 572 200 572 174 552 c 128,-1,27
 148 532 148 532 148 482 c 0,28,29
 148 448 148 448 177 424.5 c 128,-1,30
 206 401 206 401 275 383 c 0,31,32
 380 355 380 355 419 311 c 128,-1,33
 458 267 458 267 458 180 c 0,34,35
 458 -9 458 -9 232 -9 c 0,36,37
 157 -9 157 -9 43 23 c 1,38,-1
 64 118 l 2,39,40
 64 117 64 117 95 109 c 0,41,42
 192 84 192 84 245.5 84 c 128,-1,43
 299 84 299 84 325.5 111 c 128,-1,44
 352 138 352 138 352 179 c 128,-1,45
 352 220 352 220 329.5 242 c 128,-1,46
 307 264 307 264 247 281 c 0,47,48
 139 311 139 311 90.5 355 c 128,-1,49
 42 399 42 399 42 480 c 0,19,20
EndSplineSet
EndChar
StartChar: scedilla
Encoding: 351 351 268
Width: 500
GlyphClass: 2
Flags: W
LayerCount: 2
Back
Fore
SplineSet
63 22 m 1,0,-1
 85 113 l 1,1,2
 180 83 180 83 236.5 83 c 128,-1,3
 293 83 293 83 312.5 94 c 128,-1,4
 332 105 332 105 332 130.5 c 128,-1,5
 332 156 332 156 314 167 c 128,-1,6
 296 178 296 178 246 190 c 0,7,8
 147 214 147 214 108 243.5 c 128,-1,9
 69 273 69 273 69 340 c 0,10,11
 69 483 69 483 253 483 c 0,12,13
 332 483 332 483 436 457 c 1,14,-1
 417 362 l 1,15,16
 319 390 319 390 264.5 390 c 128,-1,17
 210 390 210 390 191.5 380.5 c 128,-1,18
 173 371 173 371 173 348 c 128,-1,19
 173 325 173 325 191.5 314.5 c 128,-1,20
 210 304 210 304 287 283 c 128,-1,21
 364 262 364 262 400 234.5 c 128,-1,22
 436 207 436 207 436 141 c 0,23,24
 436 -10 436 -10 250 -10 c 0,25,26
 163 -10 163 -10 63 22 c 1,0,-1
305.5 -69.5 m 128,-1,28
 337 -97 337 -97 337 -148.5 c 128,-1,29
 337 -200 337 -200 307 -228.5 c 128,-1,30
 277 -257 277 -257 225 -257 c 0,31,32
 204 -257 204 -257 164 -250 c 1,33,-1
 172 -187 l 1,34,35
 207 -190 207 -190 218 -190 c 0,36,37
 263 -190 263 -190 263 -148 c 0,38,39
 263 -126 263 -126 252.5 -117 c 128,-1,40
 242 -108 242 -108 218 -108 c 2,41,-1
 176 -111 l 1,42,-1
 167 -50 l 1,43,44
 199 -42 199 -42 225 -42 c 0,45,27
 274 -42 274 -42 305.5 -69.5 c 128,-1,28
EndSplineSet
Substitution2: "'smcp' Lowercase to Small Capitals in Latin lookup 3 subtable" scedilla.sc
EndChar
StartChar: Tcommaaccent
Encoding: 354 354 271
Width: 500
GlyphClass: 2
Flags: W
LayerCount: 2
Back
Fore
SplineSet
201 -160 m 1,0,-1
 201 -59 l 1,1,-1
 301 -59 l 1,2,-1
 301 -128 l 2,3,4
 301 -167 301 -167 284.5 -194.5 c 128,-1,5
 268 -222 268 -222 229 -251 c 1,6,-1
 198 -216 l 1,7,8
 214 -202 214 -202 223 -188 c 128,-1,9
 232 -174 232 -174 233 -160 c 1,10,-1
 201 -160 l 1,0,-1
28 561 m 1,11,-1
 28 655 l 1,12,-1
 470 655 l 1,13,-1
 470 561 l 1,14,-1
 301 561 l 1,15,-1
 301 0 l 1,16,-1
 197 0 l 1,17,-1
 197 561 l 1,18,-1
 28 561 l 1,11,-1
EndSplineSet
EndChar
StartChar: tcommaaccent
Encoding: 355 355 272
Width: 500
GlyphClass: 2
Flags: W
LayerCount: 2
Back
Fore
SplineSet
140 382 m 1,0,-1
 64 382 l 1,1,-1
 64 475 l 1,2,-1
 140 475 l 1,3,-1
 140 589 l 1,4,-1
 243 599 l 1,5,-1
 243 475 l 1,6,-1
 421 475 l 1,7,-1
 421 382 l 1,8,-1
 243 382 l 1,9,-1
 243 182 l 2,10,11
 243 127 243 127 254 106 c 128,-1,12
 265 85 265 85 305.5 85 c 128,-1,13
 346 85 346 85 412 101 c 1,14,-1
 429 9 l 1,15,16
 353 -11 353 -11 299 -11 c 0,17,18
 203 -11 203 -11 171.5 32 c 128,-1,19
 140 75 140 75 140 182 c 2,20,-1
 140 382 l 1,0,-1
224 -160 m 1,21,-1
 224 -59 l 1,22,-1
 324 -59 l 1,23,-1
 324 -128 l 2,24,25
 324 -167 324 -167 307.5 -194.5 c 128,-1,26
 291 -222 291 -222 252 -251 c 1,27,-1
 221 -216 l 1,28,29
 237 -202 237 -202 246 -188 c 128,-1,30
 255 -174 255 -174 256 -160 c 1,31,-1
 224 -160 l 1,21,-1
EndSplineSet
Substitution2: "'smcp' Lowercase to Small Capitals in Latin lookup 3 subtable" tcommaaccent.sc
EndChar
StartChar: Tcaron
Encoding: 356 356 273
Width: 500
GlyphClass: 2
Flags: W
LayerCount: 2
Back
Fore
SplineSet
419 882 m 1,0,-1
 293 752 l 1,1,-1
 213 752 l 1,2,-1
 87 882 l 1,3,-1
 185 882 l 1,4,-1
 253 812 l 1,5,-1
 321 882 l 1,6,-1
 419 882 l 1,0,-1
28 561 m 1,7,-1
 28 655 l 1,8,-1
 470 655 l 1,9,-1
 470 561 l 1,10,-1
 301 561 l 1,11,-1
 301 0 l 1,12,-1
 197 0 l 1,13,-1
 197 561 l 1,14,-1
 28 561 l 1,7,-1
EndSplineSet
EndChar
StartChar: tcaron
Encoding: 357 357 274
Width: 500
GlyphClass: 2
Flags: W
LayerCount: 2
Back
Fore
SplineSet
410 588 m 1,0,-1
 410 687 l 1,1,-1
 499 687 l 1,2,-1
 499 617 l 2,3,4
 499 578 499 578 484.5 550 c 128,-1,5
 470 522 470 522 431 483 c 1,6,-1
 404 508 l 1,7,8
 427 538 427 538 435.5 554 c 128,-1,9
 444 570 444 570 446 588 c 1,10,-1
 410 588 l 1,0,-1
140 362 m 1,11,-1
 64 362 l 1,12,-1
 64 455 l 1,13,-1
 140 455 l 1,14,-1
 140 589 l 1,15,-1
 243 599 l 1,16,-1
 243 455 l 1,17,-1
 421 455 l 1,18,-1
 421 362 l 1,19,-1
 243 362 l 1,20,-1
 243 182 l 2,21,22
 243 127 243 127 254 106 c 0,23,24
 266 85 266 85 306 85 c 128,-1,25
 346 85 346 85 412 101 c 1,26,-1
 429 9 l 1,27,28
 353 -11 353 -11 299 -11 c 0,29,30
 203 -11 203 -11 171.5 32 c 128,-1,31
 140 75 140 75 140 182 c 2,32,-1
 140 362 l 1,11,-1
EndSplineSet
Substitution2: "'smcp' Lowercase to Small Capitals in Latin lookup 3 subtable" tcaron.sc
EndChar
StartChar: Tbar
Encoding: 358 358 275
Width: 500
GlyphClass: 2
Flags: W
LayerCount: 2
Back
Fore
SplineSet
84 454 m 1,0,-1
 417 454 l 1,1,-1
 417 372 l 1,2,-1
 84 372 l 1,3,-1
 84 454 l 1,0,-1
28 561 m 1,4,-1
 28 655 l 1,5,-1
 470 655 l 1,6,-1
 470 561 l 1,7,-1
 301 561 l 1,8,-1
 301 0 l 1,9,-1
 197 0 l 1,10,-1
 197 561 l 1,11,-1
 28 561 l 1,4,-1
EndSplineSet
EndChar
StartChar: tbar
Encoding: 359 359 276
Width: 500
GlyphClass: 2
Flags: W
LayerCount: 2
Back
Fore
SplineSet
64 602 m 1,0,-1
 140 602 l 1,1,-1
 140 709 l 1,2,-1
 243 719 l 1,3,-1
 243 602 l 1,4,-1
 421 602 l 1,5,-1
 421 522 l 1,6,-1
 243 522 l 1,7,-1
 243 455 l 1,8,-1
 421 455 l 1,9,-1
 421 373 l 1,10,-1
 243 373 l 1,11,-1
 243 182 l 2,12,13
 243 127 243 127 254 106 c 0,14,15
 266 85 266 85 306 85 c 128,-1,16
 346 85 346 85 412 101 c 1,17,-1
 429 9 l 1,18,19
 353 -11 353 -11 299 -11 c 0,20,21
 203 -11 203 -11 171.5 32 c 128,-1,22
 140 75 140 75 140 182 c 2,23,-1
 140 373 l 1,24,-1
 64 373 l 1,25,-1
 64 455 l 1,26,-1
 140 455 l 1,27,-1
 140 522 l 1,28,-1
 64 522 l 1,29,-1
 64 602 l 1,0,-1
EndSplineSet
Substitution2: "'smcp' Lowercase to Small Capitals in Latin lookup 3 subtable" tbar.sc
EndChar
StartChar: Utilde
Encoding: 360 360 277
Width: 500
GlyphClass: 2
Flags: W
LayerCount: 2
Back
Fore
SplineSet
373 870 m 1,0,-1
 414 814 l 1,1,2
 365 761 365 761 318 761 c 0,3,4
 283 761 283 761 245 782 c 0,5,6
 208 804 208 804 186 804 c 128,-1,7
 164 804 164 804 131 773 c 1,8,-1
 86 828 l 1,9,10
 145 885 145 885 192 885 c 0,11,12
 225 885 225 885 264 864 c 0,13,14
 304 843 304 843 324 843 c 128,-1,15
 344 843 344 843 373 870 c 1,0,-1
26 220 m 2,16,-1
 26 655 l 1,17,-1
 131 655 l 1,18,-1
 131 232 l 2,19,20
 131 155 131 155 156 120 c 0,21,22
 180 85 180 85 248 85 c 128,-1,23
 316 85 316 85 342 119 c 128,-1,24
 368 153 368 153 368 232 c 2,25,-1
 368 655 l 1,26,-1
 473 655 l 1,27,-1
 473 220 l 2,28,29
 473 103 473 103 422.5 47 c 128,-1,30
 372 -9 372 -9 246 -9 c 128,-1,31
 120 -9 120 -9 73 48 c 128,-1,32
 26 105 26 105 26 220 c 2,16,-1
EndSplineSet
EndChar
StartChar: utilde
Encoding: 361 361 278
Width: 500
GlyphClass: 2
Flags: W
LayerCount: 2
Back
Fore
SplineSet
344 0 m 1,0,-1
 342 29 l 2,1,2
 339 28 339 28 323.5 20.5 c 128,-1,3
 308 13 308 13 304 11.5 c 128,-1,4
 300 10 300 10 288 4 c 0,5,6
 274 0 274 0 268 -2 c 2,7,-1
 252 -6 l 2,8,9
 233 -10 233 -10 211 -11 c 0,10,11
 130 -11 130 -11 93 36 c 128,-1,12
 56 83 56 83 56 185 c 2,13,-1
 56 475 l 1,14,-1
 159 475 l 1,15,-1
 159 191 l 2,16,17
 159 140 159 140 173 114.5 c 128,-1,18
 187 89 187 89 222 89 c 128,-1,19
 257 89 257 89 293.5 103.5 c 128,-1,20
 330 118 330 118 341 128 c 1,21,-1
 341 475 l 1,22,-1
 444 475 l 1,23,-1
 444 0 l 1,24,-1
 344 0 l 1,0,-1
373 705 m 1,25,-1
 414 649 l 1,26,27
 365 596 365 596 318 596 c 0,28,29
 283 596 283 596 245 617.5 c 128,-1,30
 207 639 207 639 185.5 639 c 128,-1,31
 164 639 164 639 131 608 c 1,32,-1
 86 663 l 1,33,34
 145 720 145 720 192 720 c 0,35,36
 225 720 225 720 264 699 c 128,-1,37
 303 678 303 678 323.5 678 c 128,-1,38
 344 678 344 678 373 705 c 1,25,-1
EndSplineSet
Substitution2: "'smcp' Lowercase to Small Capitals in Latin lookup 3 subtable" utilde.sc
EndChar
StartChar: Ubreve
Encoding: 364 364 281
Width: 500
GlyphClass: 2
Flags: W
LayerCount: 2
Back
Fore
SplineSet
250 754 m 128,-1,1
 115 754 115 754 107 875 c 1,2,-1
 181 875 l 1,3,4
 186 845 186 845 203 833 c 128,-1,5
 220 821 220 821 250 821 c 128,-1,6
 280 821 280 821 297 833 c 128,-1,7
 314 845 314 845 319 875 c 1,8,-1
 393 875 l 1,9,0
 385 754 385 754 250 754 c 128,-1,1
26 220 m 2,10,-1
 26 655 l 1,11,-1
 131 655 l 1,12,-1
 131 232 l 2,13,14
 131 155 131 155 156 120 c 0,15,16
 180 85 180 85 248 85 c 128,-1,17
 316 85 316 85 342 119 c 128,-1,18
 368 153 368 153 368 232 c 2,19,-1
 368 655 l 1,20,-1
 473 655 l 1,21,-1
 473 220 l 2,22,23
 473 103 473 103 422.5 47 c 128,-1,24
 372 -9 372 -9 246 -9 c 128,-1,25
 120 -9 120 -9 73 48 c 128,-1,26
 26 105 26 105 26 220 c 2,10,-1
EndSplineSet
EndChar
StartChar: ubreve
Encoding: 365 365 282
Width: 500
GlyphClass: 2
Flags: W
LayerCount: 2
Back
Fore
SplineSet
344 0 m 1,0,-1
 342 29 l 2,1,2
 339 28 339 28 323.5 20.5 c 128,-1,3
 308 13 308 13 304 11.5 c 128,-1,4
 300 10 300 10 288 4 c 0,5,6
 274 0 274 0 268 -2 c 2,7,-1
 252 -6 l 2,8,9
 233 -10 233 -10 211 -11 c 0,10,11
 130 -11 130 -11 93 36 c 128,-1,12
 56 83 56 83 56 185 c 2,13,-1
 56 475 l 1,14,-1
 159 475 l 1,15,-1
 159 191 l 2,16,17
 159 140 159 140 173 114.5 c 128,-1,18
 187 89 187 89 222 89 c 128,-1,19
 257 89 257 89 293.5 103.5 c 128,-1,20
 330 118 330 118 341 128 c 1,21,-1
 341 475 l 1,22,-1
 444 475 l 1,23,-1
 444 0 l 1,24,-1
 344 0 l 1,0,-1
250 579 m 128,-1,26
 115 579 115 579 107 700 c 1,27,-1
 181 700 l 1,28,29
 186 670 186 670 203 658 c 128,-1,30
 220 646 220 646 250 646 c 128,-1,31
 280 646 280 646 297 658 c 128,-1,32
 314 670 314 670 319 700 c 1,33,-1
 393 700 l 1,34,25
 385 579 385 579 250 579 c 128,-1,26
EndSplineSet
Substitution2: "'smcp' Lowercase to Small Capitals in Latin lookup 3 subtable" ubreve.sc
EndChar
StartChar: Uring
Encoding: 366 366 283
Width: 500
GlyphClass: 2
Flags: W
LayerCount: 2
Back
Fore
SplineSet
336 899 m 128,-1,1
 369 869 369 869 369 818.5 c 128,-1,2
 369 768 369 768 336 738 c 128,-1,3
 303 708 303 708 249.5 708 c 128,-1,4
 196 708 196 708 163 738 c 128,-1,5
 130 768 130 768 130 818.5 c 128,-1,6
 130 869 130 869 163 899 c 128,-1,7
 196 929 196 929 249.5 929 c 128,-1,0
 303 929 303 929 336 899 c 128,-1,1
199 818 m 128,-1,9
 199 773 199 773 249 773 c 128,-1,10
 299 773 299 773 299 818 c 128,-1,11
 299 863 299 863 249 863 c 128,-1,8
 199 863 199 863 199 818 c 128,-1,9
26 220 m 2,12,-1
 26 655 l 1,13,-1
 131 655 l 1,14,-1
 131 232 l 2,15,16
 131 155 131 155 156 120 c 128,-1,17
 181 85 181 85 248.5 85 c 128,-1,18
 316 85 316 85 342 119 c 128,-1,19
 368 153 368 153 368 232 c 2,20,-1
 368 655 l 1,21,-1
 473 655 l 1,22,-1
 473 220 l 2,23,24
 473 103 473 103 422.5 47 c 128,-1,25
 372 -9 372 -9 246.5 -9 c 128,-1,26
 121 -9 121 -9 73.5 48 c 128,-1,27
 26 105 26 105 26 220 c 2,12,-1
EndSplineSet
EndChar
StartChar: uring
Encoding: 367 367 284
Width: 500
GlyphClass: 2
Flags: W
LayerCount: 2
Back
Fore
SplineSet
344 0 m 1,0,-1
 342 29 l 2,1,2
 339 28 339 28 323.5 20.5 c 128,-1,3
 308 13 308 13 304 11.5 c 128,-1,4
 300 10 300 10 288 4 c 0,5,6
 274 0 274 0 268 -2 c 2,7,-1
 252 -6 l 2,8,9
 233 -10 233 -10 211 -11 c 0,10,11
 130 -11 130 -11 93 36 c 128,-1,12
 56 83 56 83 56 185 c 2,13,-1
 56 475 l 1,14,-1
 159 475 l 1,15,-1
 159 191 l 2,16,17
 159 140 159 140 173 114.5 c 128,-1,18
 187 89 187 89 222 89 c 128,-1,19
 257 89 257 89 293.5 103.5 c 128,-1,20
 330 118 330 118 341 128 c 1,21,-1
 341 475 l 1,22,-1
 444 475 l 1,23,-1
 444 0 l 1,24,-1
 344 0 l 1,0,-1
336 739 m 128,-1,26
 369 709 369 709 369 658.5 c 128,-1,27
 369 608 369 608 336 578 c 128,-1,28
 303 548 303 548 249.5 548 c 128,-1,29
 196 548 196 548 163 578 c 128,-1,30
 130 608 130 608 130 658.5 c 128,-1,31
 130 709 130 709 163 739 c 128,-1,32
 196 769 196 769 249.5 769 c 128,-1,25
 303 769 303 769 336 739 c 128,-1,26
199 658 m 128,-1,34
 199 613 199 613 249 613 c 128,-1,35
 299 613 299 613 299 658 c 128,-1,36
 299 703 299 703 249 703 c 128,-1,33
 199 703 199 703 199 658 c 128,-1,34
EndSplineSet
Substitution2: "'smcp' Lowercase to Small Capitals in Latin lookup 3 subtable" uring.sc
EndChar
StartChar: Uhungarumlaut
Encoding: 368 368 285
Width: 500
GlyphClass: 2
Flags: W
LayerCount: 2
Back
Fore
SplineSet
54 757 m 1,0,-1
 225 874 l 1,1,-1
 276 791 l 1,2,-1
 100 688 l 1,3,-1
 54 757 l 1,0,-1
268 757 m 1,4,-1
 439 874 l 1,5,-1
 490 791 l 1,6,-1
 314 688 l 1,7,-1
 268 757 l 1,4,-1
26 220 m 2,8,-1
 26 655 l 1,9,-1
 131 655 l 1,10,-1
 131 232 l 2,11,12
 131 155 131 155 156 120 c 0,13,14
 180 85 180 85 248 85 c 128,-1,15
 316 85 316 85 342 119 c 128,-1,16
 368 153 368 153 368 232 c 2,17,-1
 368 655 l 1,18,-1
 473 655 l 1,19,-1
 473 220 l 2,20,21
 473 103 473 103 422.5 47 c 128,-1,22
 372 -9 372 -9 246 -9 c 128,-1,23
 120 -9 120 -9 73 48 c 128,-1,24
 26 105 26 105 26 220 c 2,8,-1
EndSplineSet
EndChar
StartChar: uhungarumlaut
Encoding: 369 369 286
Width: 500
GlyphClass: 2
Flags: W
LayerCount: 2
Back
Fore
SplineSet
344 0 m 1,0,-1
 342 29 l 2,1,2
 339 28 339 28 323.5 20.5 c 128,-1,3
 308 13 308 13 304 11.5 c 128,-1,4
 300 10 300 10 288 4 c 0,5,6
 274 0 274 0 268 -2 c 2,7,-1
 252 -6 l 2,8,9
 233 -10 233 -10 211 -11 c 0,10,11
 130 -11 130 -11 93 36 c 128,-1,12
 56 83 56 83 56 185 c 2,13,-1
 56 475 l 1,14,-1
 159 475 l 1,15,-1
 159 191 l 2,16,17
 159 140 159 140 173 114.5 c 128,-1,18
 187 89 187 89 222 89 c 128,-1,19
 257 89 257 89 293.5 103.5 c 128,-1,20
 330 118 330 118 341 128 c 1,21,-1
 341 475 l 1,22,-1
 444 475 l 1,23,-1
 444 0 l 1,24,-1
 344 0 l 1,0,-1
44 607 m 1,25,-1
 215 724 l 1,26,-1
 266 641 l 1,27,-1
 90 538 l 1,28,-1
 44 607 l 1,25,-1
258 607 m 1,29,-1
 429 724 l 1,30,-1
 480 641 l 1,31,-1
 304 538 l 1,32,-1
 258 607 l 1,29,-1
EndSplineSet
Substitution2: "'smcp' Lowercase to Small Capitals in Latin lookup 3 subtable" uhungarumlaut.sc
EndChar
StartChar: Uogonek
Encoding: 370 370 287
Width: 500
GlyphClass: 2
Flags: W
LayerCount: 2
Back
Fore
SplineSet
277 -9 m 1,0,-1
 250 -9 l 2,1,2
 128 -9 128 -9 77 45.5 c 128,-1,3
 26 100 26 100 26 203 c 2,4,-1
 26 655 l 1,5,-1
 129 655 l 1,6,-1
 129 217 l 2,7,8
 129 89 129 89 250 89 c 0,9,10
 308 89 308 89 335 110 c 0,11,12
 371 138 371 138 371 220 c 2,13,-1
 371 655 l 1,14,-1
 473 655 l 1,15,-1
 473 226 l 2,16,17
 472 108 472 108 432 58 c 0,18,19
 414 36 414 36 388 11.5 c 128,-1,20
 362 -13 362 -13 358 -17 c 0,21,22
 283 -88 283 -88 286 -143 c 0,23,24
 287 -160 287 -160 298.5 -175.5 c 128,-1,25
 310 -191 310 -191 338.5 -191 c 128,-1,26
 367 -191 367 -191 385 -187 c 1,27,-1
 395 -262 l 1,28,29
 352 -269 352 -269 321 -269 c 0,30,31
 265 -269 265 -269 232 -230.5 c 128,-1,32
 199 -192 199 -192 199 -145 c 128,-1,33
 199 -98 199 -98 216.5 -69 c 128,-1,34
 234 -40 234 -40 277 -9 c 1,0,-1
EndSplineSet
EndChar
StartChar: uogonek
Encoding: 371 371 288
Width: 500
GlyphClass: 2
Flags: W
LayerCount: 2
Back
Fore
SplineSet
284.5 -236.5 m 128,-1,1
 247 -203 247 -203 247 -133.5 c 128,-1,2
 247 -64 247 -64 343 5 c 1,3,-1
 342 34 l 1,4,-1
 316 22 l 2,5,6
 263 -3 263 -3 244 -6 c 128,-1,7
 225 -9 225 -9 211 -9 c 0,8,9
 129 -9 129 -9 92.5 37 c 128,-1,10
 56 83 56 83 56 185 c 2,11,-1
 56 475 l 1,12,-1
 159 475 l 1,13,-1
 159 191 l 2,14,15
 159 140 159 140 173 115.5 c 128,-1,16
 187 91 187 91 222 91 c 128,-1,17
 257 91 257 91 293 106.5 c 128,-1,18
 329 122 329 122 341 133 c 1,19,-1
 341 475 l 1,20,-1
 444 475 l 1,21,-1
 444 -3 l 1,22,23
 378 -53 378 -53 356 -80.5 c 128,-1,24
 334 -108 334 -108 334 -133.5 c 128,-1,25
 334 -159 334 -159 346 -175.5 c 128,-1,26
 358 -192 358 -192 384.5 -192 c 128,-1,27
 411 -192 411 -192 433 -188 c 1,28,-1
 443 -263 l 1,29,30
 399 -270 399 -270 372 -270 c 0,31,0
 322 -270 322 -270 284.5 -236.5 c 128,-1,1
EndSplineSet
Substitution2: "'smcp' Lowercase to Small Capitals in Latin lookup 3 subtable" uogonek.sc
EndChar
StartChar: Wcircumflex
Encoding: 372 372 289
Width: 500
GlyphClass: 2
Flags: W
LayerCount: 2
Back
Fore
SplineSet
87 752 m 1,0,-1
 213 882 l 1,1,-1
 293 882 l 1,2,-1
 419 752 l 1,3,-1
 321 752 l 1,4,-1
 253 822 l 1,5,-1
 185 752 l 1,6,-1
 87 752 l 1,0,-1
57 0 m 1,7,-1
 0 655 l 1,8,-1
 100 655 l 1,9,-1
 144 92 l 1,10,-1
 150 92 l 1,11,-1
 212 383 l 1,12,-1
 301 383 l 1,13,-1
 360 92 l 1,14,-1
 367 92 l 1,15,-1
 402 655 l 1,16,-1
 499 655 l 1,17,-1
 454 0 l 1,18,-1
 302 0 l 1,19,-1
 256 258 l 1,20,-1
 253 258 l 1,21,-1
 205 0 l 1,22,-1
 57 0 l 1,7,-1
EndSplineSet
EndChar
StartChar: Ycircumflex
Encoding: 374 374 291
Width: 500
GlyphClass: 2
Flags: W
LayerCount: 2
Back
Fore
SplineSet
87 752 m 1,0,-1
 213 882 l 1,1,-1
 293 882 l 1,2,-1
 419 752 l 1,3,-1
 321 752 l 1,4,-1
 253 822 l 1,5,-1
 185 752 l 1,6,-1
 87 752 l 1,0,-1
302 283 m 1,7,-1
 302 0 l 1,8,-1
 198 0 l 1,9,-1
 198 283 l 1,10,-1
 0 655 l 1,11,-1
 116 655 l 1,12,-1
 246 380 l 1,13,-1
 254 380 l 1,14,-1
 384 655 l 1,15,-1
 500 655 l 1,16,-1
 302 283 l 1,7,-1
EndSplineSet
EndChar
StartChar: ycircumflex
Encoding: 375 375 292
Width: 500
GlyphClass: 2
Flags: W
LayerCount: 2
Back
Fore
SplineSet
29 475 m 1,0,-1
 141 475 l 1,1,-1
 256 89 l 1,2,-1
 264 89 l 1,3,-1
 361 475 l 1,4,-1
 470 475 l 1,5,-1
 338 12 l 2,6,7
 317 -62 317 -62 299 -101.5 c 128,-1,8
 281 -141 281 -141 249 -166 c 128,-1,9
 217 -191 217 -191 178 -198 c 128,-1,10
 139 -205 139 -205 68 -206 c 1,11,-1
 68 -113 l 1,12,13
 129 -113 129 -113 158 -100 c 128,-1,14
 187 -87 187 -87 198 -59 c 2,15,-1
 204 -44 l 1,16,-1
 29 475 l 1,0,-1
297 745 m 1,17,-1
 405 588 l 1,18,-1
 303 588 l 1,19,-1
 250 674 l 1,20,-1
 197 588 l 1,21,-1
 95 588 l 1,22,-1
 203 745 l 1,23,-1
 297 745 l 1,17,-1
EndSplineSet
Substitution2: "'smcp' Lowercase to Small Capitals in Latin lookup 3 subtable" ycircumflex.sc
EndChar
StartChar: Ydieresis
Encoding: 376 376 293
Width: 500
GlyphClass: 2
Flags: W
LayerCount: 2
Back
Fore
SplineSet
301 283 m 1,0,-1
 301 0 l 1,1,-1
 199 0 l 1,2,-1
 199 283 l 1,3,-1
 -1 655 l 1,4,-1
 118 655 l 1,5,-1
 251 380 l 1,6,-1
 386 655 l 1,7,-1
 499 655 l 1,8,-1
 301 283 l 1,0,-1
290 812 m 128,-1,10
 290 835 290 835 306 852 c 128,-1,11
 322 869 322 869 346 869 c 128,-1,12
 370 869 370 869 386 852 c 128,-1,13
 402 835 402 835 402 812 c 128,-1,14
 402 789 402 789 386 772 c 128,-1,15
 370 755 370 755 346 755 c 128,-1,16
 322 755 322 755 306 772 c 128,-1,9
 290 789 290 789 290 812 c 128,-1,10
97 812 m 128,-1,18
 97 835 97 835 113.5 852 c 128,-1,19
 130 869 130 869 153 869 c 128,-1,20
 176 869 176 869 192.5 852 c 128,-1,21
 209 835 209 835 209 812 c 128,-1,22
 209 789 209 789 193 772 c 128,-1,23
 177 755 177 755 153 755 c 128,-1,24
 129 755 129 755 113 772 c 128,-1,17
 97 789 97 789 97 812 c 128,-1,18
EndSplineSet
EndChar
StartChar: Zacute
Encoding: 377 377 294
Width: 500
GlyphClass: 2
Flags: W
LayerCount: 2
Back
Fore
SplineSet
64 561 m 1,0,-1
 64 655 l 1,1,-1
 437 655 l 1,2,-1
 437 573 l 1,3,-1
 192 94 l 1,4,-1
 452 94 l 1,5,-1
 452 0 l 1,6,-1
 61 0 l 1,7,-1
 61 71 l 1,8,-1
 312 561 l 1,9,-1
 64 561 l 1,0,-1
148 779 m 1,10,-1
 329 880 l 1,11,-1
 372 793 l 1,12,-1
 188 706 l 1,13,-1
 148 779 l 1,10,-1
EndSplineSet
EndChar
StartChar: zacute
Encoding: 378 378 295
Width: 500
GlyphClass: 2
Flags: W
LayerCount: 2
Back
Fore
SplineSet
81 383 m 1,0,-1
 81 475 l 1,1,-1
 420 475 l 1,2,-1
 426 392 l 1,3,-1
 213 92 l 1,4,-1
 427 92 l 1,5,-1
 427 0 l 1,6,-1
 77 0 l 1,7,-1
 69 72 l 1,8,-1
 287 383 l 1,9,-1
 81 383 l 1,0,-1
138 634 m 1,10,-1
 319 735 l 1,11,-1
 362 648 l 1,12,-1
 178 561 l 1,13,-1
 138 634 l 1,10,-1
EndSplineSet
Substitution2: "'smcp' Lowercase to Small Capitals in Latin lookup 3 subtable" zacute.sc
EndChar
StartChar: Zdotaccent
Encoding: 379 379 296
Width: 500
GlyphClass: 2
Flags: W
LayerCount: 2
Back
Fore
SplineSet
64 561 m 1,0,-1
 64 655 l 1,1,-1
 437 655 l 1,2,-1
 437 573 l 1,3,-1
 192 94 l 1,4,-1
 452 94 l 1,5,-1
 452 0 l 1,6,-1
 61 0 l 1,7,-1
 61 71 l 1,8,-1
 312 561 l 1,9,-1
 64 561 l 1,0,-1
194 812 m 128,-1,11
 194 835 194 835 210 852 c 128,-1,12
 226 869 226 869 250 869 c 128,-1,13
 274 869 274 869 290 852 c 128,-1,14
 306 835 306 835 306 812 c 128,-1,15
 306 789 306 789 290 772 c 128,-1,16
 274 755 274 755 250 755 c 128,-1,17
 226 755 226 755 210 772 c 128,-1,10
 194 789 194 789 194 812 c 128,-1,11
EndSplineSet
EndChar
StartChar: zdotaccent
Encoding: 380 380 297
Width: 500
GlyphClass: 2
Flags: W
LayerCount: 2
Back
Fore
SplineSet
81 383 m 1,0,-1
 81 475 l 1,1,-1
 420 475 l 1,2,-1
 426 392 l 1,3,-1
 213 92 l 1,4,-1
 427 92 l 1,5,-1
 427 0 l 1,6,-1
 77 0 l 1,7,-1
 69 72 l 1,8,-1
 287 383 l 1,9,-1
 81 383 l 1,0,-1
194 647 m 128,-1,11
 194 670 194 670 210 687 c 128,-1,12
 226 704 226 704 250 704 c 128,-1,13
 274 704 274 704 290 687 c 128,-1,14
 306 670 306 670 306 647 c 128,-1,15
 306 624 306 624 290 607 c 128,-1,16
 274 590 274 590 250 590 c 128,-1,17
 226 590 226 590 210 607 c 128,-1,10
 194 624 194 624 194 647 c 128,-1,11
EndSplineSet
Substitution2: "'smcp' Lowercase to Small Capitals in Latin lookup 3 subtable" zdotaccent.sc
EndChar
StartChar: Zcaron
Encoding: 381 381 298
Width: 500
GlyphClass: 2
Flags: W
LayerCount: 2
Back
Fore
SplineSet
419 882 m 1,0,-1
 293 752 l 1,1,-1
 213 752 l 1,2,-1
 87 882 l 1,3,-1
 185 882 l 1,4,-1
 253 812 l 1,5,-1
 321 882 l 1,6,-1
 419 882 l 1,0,-1
64 561 m 1,7,-1
 64 655 l 1,8,-1
 437 655 l 1,9,-1
 437 573 l 1,10,-1
 192 94 l 1,11,-1
 452 94 l 1,12,-1
 452 0 l 1,13,-1
 61 0 l 1,14,-1
 61 71 l 1,15,-1
 312 561 l 1,16,-1
 64 561 l 1,7,-1
EndSplineSet
EndChar
StartChar: zcaron
Encoding: 382 382 299
Width: 500
GlyphClass: 2
Flags: W
LayerCount: 2
Back
Fore
SplineSet
81 383 m 1,0,-1
 81 475 l 1,1,-1
 420 475 l 1,2,-1
 426 392 l 1,3,-1
 213 92 l 1,4,-1
 427 92 l 1,5,-1
 427 0 l 1,6,-1
 77 0 l 1,7,-1
 69 72 l 1,8,-1
 287 383 l 1,9,-1
 81 383 l 1,0,-1
420 722 m 1,10,-1
 294 592 l 1,11,-1
 214 592 l 1,12,-1
 88 722 l 1,13,-1
 186 722 l 1,14,-1
 254 652 l 1,15,-1
 322 722 l 1,16,-1
 420 722 l 1,10,-1
EndSplineSet
Substitution2: "'smcp' Lowercase to Small Capitals in Latin lookup 3 subtable" zcaron.sc
EndChar
StartChar: florin
Encoding: 402 402 300
Width: 500
GlyphClass: 2
Flags: W
LayerCount: 2
Back
Fore
SplineSet
107 6 m 1,0,1
 107 6 107 6 152 355 c 1,2,-1
 86 355 l 1,3,-1
 102 455 l 1,4,-1
 168 455 l 1,5,6
 178 558 178 558 220 609 c 128,-1,7
 262 660 262 660 354 660 c 0,8,9
 419 660 419 660 462 646 c 1,10,-1
 435 555 l 1,11,12
 387 566 387 566 351 566 c 128,-1,13
 315 566 315 566 294.5 542 c 128,-1,14
 274 518 274 518 266 455 c 1,15,-1
 412 455 l 1,16,-1
 397 355 l 1,17,-1
 256 355 l 1,18,-1
 210 6 l 2,19,20
 196 -93 196 -93 146.5 -142.5 c 128,-1,21
 97 -192 97 -192 24 -192 c 1,22,-1
 32 -95 l 1,23,24
 87 -95 87 -95 107 6 c 1,0,1
EndSplineSet
EndChar
StartChar: Aringacute
Encoding: 506 506 301
Width: 500
GlyphClass: 2
Flags: W
LayerCount: 2
Back
Fore
SplineSet
314 734 m 1,0,-1
 365 928 l 1,1,-1
 454 903 l 1,2,-1
 387 712 l 1,3,-1
 314 734 l 1,0,-1
266 899 m 128,-1,5
 299 869 299 869 299 818.5 c 128,-1,6
 299 768 299 768 266 738 c 128,-1,7
 233 708 233 708 179.5 708 c 128,-1,8
 126 708 126 708 93 738 c 128,-1,9
 60 768 60 768 60 818.5 c 128,-1,10
 60 869 60 869 93 899 c 128,-1,11
 126 929 126 929 179.5 929 c 128,-1,4
 233 929 233 929 266 899 c 128,-1,5
129 818 m 128,-1,13
 129 773 129 773 179 773 c 128,-1,14
 229 773 229 773 229 818 c 128,-1,15
 229 863 229 863 179 863 c 128,-1,12
 129 863 129 863 129 818 c 128,-1,13
0 0 m 1,16,-1
 159 655 l 1,17,-1
 346 655 l 1,18,-1
 500 0 l 1,19,-1
 390 0 l 1,20,-1
 359 125 l 1,21,-1
 137 125 l 1,22,-1
 108 0 l 1,23,-1
 0 0 l 1,16,-1
337 218 m 1,24,-1
 263 562 l 1,25,-1
 241 562 l 1,26,-1
 158 218 l 1,27,-1
 337 218 l 1,24,-1
EndSplineSet
EndChar
StartChar: aringacute
Encoding: 507 507 302
Width: 500
GlyphClass: 2
Flags: W
LayerCount: 2
Back
Fore
SplineSet
138 819 m 1,0,-1
 319 920 l 1,1,-1
 361 842 l 1,2,-1
 177 755 l 1,3,-1
 138 819 l 1,0,-1
216 86 m 0,4,5
 244 86 244 86 278 99 c 128,-1,6
 312 112 312 112 332 128 c 1,7,-1
 332 198 l 1,8,9
 272 203 272 203 234 203 c 0,10,11
 151 203 151 203 151 141 c 0,12,13
 151 86 151 86 216 86 c 0,4,5
200 -11 m 0,14,15
 40 -11 40 -11 40 141 c 0,16,17
 40 222 40 222 91.5 254.5 c 128,-1,18
 143 287 143 287 234 287 c 0,19,20
 277 287 277 287 332 282 c 1,21,22
 332 342 332 342 315 364 c 128,-1,23
 298 386 298 386 256 386 c 128,-1,24
 214 386 214 386 158 376 c 128,-1,25
 102 366 102 366 72 356 c 1,26,-1
 53 451 l 1,27,28
 158 483 158 483 257.5 483 c 128,-1,29
 357 483 357 483 396 439 c 128,-1,30
 435 395 435 395 435 290 c 2,31,-1
 435 87 l 1,32,-1
 446 -1 l 1,33,-1
 343 -11 l 1,34,-1
 333 35 l 1,35,36
 249 -11 249 -11 200 -11 c 0,14,15
336 704 m 128,-1,38
 369 674 369 674 369 623.5 c 128,-1,39
 369 573 369 573 336 543 c 128,-1,40
 303 513 303 513 249.5 513 c 128,-1,41
 196 513 196 513 163 543 c 128,-1,42
 130 573 130 573 130 623.5 c 128,-1,43
 130 674 130 674 163 704 c 128,-1,44
 196 734 196 734 249.5 734 c 128,-1,37
 303 734 303 734 336 704 c 128,-1,38
199 623 m 128,-1,46
 199 578 199 578 249 578 c 128,-1,47
 299 578 299 578 299 623 c 128,-1,48
 299 668 299 668 249 668 c 128,-1,45
 199 668 199 668 199 623 c 128,-1,46
EndSplineSet
Substitution2: "'smcp' Lowercase to Small Capitals in Latin lookup 3 subtable" aringacute.sc
EndChar
StartChar: AEacute
Encoding: 508 508 303
Width: 500
GlyphClass: 2
Flags: W
LayerCount: 2
Back
Fore
SplineSet
481 0 m 1,0,-1
 249 0 l 1,1,-1
 249 126 l 1,2,-1
 135 126 l 1,3,-1
 100 0 l 1,4,-1
 6 0 l 1,5,-1
 196 655 l 1,6,-1
 478 655 l 1,7,-1
 478 579 l 1,8,-1
 349 579 l 1,9,-1
 349 382 l 1,10,-1
 451 382 l 1,11,-1
 451 284 l 1,12,-1
 349 284 l 1,13,-1
 349 76 l 1,14,-1
 481 76 l 1,15,-1
 481 0 l 1,0,-1
166 812 m 1,16,-1
 371 900 l 1,17,-1
 405 818 l 1,18,-1
 199 734 l 1,19,-1
 166 812 l 1,16,-1
164 211 m 1,20,-1
 259 211 l 1,21,-1
 259 563 l 1,22,-1
 164 211 l 1,20,-1
EndSplineSet
EndChar
StartChar: aeacute
Encoding: 509 509 304
Width: 500
GlyphClass: 2
Flags: W
LayerCount: 2
Back
Fore
SplineSet
138 634 m 1,0,-1
 319 735 l 1,1,-1
 362 648 l 1,2,-1
 178 561 l 1,3,-1
 138 634 l 1,0,-1
202.5 2 m 128,-1,5
 179 -10 179 -10 130.5 -10 c 128,-1,6
 82 -10 82 -10 50.5 28.5 c 128,-1,7
 19 67 19 67 19 132.5 c 128,-1,8
 19 198 19 198 56.5 240.5 c 128,-1,9
 94 283 94 283 156 283 c 2,10,-1
 204 283 l 1,11,12
 204 359 204 359 196 381.5 c 128,-1,13
 188 404 188 404 160 404 c 0,14,15
 118 404 118 404 59 377 c 1,16,-1
 34 440 l 1,17,18
 106 475 106 475 153 475 c 128,-1,19
 200 475 200 475 222.5 465.5 c 128,-1,20
 245 456 245 456 259 425 c 1,21,22
 290 480 290 480 357.5 480 c 128,-1,23
 425 480 425 480 455 429.5 c 128,-1,24
 485 379 485 379 485 269 c 1,25,-1
 482 201 l 1,26,-1
 299 201 l 1,27,28
 300 133 300 133 315.5 98 c 128,-1,29
 331 63 331 63 371 62 c 0,30,31
 396 62 396 62 444 77 c 2,32,-1
 460 82 l 1,33,-1
 481 15 l 1,34,35
 416 -10 416 -10 374 -10 c 128,-1,36
 332 -10 332 -10 308 0.5 c 128,-1,37
 284 11 284 11 255 45 c 1,38,4
 226 14 226 14 202.5 2 c 128,-1,5
206 102 m 1,39,-1
 206 201 l 1,40,-1
 156 201 l 2,41,42
 128 201 128 201 111.5 183.5 c 128,-1,43
 95 166 95 166 95 134 c 0,44,45
 95 61 95 61 140 61 c 0,46,47
 163 61 163 61 179.5 71.5 c 128,-1,48
 196 82 196 82 201 92 c 2,49,-1
 206 102 l 1,39,-1
394 378.5 m 128,-1,51
 384 405 384 405 355.5 405 c 128,-1,52
 327 405 327 405 312.5 379 c 128,-1,53
 298 353 298 353 297 282 c 1,54,-1
 404 282 l 1,55,50
 404 352 404 352 394 378.5 c 128,-1,51
EndSplineSet
Substitution2: "'smcp' Lowercase to Small Capitals in Latin lookup 3 subtable" aeacute.sc
EndChar
